<svg width="21" height="21" viewBox="0 0 21 21" fill="none" xmlns="http://www.w3.org/2000/svg">
<path fill-rule="evenodd" clip-rule="evenodd" d="M19.5241 7.75296C18.885 3.81957 15.5441 0.893328 11.5608 0.778136C11.3714 0.770712 11.1868 0.8389 11.0477 0.967672C10.9086 1.09645 10.8265 1.27523 10.8193 1.46464V1.46464V1.52871L11.2678 8.23809C11.2973 8.68974 11.6856 9.03307 12.1374 9.00697L18.8651 8.55846C19.0547 8.54444 19.2308 8.4554 19.3545 8.31108C19.4782 8.16676 19.5393 7.97906 19.5241 7.78958V7.75296Z" stroke="#200E32" stroke-width="1.5" stroke-linecap="round" stroke-linejoin="round"/>
<path d="M6.902 4.76901C7.32995 4.67002 7.76789 4.88899 7.94548 5.29075C7.99199 5.38525 8.01996 5.48778 8.02786 5.59281C8.11939 6.89258 8.31161 9.73926 8.42145 11.277C8.4402 11.554 8.56857 11.8121 8.77815 11.9942C8.98774 12.1763 9.26124 12.2674 9.53815 12.2473V12.2473L15.1858 11.8994C15.4379 11.8843 15.6851 11.974 15.8688 12.1473C16.0525 12.3207 16.1565 12.5622 16.156 12.8148V12.8148C15.9271 16.2252 13.4769 19.0762 10.1397 19.8152C6.8025 20.5542 3.37767 19.0042 1.73037 16.0093C1.23862 15.1473 0.927207 14.1944 0.815041 13.2084C0.767089 12.9058 0.748696 12.5992 0.760121 12.293C0.769835 8.65104 3.32763 5.51297 6.89284 4.76901" stroke="#200E32" stroke-width="1.5" stroke-linecap="round" stroke-linejoin="round"/>
</svg>
