<svg width="375" height="395" viewBox="0 0 375 395" fill="none" xmlns="http://www.w3.org/2000/svg">
<path d="M0 189.397C0 90.6091 89.2232 15.7875 186.5 33C284.885 15.7761 375 91.4855 375 191.367V395H0V189.397Z" fill="white"/>
<path d="M40.2744 84.218C18.7047 92.9067 6 103.569 6 115.091C6 144.312 87.708 168 188.5 168C289.292 168 371 144.312 371 115.091C371 103.024 357.067 91.9013 333.61 83" stroke="#ECC19A"/>
<path d="M-1.95976 89.8916C-29.6754 103.385 -46 119.942 -46 137.836C-46 183.214 58.9892 220 188.5 220C318.011 220 423 183.214 423 137.836C423 119.097 405.097 101.823 374.956 88" stroke="#ECC19A"/>
<circle cx="34" cy="198" r="9" fill="#F9C001"/>
<circle cx="312" cy="207" r="9" fill="#9DD1D4"/>
</svg>
