<svg width="161" height="159" viewBox="0 0 161 159" fill="none" xmlns="http://www.w3.org/2000/svg">
<path d="M80.0534 158.229C124.266 158.229 160.107 136.962 160.107 110.729C160.107 84.4957 124.266 63.2295 80.0534 63.2295C35.8411 63.2295 0 84.4957 0 110.729C0 136.962 35.8411 158.229 80.0534 158.229Z" fill="#F5F5F5" fill-opacity="0.31"/>
<path d="M107.805 146.427C117.399 146.427 125.176 141.935 125.176 136.394C125.176 130.854 117.399 126.362 107.805 126.362C98.2118 126.362 90.4346 130.854 90.4346 136.394C90.4346 141.935 98.2118 146.427 107.805 146.427Z" fill="#E0E0E0"/>
<path d="M26.4824 137.11L27.47 137.679C27.715 137.82 27.993 137.895 28.276 137.895C28.559 137.895 28.837 137.82 29.0821 137.679L115.235 88.0924C115.34 88.0308 115.427 87.9429 115.488 87.8373C115.548 87.7317 115.58 87.6122 115.58 87.4905C115.58 87.3688 115.548 87.2492 115.488 87.1437C115.427 87.0381 115.34 86.9501 115.235 86.8885L114.251 86.3197C114.006 86.1783 113.728 86.1038 113.445 86.1038C113.162 86.1038 112.884 86.1783 112.639 86.3197L26.4824 135.906C26.3775 135.968 26.2904 136.056 26.23 136.161C26.1695 136.267 26.1377 136.386 26.1377 136.508C26.1377 136.63 26.1695 136.749 26.23 136.855C26.2904 136.96 26.3775 137.048 26.4824 137.11Z" fill="#E0E0E0"/>
<path d="M56.6461 13.179L55.1177 14.0584V12.8475C55.1177 12.1496 54.5419 11.8983 53.837 12.3066L53.7847 12.338C53.4604 12.5321 53.1818 12.794 52.9681 13.1057C52.9297 11.9193 51.9213 11.518 50.7104 12.2194L50.6162 12.2752C49.3739 12.994 48.355 14.5992 48.355 15.8415V17.9597L46.9591 18.7762C46.6539 18.9554 46.3951 19.2038 46.2035 19.5014C46.012 19.799 45.8931 20.1375 45.8564 20.4896C45.8564 21.0863 46.345 21.2922 46.9417 20.9467L48.8191 19.8649L52.497 17.7433L56.6461 15.36C56.9471 15.1761 57.201 14.9246 57.3876 14.6253C57.5742 14.326 57.6883 13.9873 57.7209 13.6361C57.7209 13.0394 57.2428 12.8335 56.6461 13.179Z" fill="#E6E6E6"/>
<path d="M38.6295 13.8595L36.3054 15.1994V13.357C36.3054 12.2822 35.4296 11.9123 34.3583 12.5299L34.2745 12.5788C33.7825 12.8764 33.3592 13.2748 33.0323 13.7478C32.9729 11.9402 31.4515 11.333 29.5986 12.4008L29.4555 12.4846C27.5607 13.5768 26.0113 16.0195 26.0113 17.9143V21.1421L23.8722 22.3809C22.965 22.9043 22.2217 24.0768 22.2217 24.9876C22.2217 25.8983 22.965 26.2124 23.8722 25.6855L26.7302 24.0384L32.3134 20.8071L38.6155 17.1675C39.5263 16.6441 40.2695 15.4716 40.2695 14.5609C40.2695 13.6501 39.5402 13.3325 38.6295 13.8595Z" fill="#E6E6E6"/>
<path d="M17.6712 42.9694L15.0855 41.4829H15.0611L15.7031 39.6997L15.8776 39.3508L16.9559 37.257L15.2111 36.266L15.096 36.1962H15.0646C14.5865 35.9729 13.9549 36.0322 13.257 36.43C12.6022 36.8336 12.0436 37.3755 11.6204 38.0178C10.9823 38.9096 10.6185 39.9684 10.5735 41.0641C10.5735 41.8877 10.8597 42.4599 11.3168 42.76L12.0496 43.1788C10.5561 44.62 9.4848 46.8637 9.48829 48.762V49.8822L11.2994 50.929L12.7161 47.3732L12.6498 47.0871L14.7994 45.8518L16.1952 45.0352V43.9186C16.1952 43.8069 16.1952 43.6987 16.1952 43.5905C16.3627 43.5905 16.5232 43.5626 16.5441 43.5556C16.5651 43.5487 17.6712 42.9694 17.6712 42.9694Z" fill="#FDC949"/>
<path d="M9.52735 48.755V49.8751L11.3384 50.922L12.7552 47.3662L12.6889 47.08L14.8 45.8517C14.4685 44.8747 14.151 43.9604 14.151 43.9604L12.3574 42.9275C10.7243 44.3233 9.52386 46.7346 9.52735 48.755Z" fill="#FDC949"/>
<path opacity="0.4" d="M17.6712 42.9694L15.0855 41.4829H15.0611L15.7031 39.6997L15.8776 39.3508L16.9559 37.257L15.2111 36.266L15.096 36.1962H15.0646C14.5865 35.9729 13.9549 36.0322 13.257 36.43C12.6022 36.8336 12.0436 37.3755 11.6204 38.0178C10.9823 38.9096 10.6185 39.9684 10.5735 41.0641C10.5735 41.8877 10.8597 42.4599 11.3168 42.76L12.0496 43.1788C10.5561 44.62 9.4848 46.8637 9.48829 48.762V49.8822L11.2994 50.929L12.7161 47.3732L12.6498 47.0871L14.7994 45.8518L16.1952 45.0352V43.9186C16.1952 43.8069 16.1952 43.6987 16.1952 43.5905C16.3627 43.5905 16.5232 43.5626 16.5441 43.5556C16.5651 43.5487 17.6712 42.9694 17.6712 42.9694Z" fill="black"/>
<path d="M15.0825 37.4488C14.3025 37.9555 13.6535 38.6394 13.1883 39.4448C12.7232 40.2502 12.4551 41.1542 12.406 42.0829C12.406 43.4089 13.1423 44.1173 14.1508 43.9638C12.5212 45.384 11.3173 47.7778 11.3242 49.8018V50.9184L18.8686 46.5635V45.4468C18.8686 43.4229 17.6508 42.4214 16.0212 42.8855C17.0401 41.8596 17.7659 40.3102 17.7659 38.9842C17.7694 37.2813 16.5655 36.5939 15.0825 37.4488Z" fill="#FDC949"/>
<path d="M126.321 31.213L124.618 30.229L125.04 29.053L125.155 28.8262L125.853 27.4304L124.719 26.7813L124.642 26.736H124.625C124.429 26.6621 124.217 26.6375 124.009 26.6643C123.801 26.6911 123.603 26.7684 123.432 26.8895C123 27.155 122.631 27.5124 122.353 27.9364C121.929 28.5223 121.686 29.22 121.655 29.9428C121.635 30.1557 121.669 30.3702 121.755 30.5661C121.84 30.7621 121.974 30.9331 122.144 31.063L122.625 31.3387C121.616 32.3098 121.012 33.6281 120.937 35.0271V35.7634L122.13 36.4613L123.065 34.1163L123.02 33.9279L124.416 33.1183L125.347 32.5809V31.8446C125.347 31.7714 125.347 31.6981 125.347 31.6283L125.581 31.6074C125.637 31.5934 126.321 31.213 126.321 31.213Z" fill="#FDC949"/>
<path d="M120.951 35.0272V35.7635L122.145 36.4614L123.08 34.1165L123.034 33.928L124.43 33.1185C124.21 32.4764 124.001 31.8727 124.001 31.8727L122.808 31.1748C121.74 32.11 120.948 33.6942 120.951 35.0272Z" fill="#FDC949"/>
<path opacity="0.4" d="M126.321 31.213L124.618 30.229L125.04 29.053L125.155 28.8262L125.853 27.4304L124.719 26.7813L124.642 26.736H124.625C124.429 26.6621 124.217 26.6375 124.009 26.6643C123.801 26.6911 123.603 26.7684 123.432 26.8895C123 27.155 122.631 27.5124 122.353 27.9364C121.929 28.5223 121.686 29.22 121.655 29.9428C121.635 30.1557 121.669 30.3702 121.755 30.5661C121.84 30.7621 121.974 30.9331 122.144 31.063L122.625 31.3387C121.616 32.3098 121.012 33.6281 120.937 35.0271V35.7634L122.13 36.4613L123.065 34.1163L123.02 33.9279L124.416 33.1183L125.347 32.5809V31.8446C125.347 31.7714 125.347 31.6981 125.347 31.6283L125.581 31.6074C125.637 31.5934 126.321 31.213 126.321 31.213Z" fill="black"/>
<path d="M124.615 27.5735C124.1 27.9073 123.672 28.3584 123.365 28.8897C123.058 29.4211 122.881 30.0176 122.849 30.6303C122.849 31.5062 123.334 31.9738 124.008 31.8726C122.933 32.8078 122.141 34.3886 122.145 35.7111V36.4474L127.117 33.5755V32.8392C127.117 31.5027 126.315 30.8432 125.236 31.1503C125.924 30.4649 126.334 29.5484 126.384 28.5785C126.384 27.4618 125.592 27.0082 124.615 27.5735Z" fill="#FDC949"/>
<path d="M137.111 97.2383L137.994 97.6361L138.326 97.7861L139.069 98.1351C139.069 98.1351 139.212 93.2149 140.754 89.5997C142.297 85.9846 145.043 82.6206 145.514 80.5897C145.985 78.5588 144.436 77.7981 144.436 77.7981C141.163 76.5523 137.987 81.3121 137.108 85.2762C136.228 89.2403 137.111 97.2383 137.111 97.2383Z" fill="#FDC949"/>
<path opacity="0.4" d="M137.111 97.2383L137.994 97.6361L138.326 97.7861L139.069 98.1351C139.069 98.1351 139.212 93.2149 140.754 89.5997C142.297 85.9846 145.043 82.6206 145.514 80.5897C145.985 78.5588 144.436 77.7981 144.436 77.7981C141.163 76.5523 137.987 81.3121 137.108 85.2762C136.228 89.2403 137.111 97.2383 137.111 97.2383Z" fill="black"/>
<path d="M137.981 97.6361L138.312 97.7861C137.614 83.985 143.731 79.0927 143.794 79.0438C143.811 79.0312 143.826 79.0151 143.837 78.9966C143.848 78.9782 143.854 78.9577 143.857 78.9364C143.86 78.9152 143.858 78.8937 143.852 78.8731C143.846 78.8526 143.836 78.8335 143.822 78.817C143.809 78.7998 143.793 78.7853 143.775 78.7745C143.756 78.7636 143.736 78.7567 143.715 78.7541C143.693 78.7515 143.672 78.7532 143.651 78.7593C143.631 78.7653 143.612 78.7754 143.595 78.7891C143.564 78.838 137.349 83.7756 137.981 97.6361Z" fill="white"/>
<path d="M136.208 95.0225C136.155 96.2892 137.52 98.5643 137.52 98.5643L139.861 100.222L140.168 100.442L143.595 102.867C144.141 102.83 144.669 102.649 145.123 102.343C145.577 102.036 145.942 101.615 146.181 101.122C147.091 99.3774 145.776 97.4791 146.156 96.2647C146.537 95.0504 148.861 94.698 148.763 93.2777C148.665 91.8575 146.355 90.3116 146.704 89.0484C147.053 87.7852 147.845 87.2862 148.1 86.2568C148.162 86.0734 148.183 85.8788 148.162 85.6865C148.141 85.4941 148.079 85.3086 147.979 85.1427C147.88 84.9768 147.745 84.8345 147.585 84.7256C147.425 84.6167 147.244 84.5438 147.053 84.512C146.268 84.3759 145.259 84.5539 144.261 85.517C143.263 86.4801 142.866 87.1466 141.724 87.4258C140.583 87.7049 139.397 87.527 138.79 88.4726C138.183 89.4183 138.891 91.3585 138.259 92.1157C137.628 92.8729 136.256 93.7523 136.208 95.0225Z" fill="#FDC949"/>
<path d="M139.861 100.222L140.168 100.442C140.351 98.0416 140.85 95.6762 141.651 93.4067C143.609 92.817 146.254 93.0577 146.279 93.0577C146.301 93.0625 146.324 93.0624 146.347 93.0575C146.369 93.0526 146.391 93.043 146.409 93.0293C146.428 93.0157 146.443 92.9983 146.455 92.9782C146.466 92.9582 146.473 92.936 146.475 92.913C146.478 92.8901 146.475 92.8669 146.468 92.845C146.46 92.8232 146.448 92.8031 146.433 92.7862C146.417 92.7692 146.398 92.7557 146.377 92.7466C146.356 92.7375 146.333 92.7329 146.31 92.7332C146.202 92.7332 143.766 92.5099 141.774 93.0298C143.602 88.1235 146.233 85.7018 146.275 85.6564C146.305 85.6264 146.322 85.5856 146.322 85.543C146.322 85.5005 146.305 85.4597 146.275 85.4296C146.244 85.3991 146.202 85.3821 146.158 85.3821C146.115 85.3821 146.073 85.3991 146.041 85.4296C146.003 85.4645 143.225 88.0293 141.362 93.1834C141.342 93.2132 141.331 93.2485 141.33 93.2846C140.547 95.5248 140.053 97.8561 139.861 100.222Z" fill="white"/>
<path d="M16.2235 104.796L15.3406 105.194L15.0091 105.344L14.2624 105.676C14.2624 105.676 14.1193 100.756 12.5769 97.1369C11.0346 93.5183 8.28829 90.1579 7.8207 88.127C7.3531 86.0961 8.89547 85.3353 8.89547 85.3353C12.1687 84.0896 15.3441 88.8458 16.2235 92.8099C17.1029 96.774 16.2235 104.796 16.2235 104.796Z" fill="#FDC949"/>
<path opacity="0.4" d="M16.2235 104.796L15.3406 105.194L15.0091 105.344L14.2624 105.676C14.2624 105.676 14.1193 100.756 12.5769 97.1369C11.0346 93.5183 8.28829 90.1579 7.8207 88.127C7.3531 86.0961 8.89547 85.3353 8.89547 85.3353C12.1687 84.0896 15.3441 88.8458 16.2235 92.8099C17.1029 96.774 16.2235 104.796 16.2235 104.796Z" fill="black"/>
<path d="M15.3407 105.194L15.0092 105.344C15.7071 91.5399 9.58993 86.6511 9.52363 86.6022C9.49465 86.5742 9.477 86.5365 9.47407 86.4963C9.47113 86.4561 9.48311 86.4162 9.50771 86.3842C9.53231 86.3523 9.56781 86.3305 9.60744 86.3231C9.64706 86.3157 9.68804 86.3231 9.72253 86.344C9.78883 86.3928 15.9828 91.3305 15.3407 105.194Z" fill="white"/>
<path d="M16.9494 102.539C17.0017 103.809 15.6338 106.084 15.6338 106.084L13.2958 107.738L12.9853 107.958L9.56552 110.383C9.01893 110.346 8.49183 110.166 8.03771 109.859C7.58358 109.553 7.2186 109.132 6.97978 108.639C6.06901 106.894 7.38456 104.996 7.00421 103.778C6.62385 102.56 4.29982 102.211 4.39752 100.794C4.49523 99.3774 6.80181 97.8315 6.44937 96.5648C6.09693 95.2981 5.30829 94.82 5.05356 93.7732C4.9942 93.5909 4.97486 93.3979 4.99687 93.2074C5.01888 93.017 5.08171 92.8335 5.18108 92.6696C5.28045 92.5056 5.41402 92.365 5.57268 92.2574C5.73133 92.1497 5.91134 92.0776 6.10042 92.0459C6.88556 91.9063 7.89404 92.0842 8.89204 93.0508C9.89005 94.0174 10.2879 94.677 11.4289 94.9561C12.57 95.2353 13.7564 95.0573 14.3636 96.003C14.9708 96.9486 14.2624 98.8923 14.894 99.6495C15.5256 100.407 16.8935 101.272 16.9494 102.539Z" fill="#FDC949"/>
<path d="M13.2961 107.738L12.9855 107.958C12.803 105.558 12.3056 103.193 11.506 100.923C9.54832 100.337 6.90326 100.574 6.87883 100.574C6.85773 100.577 6.83636 100.575 6.81596 100.569C6.79555 100.563 6.77652 100.553 6.75997 100.54C6.74342 100.527 6.72967 100.51 6.71952 100.491C6.70938 100.473 6.70304 100.452 6.70087 100.431C6.69697 100.388 6.71017 100.345 6.7376 100.312C6.76504 100.279 6.8045 100.258 6.84743 100.253C8.36572 100.125 9.89466 100.224 11.3838 100.546C9.5553 95.6435 6.92071 93.2183 6.88232 93.1764C6.85228 93.1463 6.8354 93.1055 6.8354 93.063C6.8354 93.0205 6.85228 92.9797 6.88232 92.9496C6.89758 92.9341 6.91578 92.9218 6.93585 92.9134C6.95592 92.905 6.97746 92.9006 6.99922 92.9006C7.02098 92.9006 7.04252 92.905 7.06259 92.9134C7.08266 92.9218 7.10086 92.9341 7.11612 92.9496C7.15451 92.9845 9.93217 95.5493 11.7956 100.703C11.8163 100.733 11.8273 100.768 11.827 100.805C12.6108 103.044 13.1045 105.374 13.2961 107.738Z" fill="white"/>
<path d="M116.278 1.86254L113.518 0.26782C113.322 0.11276 113.084 0.0204603 112.835 0.00302462C112.586 -0.0144111 112.337 0.0438304 112.122 0.170113L26.8414 49.2608C26.2829 49.5816 25.819 50.0442 25.4967 50.6018C25.1744 51.1594 25.0051 51.7923 25.0059 52.4363V128.037C25.0047 128.275 25.0723 128.509 25.2003 128.71C25.3284 128.911 25.5117 129.071 25.7282 129.171L28.4431 130.738L29.0747 127.859L112.157 80.035C112.714 79.7131 113.178 79.2503 113.5 78.693C113.822 78.1356 113.992 77.5033 113.992 76.8596V2.84658L116.278 1.86254Z" fill="#FDC949"/>
<path opacity="0.7" d="M116.278 1.86254L113.518 0.26782C113.322 0.11276 113.084 0.0204603 112.835 0.00302462C112.586 -0.0144111 112.337 0.0438304 112.122 0.170113L26.8414 49.2608C26.2829 49.5816 25.819 50.0442 25.4967 50.6018C25.1744 51.1594 25.0051 51.7923 25.0059 52.4363V128.037C25.0047 128.275 25.0723 128.509 25.2003 128.71C25.3284 128.911 25.5117 129.071 25.7282 129.171L28.4431 130.738L29.0747 127.859L112.157 80.035C112.714 79.7131 113.178 79.2503 113.5 78.693C113.822 78.1356 113.992 77.5033 113.992 76.8596V2.84658L116.278 1.86254Z" fill="white"/>
<path d="M29.5009 52.8238V127.611L29.0752 127.859L28.4436 130.738L25.7288 129.171C25.5126 129.072 25.3295 128.912 25.2009 128.712C25.0723 128.512 25.0036 128.279 25.0029 128.041V52.433C25.0032 51.7632 25.1879 51.1064 25.5368 50.5347L29.5009 52.8238Z" fill="#FDC949"/>
<path d="M116.753 2.83618V78.4404C116.753 79.0847 116.583 79.7176 116.26 80.2752C115.937 80.8328 115.473 81.2952 114.914 81.6159L38.0465 125.86L29.6297 130.703C29.4403 130.814 29.225 130.872 29.0056 130.873C28.7862 130.874 28.5705 130.816 28.3803 130.707C28.1901 130.598 28.0323 130.44 27.9226 130.25C27.813 130.06 27.7554 129.844 27.7559 129.625V54.0206C27.7551 53.3766 27.9244 52.7438 28.2467 52.1862C28.569 51.6286 29.0329 51.166 29.5914 50.8452L38.0465 45.9808L114.876 1.75094C115.066 1.64028 115.282 1.58184 115.502 1.58154C115.722 1.58125 115.938 1.6391 116.129 1.74925C116.319 1.85939 116.477 2.01792 116.587 2.20879C116.697 2.39966 116.754 2.6161 116.753 2.83618Z" fill="#FAFAFA"/>
<path d="M115.5 1.84863C115.762 1.84863 116.014 1.95256 116.2 2.13766C116.385 2.32276 116.49 2.57393 116.491 2.83617V78.4404C116.49 79.0383 116.332 79.6253 116.032 80.1428C115.733 80.6603 115.303 81.0901 114.785 81.389L37.9139 125.629L29.4971 130.48C29.3473 130.567 29.1769 130.613 29.0035 130.614C28.83 130.614 28.6595 130.568 28.5093 130.482C28.3591 130.395 28.2345 130.27 28.1481 130.119C28.0618 129.969 28.0167 129.798 28.0176 129.625V54.0206C28.0181 53.4226 28.176 52.8352 28.4756 52.3176C28.7751 51.8 29.2057 51.3704 29.724 51.072L38.1791 46.2076L115.008 1.98472C115.157 1.89576 115.327 1.84874 115.5 1.84863ZM115.5 1.58691C115.28 1.58684 115.065 1.6459 114.876 1.7579L38.0465 45.9807L29.5914 50.8451C29.0329 51.1659 28.569 51.6285 28.2467 52.1861C27.9244 52.7437 27.7551 53.3766 27.7559 54.0206V129.625C27.7559 129.956 27.8875 130.274 28.1218 130.508C28.356 130.742 28.6738 130.874 29.0051 130.874C29.2249 130.874 29.4406 130.815 29.6297 130.703L38.0465 125.86L114.914 81.6158C115.473 81.2952 115.937 80.8327 116.26 80.2752C116.583 79.7176 116.753 79.0847 116.753 78.4404V2.83617C116.752 2.50452 116.62 2.18678 116.385 1.9526C116.15 1.71842 115.832 1.58691 115.5 1.58691Z" fill="#37474F"/>
<path d="M38.0465 45.9807V125.86L29.6297 130.703C29.4403 130.814 29.225 130.872 29.0056 130.873C28.7862 130.874 28.5705 130.816 28.3803 130.707C28.1901 130.598 28.0323 130.44 27.9226 130.25C27.813 130.06 27.7554 129.844 27.7559 129.625V54.0206C27.7551 53.3765 27.9244 52.7437 28.2467 52.1861C28.569 51.6285 29.0329 51.1659 29.5914 50.8451L38.0465 45.9807Z" fill="#37474F"/>
<path d="M33.0153 56.4179L29.9131 56.4877C29.8258 56.4877 29.8258 56.3656 29.9131 56.2644L33.0153 52.7539C33.0459 52.714 33.091 52.6876 33.1409 52.6806L36.2431 52.6108C36.3338 52.6108 36.3338 52.733 36.2431 52.8342L33.1409 56.3446C33.1103 56.3846 33.0651 56.4109 33.0153 56.4179Z" fill="#FDC949"/>
<path d="M36.2431 54.9173L33.1444 58.4068C33.1296 58.4278 33.1103 58.4452 33.088 58.4579C33.0657 58.4705 33.0409 58.4781 33.0153 58.4801L29.9131 58.5569C29.8258 58.5569 29.8258 58.4313 29.9131 58.3301L30.9599 57.1506C30.9875 57.1204 31.0208 57.0962 31.058 57.0794C31.0952 57.0626 31.1355 57.0536 31.1763 57.0529L33.0223 57.0145C33.0721 57.0047 33.1174 56.979 33.1514 56.9412L35.0427 54.7952C35.07 54.7645 35.1033 54.7398 35.1405 54.7224C35.1777 54.705 35.218 54.6953 35.259 54.694L36.2501 54.6765C36.3373 54.6905 36.3373 54.8126 36.2431 54.9173Z" fill="#FDC949"/>
<path d="M36.2431 57.0215L33.1444 60.5111C33.1308 60.5332 33.1119 60.5515 33.0893 60.5644C33.0667 60.5772 33.0412 60.5841 33.0153 60.5844L29.9131 60.6611C29.8258 60.6611 29.8258 60.539 29.9131 60.4343L30.9599 59.2583C30.9873 59.2277 31.0206 59.203 31.0578 59.1856C31.0949 59.1682 31.1353 59.1585 31.1763 59.1571L33.0223 59.1222C33.0718 59.1096 33.1166 59.083 33.1514 59.0455L35.0427 56.8994C35.0697 56.8686 35.1029 56.8439 35.1403 56.8271C35.1776 56.8102 35.2181 56.8016 35.259 56.8017L36.2501 56.7808C36.3373 56.7912 36.3373 56.9134 36.2431 57.0215Z" fill="#FDC949"/>
<path d="M59.832 111.633C59.7975 111.632 59.7646 111.618 59.7405 111.593C59.7164 111.568 59.7029 111.535 59.7029 111.5V34.8772C59.6998 34.8582 59.7009 34.8388 59.706 34.8203C59.7112 34.8017 59.7203 34.7846 59.7327 34.7699C59.7452 34.7552 59.7606 34.7435 59.7781 34.7354C59.7955 34.7273 59.8145 34.7231 59.8338 34.7231C59.853 34.7231 59.872 34.7273 59.8895 34.7354C59.9069 34.7435 59.9224 34.7552 59.9348 34.7699C59.9473 34.7846 59.9564 34.8017 59.9615 34.8203C59.9667 34.8388 59.9677 34.8582 59.9646 34.8772V111.5C59.9646 111.535 59.9507 111.569 59.9258 111.594C59.9009 111.619 59.8672 111.633 59.832 111.633Z" fill="#37474F"/>
<path d="M57.7936 107.327V107.522C57.7936 107.577 57.7791 107.631 57.7515 107.679C57.724 107.727 57.6843 107.767 57.6365 107.794L50.3539 111.982C50.3374 111.991 50.3189 111.995 50.3001 111.995C50.2814 111.995 50.263 111.99 50.2468 111.98C50.2306 111.971 50.2171 111.957 50.2078 111.941C50.1984 111.925 50.1934 111.906 50.1934 111.887V111.696C50.194 111.641 50.2088 111.587 50.2363 111.539C50.2638 111.491 50.3031 111.452 50.3504 111.423L57.633 107.236C57.6492 107.227 57.6674 107.222 57.6859 107.222C57.7044 107.222 57.7226 107.227 57.7387 107.236C57.7548 107.246 57.7683 107.259 57.7779 107.274C57.7875 107.29 57.7929 107.308 57.7936 107.327Z" fill="#37474F"/>
<path d="M57.7936 108.751V108.942C57.7936 108.998 57.7791 109.052 57.7515 109.1C57.724 109.147 57.6843 109.187 57.6365 109.215L50.3539 113.402C50.3377 113.411 50.3195 113.416 50.301 113.416C50.2825 113.416 50.2643 113.411 50.2482 113.402C50.2321 113.393 50.2186 113.379 50.209 113.364C50.1994 113.348 50.194 113.33 50.1934 113.311V113.116C50.194 113.061 50.2088 113.007 50.2363 112.959C50.2638 112.912 50.3031 112.872 50.3504 112.844L57.633 108.656C57.6495 108.647 57.668 108.643 57.6868 108.643C57.7056 108.643 57.724 108.648 57.7401 108.658C57.7563 108.667 57.7698 108.681 57.7792 108.697C57.7885 108.713 57.7935 108.732 57.7936 108.751Z" fill="#E0E0E0"/>
<path d="M54.154 112.271V112.467C54.154 112.522 54.1395 112.576 54.112 112.624C54.0844 112.672 54.0447 112.711 53.997 112.739L50.3539 114.833C50.3377 114.842 50.3195 114.846 50.301 114.846C50.2825 114.846 50.2643 114.841 50.2482 114.832C50.2321 114.823 50.2186 114.81 50.209 114.794C50.1994 114.779 50.194 114.76 50.1934 114.742V114.547C50.194 114.492 50.2088 114.438 50.2363 114.39C50.2638 114.342 50.3031 114.303 50.3504 114.274L53.9935 112.181C54.0095 112.171 54.0279 112.165 54.0468 112.165C54.0657 112.164 54.0844 112.169 54.1008 112.178C54.1173 112.187 54.1309 112.201 54.1403 112.217C54.1496 112.234 54.1544 112.253 54.154 112.271Z" fill="#E0E0E0"/>
<path d="M47.6307 117.679C49.6797 114.947 50.0884 111.793 48.5435 110.635C46.9987 109.476 44.0853 110.752 42.0362 113.484C39.9872 116.216 39.5785 119.37 41.1234 120.528C42.6682 121.687 45.5816 120.411 47.6307 117.679Z" fill="#FDC949"/>
<path opacity="0.7" d="M47.6307 117.679C49.6797 114.947 50.0884 111.793 48.5435 110.635C46.9987 109.476 44.0853 110.752 42.0362 113.484C39.9872 116.216 39.5785 119.37 41.1234 120.528C42.6682 121.687 45.5816 120.411 47.6307 117.679Z" fill="white"/>
<path d="M42.461 121.264C42.0218 121.272 41.5884 121.164 41.2047 120.95C40.4335 120.503 40.0078 119.617 40.0078 118.448C40.0078 115.845 42.1225 112.516 44.7222 111.001C46.118 110.199 47.444 110.042 48.3687 110.579C49.1434 111.026 49.5691 111.912 49.5691 113.081C49.5691 115.684 47.4545 119.013 44.8548 120.528C44.1338 120.976 43.3091 121.229 42.461 121.264ZM47.1125 110.523C46.312 110.555 45.5339 110.796 44.8548 111.221C42.3249 112.687 40.273 115.928 40.273 118.448C40.273 119.519 40.6499 120.325 41.3408 120.723C42.1818 121.212 43.4171 121.072 44.7257 120.301C47.2556 118.842 49.3109 115.6 49.3109 113.081C49.3109 112.01 48.9305 111.204 48.2431 110.806C47.898 110.613 47.5078 110.515 47.1125 110.523Z" fill="#37474F"/>
<path d="M48.868 117.028C48.8349 117.357 48.7256 117.673 48.5488 117.953C48.3719 118.232 48.1323 118.466 47.849 118.636C47.2872 118.961 46.8301 118.765 46.8301 118.204C46.8626 117.875 46.9716 117.558 47.1486 117.278C47.3255 116.999 47.5654 116.765 47.849 116.595C48.4108 116.27 48.868 116.462 48.868 117.028Z" fill="#FDC949"/>
<path d="M57.7936 94.0838V94.2792C57.7936 94.3343 57.7791 94.3885 57.7515 94.4363C57.724 94.4841 57.6843 94.5238 57.6365 94.5514L50.3539 98.7388C50.3374 98.7479 50.3189 98.7525 50.3001 98.7523C50.2814 98.7521 50.263 98.7469 50.2468 98.7374C50.2306 98.7279 50.2171 98.7144 50.2078 98.6981C50.1984 98.6818 50.1934 98.6634 50.1934 98.6446V98.4527C50.194 98.3976 50.2088 98.3437 50.2363 98.296C50.2638 98.2484 50.3031 98.2086 50.3504 98.1805L57.633 93.993C57.6492 93.9841 57.6674 93.9794 57.6859 93.9795C57.7044 93.9796 57.7226 93.9844 57.7387 93.9935C57.7548 94.0026 57.7683 94.0157 57.7779 94.0315C57.7875 94.0473 57.7929 94.0653 57.7936 94.0838Z" fill="#37474F"/>
<path d="M57.7936 95.5076V95.6996C57.7936 95.7547 57.7791 95.8089 57.7515 95.8567C57.724 95.9045 57.6843 95.9442 57.6365 95.9717L50.3539 100.159C50.3377 100.168 50.3195 100.173 50.301 100.173C50.2825 100.173 50.2643 100.168 50.2482 100.159C50.2321 100.15 50.2186 100.137 50.209 100.121C50.1994 100.105 50.194 100.087 50.1934 100.068V99.873C50.194 99.818 50.2088 99.7641 50.2363 99.7164C50.2638 99.6688 50.3031 99.629 50.3504 99.6009L57.633 95.4134C57.6495 95.4043 57.668 95.3997 57.6868 95.3999C57.7056 95.4002 57.724 95.4053 57.7401 95.4148C57.7563 95.4243 57.7698 95.4379 57.7792 95.4541C57.7885 95.4704 57.7935 95.4888 57.7936 95.5076Z" fill="#E0E0E0"/>
<path d="M54.154 99.0285V99.2239C54.154 99.2791 54.1395 99.3333 54.112 99.3811C54.0844 99.4288 54.0447 99.4685 53.997 99.4961L50.3539 101.59C50.3377 101.599 50.3195 101.603 50.301 101.603C50.2825 101.603 50.2643 101.598 50.2482 101.589C50.2321 101.58 50.2186 101.567 50.209 101.551C50.1994 101.536 50.194 101.518 50.1934 101.499V101.304C50.194 101.249 50.2088 101.195 50.2363 101.147C50.2638 101.099 50.3031 101.06 50.3504 101.032L53.9935 98.9378C54.0095 98.9277 54.0279 98.9221 54.0468 98.9217C54.0657 98.9212 54.0844 98.9259 54.1008 98.9352C54.1173 98.9445 54.1309 98.9581 54.1403 98.9745C54.1496 98.9909 54.1544 99.0096 54.154 99.0285Z" fill="#E0E0E0"/>
<path d="M47.6199 104.451C49.6689 101.719 50.0776 98.5647 48.5328 97.406C46.9879 96.2474 44.0745 97.5229 42.0255 100.255C39.9765 102.987 39.5678 106.141 41.1126 107.3C42.6575 108.458 45.5709 107.183 47.6199 104.451Z" fill="#FDC949"/>
<path opacity="0.7" d="M47.6199 104.451C49.6689 101.719 50.0776 98.5647 48.5328 97.406C46.9879 96.2474 44.0745 97.5229 42.0255 100.255C39.9765 102.987 39.5678 106.141 41.1126 107.3C42.6575 108.458 45.5709 107.183 47.6199 104.451Z" fill="white"/>
<path d="M42.461 108.021C42.0218 108.029 41.5884 107.921 41.2047 107.707C40.4335 107.261 40.0078 106.374 40.0078 105.205C40.0078 102.602 42.1225 99.273 44.7222 97.7585C46.118 96.9524 47.444 96.7989 48.3687 97.3363C49.1434 97.7795 49.5691 98.6693 49.5691 99.8348C49.5691 102.441 47.4545 105.784 44.8548 107.285C44.1338 107.733 43.3091 107.987 42.461 108.021ZM47.1125 97.2804C46.312 97.3128 45.5339 97.5533 44.8548 97.9784C42.3249 99.4579 40.273 102.682 40.273 105.205C40.273 106.276 40.6499 107.083 41.3408 107.48C42.1818 107.969 43.4171 107.829 44.7257 107.058C47.2556 105.599 49.3109 102.358 49.3109 99.8348C49.3109 98.767 48.9305 97.9574 48.2431 97.5631C47.898 97.3702 47.5078 97.2726 47.1125 97.2804Z" fill="#37474F"/>
<path d="M48.868 103.785C48.8352 104.113 48.726 104.43 48.5491 104.708C48.3721 104.987 48.1324 105.22 47.849 105.39C47.2872 105.718 46.8301 105.523 46.8301 104.961C46.8626 104.632 46.9716 104.315 47.1486 104.035C47.3255 103.756 47.5654 103.522 47.849 103.352C48.4108 103.028 48.868 103.219 48.868 103.785Z" fill="#FDC949"/>
<path d="M57.7936 80.8411V81.0365C57.7936 81.0917 57.7791 81.1459 57.7515 81.1936C57.724 81.2414 57.6843 81.2811 57.6365 81.3087L50.3539 85.4961C50.3374 85.5052 50.3189 85.5099 50.3001 85.5096C50.2814 85.5094 50.263 85.5043 50.2468 85.4947C50.2306 85.4852 50.2171 85.4717 50.2078 85.4554C50.1984 85.4391 50.1934 85.4207 50.1934 85.4019V85.21C50.1937 85.1549 50.2083 85.1008 50.2358 85.0531C50.2634 85.0054 50.3029 84.9656 50.3504 84.9378L57.633 80.7504C57.6492 80.7414 57.6674 80.7367 57.6859 80.7368C57.7044 80.7369 57.7226 80.7417 57.7387 80.7508C57.7548 80.7599 57.7683 80.773 57.7779 80.7888C57.7875 80.8046 57.7929 80.8226 57.7936 80.8411Z" fill="#37474F"/>
<path d="M57.7936 82.2615V82.4569C57.7936 82.5121 57.7791 82.5663 57.7515 82.6141C57.724 82.6618 57.6843 82.7015 57.6365 82.7291L50.3539 86.9165C50.3377 86.9255 50.3195 86.9302 50.301 86.9301C50.2825 86.93 50.2643 86.9252 50.2482 86.9161C50.2321 86.907 50.2186 86.8939 50.209 86.8781C50.1994 86.8623 50.194 86.8443 50.1934 86.8258V86.6304C50.194 86.5754 50.2088 86.5214 50.2363 86.4738C50.2638 86.4261 50.3031 86.3863 50.3504 86.3582L57.633 82.1708C57.6492 82.1618 57.6674 82.1571 57.6859 82.1572C57.7044 82.1573 57.7226 82.1621 57.7387 82.1712C57.7548 82.1803 57.7683 82.1934 57.7779 82.2092C57.7875 82.225 57.7929 82.243 57.7936 82.2615Z" fill="#E0E0E0"/>
<path d="M54.154 85.7858V85.9812C54.154 86.0364 54.1395 86.0906 54.112 86.1384C54.0844 86.1862 54.0447 86.2258 53.997 86.2534L50.3539 88.3471C50.3377 88.3561 50.3195 88.3608 50.301 88.3607C50.2825 88.3606 50.2643 88.3558 50.2482 88.3467C50.2321 88.3376 50.2186 88.3245 50.209 88.3087C50.1994 88.2929 50.194 88.2749 50.1934 88.2564V88.061C50.194 88.006 50.2088 87.952 50.2363 87.9044C50.2638 87.8567 50.3031 87.8169 50.3504 87.7888L53.9935 85.6951C54.0095 85.685 54.0279 85.6794 54.0468 85.679C54.0657 85.6785 54.0844 85.6832 54.1008 85.6925C54.1173 85.7018 54.1309 85.7154 54.1403 85.7318C54.1496 85.7483 54.1544 85.7669 54.154 85.7858Z" fill="#E0E0E0"/>
<path d="M47.6102 91.2254C49.6592 88.4934 50.0679 85.3393 48.523 84.1807C46.9782 83.0221 44.0648 84.2975 42.0157 87.0296C39.9667 89.7616 39.558 92.9156 41.1029 94.0742C42.6477 95.2329 45.5611 93.9574 47.6102 91.2254Z" fill="#FDC949"/>
<path opacity="0.7" d="M47.6102 91.2254C49.6592 88.4934 50.0679 85.3393 48.523 84.1807C46.9782 83.0221 44.0648 84.2975 42.0157 87.0296C39.9667 89.7616 39.558 92.9156 41.1029 94.0742C42.6477 95.2329 45.5611 93.9574 47.6102 91.2254Z" fill="white"/>
<path d="M42.461 94.7783C42.0218 94.7863 41.5884 94.678 41.2047 94.4642C40.4335 94.0176 40.0078 93.1312 40.0078 91.9623C40.0078 89.3556 42.1225 86.03 44.7222 84.5156C46.118 83.7095 47.444 83.556 48.3687 84.0934C49.1434 84.5365 49.5691 85.4264 49.5691 86.5919C49.5691 89.1985 47.4545 92.5415 44.8548 94.042C44.1338 94.4901 43.3091 94.7438 42.461 94.7783ZM47.1125 84.0375C46.312 84.0699 45.5339 84.3104 44.8548 84.7354C42.3249 86.1975 40.273 89.4393 40.273 91.9623C40.273 93.0335 40.6499 93.8396 41.3408 94.2374C42.1818 94.726 43.4171 94.5864 44.7257 93.8152C47.2556 92.3566 49.3109 89.1148 49.3109 86.5919C49.3109 85.5241 48.9305 84.7145 48.2431 84.3167C47.8971 84.1264 47.5073 84.0301 47.1125 84.0375Z" fill="#37474F"/>
<path d="M48.868 90.5421C48.8352 90.8706 48.726 91.1869 48.5491 91.4656C48.3721 91.7444 48.1324 91.9778 47.849 92.1472C47.2872 92.4753 46.8301 92.2799 46.8301 91.718C46.8626 91.389 46.9716 91.0721 47.1486 90.7927C47.3255 90.5134 47.5654 90.2794 47.849 90.1094C48.4108 89.7848 48.868 89.9768 48.868 90.5421Z" fill="#FDC949"/>
<path d="M57.7936 67.5984V67.7938C57.7936 67.849 57.7791 67.9032 57.7515 67.951C57.724 67.9988 57.6843 68.0384 57.6365 68.066L50.3539 72.2534C50.3374 72.2625 50.3189 72.2672 50.3001 72.267C50.2814 72.2667 50.263 72.2616 50.2468 72.2521C50.2306 72.2426 50.2171 72.229 50.2078 72.2127C50.1984 72.1965 50.1934 72.178 50.1934 72.1592V71.9673C50.1937 71.9122 50.2083 71.8582 50.2358 71.8104C50.2634 71.7627 50.3029 71.723 50.3504 71.6951L57.633 67.5077C57.6492 67.4987 57.6674 67.4941 57.6859 67.4941C57.7044 67.4942 57.7226 67.499 57.7387 67.5081C57.7548 67.5172 57.7683 67.5303 57.7779 67.5461C57.7875 67.5619 57.7929 67.5799 57.7936 67.5984Z" fill="#37474F"/>
<path d="M57.7936 69.0186V69.214C57.7936 69.2692 57.7791 69.3234 57.7515 69.3711C57.724 69.4189 57.6843 69.4586 57.6365 69.4862L50.3539 73.6736C50.3374 73.6827 50.3189 73.6874 50.3001 73.6871C50.2814 73.6869 50.263 73.6817 50.2468 73.6722C50.2306 73.6627 50.2171 73.6492 50.2078 73.6329C50.1984 73.6166 50.1934 73.5982 50.1934 73.5794V73.3875C50.194 73.3324 50.2088 73.2785 50.2363 73.2309C50.2638 73.1832 50.3031 73.1434 50.3504 73.1153L57.633 68.9278C57.6492 68.9189 57.6674 68.9142 57.6859 68.9143C57.7044 68.9144 57.7226 68.9192 57.7387 68.9283C57.7548 68.9374 57.7683 68.9505 57.7779 68.9663C57.7875 68.9821 57.7929 69.0001 57.7936 69.0186Z" fill="#E0E0E0"/>
<path d="M54.154 72.5429V72.7383C54.154 72.7935 54.1395 72.8477 54.112 72.8955C54.0844 72.9432 54.0447 72.9829 53.997 73.0105L50.3539 75.1042C50.3377 75.1132 50.3195 75.1179 50.301 75.1178C50.2825 75.1177 50.2643 75.1129 50.2482 75.1038C50.2321 75.0947 50.2186 75.0816 50.209 75.0658C50.1994 75.05 50.194 75.032 50.1934 75.0135V74.8181C50.194 74.7631 50.2088 74.7091 50.2363 74.6615C50.2638 74.6138 50.3031 74.574 50.3504 74.5459L53.9935 72.4522C54.0095 72.4421 54.0279 72.4365 54.0468 72.4361C54.0657 72.4356 54.0844 72.4403 54.1008 72.4496C54.1173 72.4589 54.1309 72.4725 54.1403 72.4889C54.1496 72.5053 54.1544 72.524 54.154 72.5429Z" fill="#E0E0E0"/>
<path d="M47.5994 77.9964C49.6484 75.2643 50.0571 72.1103 48.5123 70.9517C46.9674 69.7931 44.054 71.0685 42.005 73.8006C39.956 76.5326 39.5473 79.6866 41.0921 80.8452C42.637 82.0039 45.5504 80.7284 47.5994 77.9964Z" fill="#FDC949"/>
<path opacity="0.7" d="M47.5994 77.9964C49.6484 75.2643 50.0571 72.1103 48.5123 70.9517C46.9674 69.7931 44.054 71.0685 42.005 73.8006C39.956 76.5326 39.5473 79.6866 41.0921 80.8452C42.637 82.0039 45.5504 80.7284 47.5994 77.9964Z" fill="white"/>
<path d="M42.461 81.5354C42.0218 81.5435 41.5884 81.4351 41.2047 81.2214C40.4335 80.7747 40.0078 79.8884 40.0078 78.7194C40.0078 76.1127 42.1225 72.7872 44.7222 71.2727C46.118 70.4666 47.444 70.3131 48.3687 70.847C49.1434 71.2937 49.5691 72.1835 49.5691 73.349C49.5691 75.9557 47.4545 79.2812 44.8548 80.7991C44.1338 81.2472 43.3091 81.5009 42.461 81.5354ZM47.1125 70.7947C46.312 70.827 45.5339 71.0676 44.8548 71.4926C42.3249 72.9512 40.2695 76.1895 40.2695 78.7124C40.2695 79.7837 40.6464 80.5898 41.3373 80.9876C42.1783 81.4761 43.4136 81.3365 44.7222 80.5653C47.2521 79.1067 49.3074 75.8649 49.3074 73.342C49.3074 72.2742 48.9271 71.4646 48.2396 71.0668C47.894 70.8795 47.5055 70.7857 47.1125 70.7947Z" fill="#37474F"/>
<path d="M48.868 77.2994C48.8352 77.6279 48.726 77.9442 48.5491 78.223C48.3721 78.5017 48.1324 78.7351 47.849 78.9046C47.2872 79.2291 46.8301 79.0372 46.8301 78.4754C46.8626 78.1463 46.9716 77.8294 47.1486 77.5501C47.3255 77.2707 47.5654 77.0367 47.849 76.8667C48.4108 76.5422 48.868 76.7341 48.868 77.2994Z" fill="#FDC949"/>
<path d="M53.2091 56.2322C56.8131 51.4407 57.5374 45.9036 54.8267 43.8647C52.116 41.8258 46.9969 44.0571 43.3929 48.8485C39.7888 53.64 39.0646 59.177 41.7753 61.216C44.486 63.2549 49.605 61.0236 53.2091 56.2322Z" fill="#FDC949"/>
<path opacity="0.7" d="M53.2091 56.2322C56.8131 51.4407 57.5374 45.9036 54.8267 43.8647C52.116 41.8258 46.9969 44.0571 43.3929 48.8485C39.7888 53.64 39.0646 59.177 41.7753 61.216C44.486 63.2549 49.605 61.0236 53.2091 56.2322Z" fill="white"/>
<path d="M52.5495 57.0635C51.8969 55.9364 50.1905 54.7988 50.1905 54.7988L49.0181 55.0326L46.2997 55.5595L45.0226 55.9085C43.536 57.0845 44.6736 61.2859 44.8795 61.9314C46.0919 61.7598 47.2566 61.3431 48.3027 60.7066C49.916 59.7437 51.3524 58.5115 52.5495 57.0635Z" fill="#FDC949"/>
<path opacity="0.2" d="M52.5495 57.0635C51.8969 55.9364 50.1905 54.7988 50.1905 54.7988L49.0181 55.0326L46.2997 55.5595L45.0226 55.9085C43.536 57.0845 44.6736 61.2859 44.8795 61.9314C46.0919 61.7598 47.2566 61.3431 48.3027 60.7066C49.916 59.7437 51.3524 58.5115 52.5495 57.0635Z" fill="black"/>
<path d="M50.1902 56.3516C50.1902 56.6762 49.5098 57.2031 48.1663 56.8122C47.416 56.6251 46.7546 56.182 46.2959 55.5595V54.408L46.3203 52.5271L49.0177 53.1517V55.0326C49.4749 55.3117 50.2007 56.0271 50.1902 56.3516Z" fill="#FFA8A7"/>
<path d="M49.0177 53.5775V54.4813C48.43 54.3289 47.8621 54.1087 47.3253 53.8253C47.0023 53.6052 46.7723 53.2732 46.6797 52.8936L49.0177 53.5775Z" fill="#F28F8F"/>
<path d="M51.691 50.3777C51.7474 51.2286 51.6876 52.0833 51.5131 52.9181C51.2304 53.8463 50.8361 54.279 49.9044 54.1848C49.1588 54.1001 48.4228 53.9459 47.706 53.7241C47.3039 53.6124 46.9594 53.3516 46.7429 52.9948C46.6396 52.8088 46.4952 52.6489 46.3207 52.5272L45.7205 52.9425C45.3373 52.6871 45.0106 52.3557 44.7608 51.9689C44.4782 51.442 44.6701 49.5262 44.6701 49.5262L48.8994 48.0327C48.8994 48.0327 51.0629 47.5895 51.1048 47.5965C51.329 47.6984 51.5122 47.873 51.6247 48.092C51.7434 48.3782 52.0365 48.8807 51.9737 48.9888C51.9109 49.097 51.691 50.3777 51.691 50.3777Z" fill="#FFA8A7"/>
<path d="M49.3457 51.0198C49.3457 51.0667 49.3318 51.1126 49.3057 51.1516C49.2796 51.1906 49.2426 51.221 49.1992 51.239C49.1558 51.2569 49.1081 51.2616 49.0621 51.2525C49.0161 51.2433 48.9738 51.2207 48.9406 51.1876C48.9074 51.1544 48.8848 51.1121 48.8757 51.0661C48.8665 51.02 48.8712 50.9723 48.8892 50.929C48.9071 50.8856 48.9375 50.8485 48.9766 50.8225C49.0156 50.7964 49.0615 50.7825 49.1084 50.7825C49.1713 50.7825 49.2317 50.8075 49.2762 50.852C49.3207 50.8965 49.3457 50.9568 49.3457 51.0198Z" fill="#263238"/>
<path d="M51.2999 50.8418C51.3006 50.8896 51.287 50.9365 51.261 50.9765C51.235 51.0166 51.1976 51.048 51.1537 51.0667C51.1098 51.0855 51.0612 51.0908 51.0143 51.0819C50.9674 51.073 50.9241 51.0503 50.8901 51.0168C50.8561 50.9833 50.8328 50.9404 50.8232 50.8936C50.8137 50.8468 50.8182 50.7982 50.8363 50.754C50.8545 50.7098 50.8853 50.672 50.925 50.6454C50.9647 50.6187 51.0113 50.6045 51.0591 50.6045C51.0906 50.6041 51.1218 50.6098 51.151 50.6216C51.1802 50.6333 51.2068 50.6507 51.2292 50.6728C51.2516 50.6949 51.2694 50.7212 51.2815 50.7502C51.2936 50.7792 51.2999 50.8103 51.2999 50.8418Z" fill="#263238"/>
<path d="M50.8633 49.9065L51.4286 50.1508C51.4286 50.1508 51.5437 49.8716 51.2995 49.7669C51.2222 49.7337 51.1354 49.7295 51.0553 49.7551C50.9751 49.7808 50.9069 49.8345 50.8633 49.9065Z" fill="#263238"/>
<path d="M50.1064 50.7126L50.2914 52.2131L51.0591 51.8712L50.1064 50.7126Z" fill="#F28F8F"/>
<path d="M50.1621 52.7295C50.1605 52.8191 50.1329 52.9064 50.0828 52.9807C50.0326 53.055 49.962 53.1132 49.8795 53.1482C49.8587 53.1589 49.8363 53.1659 49.8132 53.1692C49.7409 53.1853 49.666 53.1861 49.5934 53.1716C49.5208 53.157 49.452 53.1274 49.3916 53.0847C49.3311 53.042 49.2802 52.987 49.2422 52.9235C49.2043 52.8599 49.18 52.7891 49.1711 52.7155C49.1604 52.6532 49.1604 52.5895 49.1711 52.5271L50.1621 52.7295Z" fill="#C87A7B"/>
<path d="M52.7762 55.42C52.0193 54.9035 51.0993 54.6825 50.1904 54.7989L51.9352 57.737C52.4583 57.1753 52.9466 56.5822 53.3973 55.9609C53.2089 55.7724 52.996 55.5875 52.7762 55.42Z" fill="#FFA8A7"/>
<path d="M49.813 53.1691C49.7407 53.1853 49.6658 53.1861 49.5932 53.1715C49.5206 53.157 49.4518 53.1274 49.3914 53.0846C49.3309 53.0419 49.28 52.987 49.242 52.9234C49.2041 52.8598 49.1798 52.789 49.1709 52.7155C49.2558 52.6921 49.3451 52.69 49.4309 52.7095C49.5168 52.729 49.5965 52.7694 49.6629 52.8271C49.7487 52.9219 49.8013 53.0419 49.813 53.1691Z" fill="#F28F8F"/>
<path d="M46.2717 50.8349L46.3415 51.8119C46.4362 51.8003 46.5274 51.7688 46.6091 51.7195C46.6908 51.6702 46.7611 51.6041 46.8155 51.5257C46.8699 51.4473 46.907 51.3582 46.9246 51.2644C46.9421 51.1706 46.9396 51.0742 46.9173 50.9814C46.9173 50.9814 50.2358 50.6813 51.007 47.9839C51.007 47.9839 51.7049 48.7132 51.7049 50.3777C51.9822 50.2077 52.1868 49.9412 52.2796 49.6295C52.3723 49.3178 52.3466 48.9827 52.2074 48.6888C52.3554 48.6301 52.4769 48.5193 52.5489 48.3772C52.6209 48.2352 52.6384 48.0717 52.5982 47.9176C52.5776 47.7727 52.5145 47.6371 52.4171 47.5278C52.3196 47.4185 52.192 47.3405 52.0504 47.3035C52.0504 47.3035 52.8006 46.0821 51.8515 45.4784C50.9023 44.8747 49.5554 46.0054 49.5554 46.0054C49.5554 46.0054 47.3849 45.3075 46.2787 46.3159C45.1725 47.3244 45.1272 48.0851 45.1272 48.0851C44.7454 48.2178 44.4215 48.4789 44.2108 48.8239C44.0001 49.1688 43.9158 49.5762 43.9721 49.9764C44.0628 51.5083 45.0923 52.5727 45.4936 53.1519C45.8949 53.7312 46.3136 54.4047 46.3136 54.4047L46.3345 52.5273C46.3345 52.5273 45.86 52.8762 45.2877 52.3319C44.7154 51.7875 44.677 50.9361 45.1551 50.5592C45.2898 50.446 45.4588 50.3813 45.6347 50.3756C45.8106 50.3699 45.9833 50.4235 46.1252 50.5278C46.1702 50.5654 46.2067 50.6123 46.232 50.6653C46.2572 50.7183 46.2708 50.7762 46.2717 50.8349Z" fill="#263238"/>
<path d="M54.9916 59.4433V60.1237C54.9918 60.2152 54.9676 60.3051 54.9216 60.3842C54.8757 60.4633 54.8095 60.5288 54.7299 60.5739L42.6212 67.553C42.5942 67.569 42.5634 67.5776 42.5319 67.5778C42.5005 67.5781 42.4695 67.57 42.4422 67.5544C42.4149 67.5388 42.3922 67.5162 42.3765 67.489C42.3607 67.4618 42.3525 67.4309 42.3525 67.3994V66.7015C42.3531 66.6102 42.3775 66.5205 42.4234 66.4416C42.4694 66.3626 42.5351 66.297 42.6143 66.2514L54.7264 59.2723C54.7547 59.2562 54.7868 59.2482 54.8193 59.2491C54.8519 59.25 54.8835 59.2598 54.9108 59.2774C54.9382 59.295 54.9602 59.3198 54.9744 59.3491C54.9886 59.3783 54.9946 59.4109 54.9916 59.4433Z" fill="#37474F"/>
<path d="M52.0742 62.8979V63.2643C52.0747 63.3133 52.062 63.3615 52.0375 63.4039C52.0129 63.4463 51.9774 63.4812 51.9346 63.5051L45.4127 67.2598C45.3981 67.2687 45.3815 67.2734 45.3645 67.2735C45.3475 67.2737 45.3308 67.2692 45.3162 67.2606C45.3015 67.252 45.2894 67.2397 45.2812 67.2248C45.273 67.2099 45.269 67.1931 45.2696 67.1761V66.8097C45.2694 66.7608 45.2822 66.7127 45.3068 66.6704C45.3313 66.6281 45.3666 66.5931 45.4092 66.5689L51.9311 62.8177C51.9455 62.8101 51.9616 62.8062 51.9779 62.8064C51.9942 62.8066 52.0102 62.8109 52.0245 62.8189C52.0387 62.8269 52.0507 62.8383 52.0594 62.8521C52.0681 62.8659 52.0731 62.8816 52.0742 62.8979Z" fill="#E0E0E0"/>
<path d="M56.4685 53.7101C56.4685 55.0815 55.3589 56.8332 53.9875 57.6254C52.6161 58.4175 51.5029 57.9464 51.5029 56.5785C51.5029 55.2106 52.6161 53.4379 53.9875 52.6633C55.3589 51.8886 56.4685 52.3492 56.4685 53.7101Z" fill="#FDC949"/>
<path d="M54.0849 53.8567C54.4687 53.6334 54.5141 53.609 54.6641 53.5287C54.7471 53.4813 54.8364 53.4461 54.9293 53.424C54.9828 53.4076 55.0399 53.4076 55.0933 53.424C55.1172 53.4329 55.139 53.4464 55.1576 53.4638C55.1762 53.4812 55.1911 53.502 55.2015 53.5252C55.2344 53.6 55.2511 53.6809 55.2504 53.7625C55.2504 53.9126 55.2504 53.9545 55.2504 54.3383C55.2504 54.7221 55.2504 54.7675 55.2504 54.9211C55.2479 55.0217 55.2314 55.1215 55.2015 55.2177C55.1771 55.2983 55.1406 55.3747 55.0933 55.4445C55.0467 55.5181 54.9916 55.586 54.9293 55.6469C54.849 55.7243 54.76 55.7922 54.6641 55.8493C54.5141 55.9435 54.4687 55.9714 54.0849 56.1982C53.701 56.425 53.6557 56.4425 53.5056 56.5227C53.4235 56.5718 53.3339 56.6071 53.2404 56.6274C53.1872 56.6455 53.1296 56.6455 53.0764 56.6274C53.0521 56.6184 53.03 56.6044 53.0114 56.5864C52.9928 56.5684 52.9781 56.5467 52.9682 56.5227C52.9343 56.4483 52.9176 56.3672 52.9194 56.2855C52.9194 56.1389 52.9194 56.0935 52.9194 55.7132C52.9194 55.3328 52.9194 55.284 52.9194 55.1269C52.9216 55.0274 52.9381 54.9287 52.9682 54.8338C52.9927 54.7532 53.0291 54.6767 53.0764 54.607C53.1221 54.5328 53.1773 54.4647 53.2404 54.4046C53.3207 54.3271 53.4097 54.2592 53.5056 54.2022C53.6557 54.108 53.701 54.0801 54.0849 53.8533V53.8567ZM54.0849 53.595C53.6975 53.8184 53.6487 53.8498 53.4951 53.944C53.3683 54.019 53.2511 54.1092 53.1462 54.2127C53.0488 54.3053 52.9633 54.4097 52.8914 54.5232C52.8218 54.6319 52.7667 54.7492 52.7274 54.8722C52.688 54.9977 52.6657 55.128 52.6611 55.2595C52.6611 55.4166 52.6611 55.4654 52.6611 55.8528C52.6611 56.2401 52.6611 56.2924 52.6611 56.439C52.6608 56.5461 52.6834 56.652 52.7274 56.7496C52.7594 56.8214 52.8183 56.8778 52.8914 56.9066C52.9721 56.94 53.0612 56.9473 53.1462 56.9275C53.2685 56.8995 53.3861 56.8537 53.4951 56.7914C53.6487 56.7112 53.6975 56.6833 54.0849 56.4425C54.4722 56.2017 54.5211 56.1878 54.6746 56.0935C54.7998 56.0162 54.9168 55.9262 55.0236 55.8248C55.1209 55.7322 55.2064 55.6279 55.2783 55.5143C55.3493 55.4064 55.4045 55.2889 55.4423 55.1653C55.4817 55.0398 55.504 54.9095 55.5086 54.778C55.5086 54.621 55.5086 54.5721 55.5086 54.1813C55.5086 53.7904 55.5086 53.7451 55.5086 53.595C55.5086 53.4891 55.486 53.3844 55.4423 53.288C55.4104 53.2153 55.3516 53.1577 55.2783 53.1274C55.1952 53.1027 55.1067 53.1027 55.0236 53.1274C54.9007 53.1539 54.7829 53.1998 54.6746 53.2635C54.5211 53.3438 54.4757 53.3682 54.0849 53.6125" fill="white"/>
<path d="M54.0839 54.2963C53.8794 54.4187 53.7063 54.5871 53.5784 54.7883C53.4506 54.9895 53.3716 55.2177 53.3477 55.4549C53.3477 55.8631 53.6792 55.9992 54.0839 55.7654C54.2885 55.6431 54.4616 55.4746 54.5895 55.2735C54.7173 55.0723 54.7963 54.8441 54.8202 54.6069C54.8202 54.1986 54.4887 54.0591 54.0839 54.2963ZM54.0839 55.5072C53.8187 55.6608 53.6059 55.57 53.6059 55.3048C53.6213 55.1506 53.6726 55.0022 53.7556 54.8713C53.8386 54.7404 53.951 54.6308 54.0839 54.5511C54.3492 54.401 54.562 54.4918 54.562 54.7535C54.5476 54.908 54.4968 55.0569 54.4137 55.1879C54.3306 55.3189 54.2176 55.4284 54.0839 55.5072Z" fill="white"/>
<path d="M55.0197 53.724C55.0151 53.7797 54.9972 53.8336 54.9674 53.8809C54.9377 53.9283 54.897 53.9678 54.8487 53.9962C54.7545 54.052 54.6777 54.0171 54.6777 53.9229C54.6823 53.8671 54.7003 53.8133 54.73 53.7659C54.7598 53.7186 54.8005 53.679 54.8487 53.6507C54.9429 53.5984 55.0197 53.6298 55.0197 53.724Z" fill="white"/>
<path d="M45.0226 55.905C43.0755 56.1737 42.8242 58.3896 42.8242 58.3896V61.7709C43.5423 61.9921 44.3018 62.0447 45.0436 61.9245C45.3722 60.8187 45.6344 59.6942 45.8287 58.5571C46.1288 56.4599 45.0226 55.905 45.0226 55.905Z" fill="#FFA8A7"/>
<path d="M114.757 13.2176V30.6408C114.758 31.0243 114.657 31.4012 114.465 31.7333C114.273 32.0654 113.997 32.341 113.665 32.5321L62.8364 61.7883C62.7235 61.8539 62.5953 61.8886 62.4647 61.8889C62.3341 61.8892 62.2057 61.8551 62.0925 61.79C61.9793 61.7249 61.8852 61.6311 61.8198 61.5181C61.7543 61.4051 61.7198 61.2769 61.7197 61.1463V43.7196C61.7198 43.3358 61.8212 42.9588 62.0135 42.6267C62.2059 42.2946 62.4825 42.0192 62.8154 41.8282L113.64 12.5685C113.754 12.5037 113.883 12.4699 114.013 12.4705C114.144 12.471 114.273 12.5059 114.386 12.5716C114.499 12.6373 114.593 12.7316 114.658 12.8449C114.723 12.9583 114.757 13.0868 114.757 13.2176Z" fill="#FDC949"/>
<path opacity="0.7" d="M114.757 13.2176V30.6408C114.758 31.0243 114.657 31.4012 114.465 31.7333C114.273 32.0654 113.997 32.341 113.665 32.5321L62.8364 61.7883C62.7235 61.8539 62.5953 61.8886 62.4647 61.8889C62.3341 61.8892 62.2057 61.8551 62.0925 61.79C61.9793 61.7249 61.8852 61.6311 61.8198 61.5181C61.7543 61.4051 61.7198 61.2769 61.7197 61.1463V43.7196C61.7198 43.3358 61.8212 42.9588 62.0135 42.6267C62.2059 42.2946 62.4825 42.0192 62.8154 41.8282L113.64 12.5685C113.754 12.5037 113.883 12.4699 114.013 12.4705C114.144 12.471 114.273 12.5059 114.386 12.5716C114.499 12.6373 114.593 12.7316 114.658 12.8449C114.723 12.9583 114.757 13.0868 114.757 13.2176Z" fill="white"/>
<path d="M81.0514 34.5839V48.0849C81.0509 48.3825 80.9719 48.6747 80.8224 48.932C80.6729 49.1893 80.4582 49.4027 80.2 49.5505L64.5773 58.5396C64.4897 58.5906 64.3902 58.6175 64.2889 58.6177C64.1875 58.6179 64.0879 58.5914 64.0001 58.5407C63.9123 58.4901 63.8394 58.4172 63.7888 58.3294C63.7382 58.2416 63.7117 58.1419 63.7119 58.0406V44.5431C63.7118 44.2458 63.7901 43.9537 63.939 43.6963C64.0879 43.439 64.302 43.2255 64.5599 43.0775L80.1825 34.0849C80.2704 34.0342 80.37 34.0074 80.4715 34.0073C80.5729 34.0072 80.6726 34.0337 80.7606 34.0843C80.8486 34.1348 80.9218 34.2075 80.9728 34.2952C81.0238 34.3829 81.0509 34.4825 81.0514 34.5839Z" fill="white"/>
<path d="M81.0523 46.2179V48.0848C81.0521 48.3825 80.9732 48.6748 80.8237 48.9322C80.6742 49.1896 80.4593 49.4028 80.2008 49.5504L77.4964 51.1068L72.0039 54.2683L74.7467 48.5559L76.7148 44.4592C77.0637 43.7125 77.8663 43.2553 78.2257 43.5903L81.0523 46.2179Z" fill="#37474F"/>
<path d="M77.4956 51.1068L72.003 54.2683L64.5773 58.5395C64.4897 58.5905 64.3902 58.6175 64.2889 58.6177C64.1875 58.6179 64.0879 58.5913 64.0001 58.5407C63.9123 58.4901 63.8394 58.4172 63.7888 58.3293C63.7382 58.2415 63.7117 58.1419 63.7119 58.0405V56.8297L69.1067 45.5934C69.4557 44.8501 70.2548 44.393 70.6142 44.7245L74.7458 48.563L77.4956 51.1068Z" fill="#455A64"/>
<path d="M79.4712 39.1273C79.4712 40.2335 78.5744 41.6467 77.4683 42.2679C76.3621 42.889 75.4688 42.5261 75.4688 41.4199C75.4688 40.3137 76.3621 38.904 77.4683 38.2793C78.5744 37.6547 79.4712 38.0421 79.4712 39.1273Z" fill="#455A64"/>
<path d="M112.611 23.0544V23.4034C112.611 23.4976 112.587 23.5903 112.539 23.6719C112.492 23.7535 112.424 23.821 112.342 23.8675L82.7474 40.8859C82.7193 40.9017 82.6875 40.9099 82.6553 40.9097C82.623 40.9095 82.5914 40.9008 82.5636 40.8846C82.5357 40.8684 82.5126 40.8451 82.4964 40.8172C82.4803 40.7893 82.4718 40.7576 82.4717 40.7254V40.3765C82.4724 40.2816 82.4978 40.1885 82.5456 40.1064C82.5933 40.0244 82.6617 39.9563 82.7439 39.9089L112.335 22.8939C112.363 22.8781 112.395 22.8699 112.427 22.8701C112.459 22.8704 112.491 22.879 112.519 22.8952C112.547 22.9115 112.57 22.9347 112.586 22.9626C112.602 22.9905 112.611 23.0222 112.611 23.0544Z" fill="white"/>
<path d="M112.611 25.4797V25.8286C112.611 25.9229 112.587 26.0156 112.539 26.0971C112.492 26.1787 112.424 26.2462 112.342 26.2927L82.7474 43.3112C82.7195 43.3269 82.6881 43.3351 82.6561 43.335C82.6242 43.3349 82.5928 43.3266 82.565 43.3107C82.5373 43.2949 82.5141 43.2722 82.4977 43.2447C82.4814 43.2173 82.4724 43.1861 82.4717 43.1541V42.8052C82.4719 42.7107 82.4972 42.6179 82.545 42.5363C82.5929 42.4548 82.6615 42.3874 82.7439 42.3411L112.335 25.3226C112.363 25.307 112.394 25.2988 112.426 25.2988C112.458 25.2989 112.49 25.3073 112.517 25.3231C112.545 25.3389 112.568 25.3616 112.585 25.3891C112.601 25.4165 112.61 25.4477 112.611 25.4797Z" fill="white"/>
<path d="M112.611 18.1833V18.5322C112.611 18.6269 112.586 18.7199 112.539 18.8019C112.492 18.884 112.424 18.9522 112.342 18.9998L82.7474 36.0148C82.7195 36.0305 82.6881 36.0387 82.6561 36.0386C82.6242 36.0385 82.5928 36.0302 82.565 36.0144C82.5373 35.9985 82.5141 35.9758 82.4977 35.9484C82.4814 35.9209 82.4724 35.8897 82.4717 35.8578V35.5088C82.4719 35.4143 82.4972 35.3215 82.545 35.24C82.5929 35.1584 82.6615 35.091 82.7439 35.0447L112.335 18.0263C112.363 18.0106 112.394 18.0024 112.426 18.0024C112.458 18.0025 112.49 18.0109 112.517 18.0267C112.545 18.0425 112.568 18.0652 112.585 18.0927C112.601 18.1201 112.61 18.1513 112.611 18.1833Z" fill="white"/>
<path d="M112.611 20.619V20.9679C112.611 21.0621 112.586 21.1546 112.539 21.2362C112.492 21.3177 112.424 21.3852 112.342 21.432L82.7474 38.447C82.7197 38.4638 82.6881 38.4729 82.6557 38.4733C82.6233 38.4738 82.5914 38.4656 82.5633 38.4496C82.5352 38.4336 82.5119 38.4103 82.4958 38.3822C82.4797 38.3542 82.4713 38.3223 82.4717 38.29V37.941C82.4723 37.8465 82.4977 37.7539 82.5455 37.6724C82.5933 37.5909 82.6617 37.5235 82.7439 37.4769L112.335 20.4619C112.363 20.4451 112.394 20.436 112.427 20.4356C112.459 20.4351 112.491 20.4433 112.519 20.4593C112.547 20.4754 112.571 20.4986 112.587 20.5267C112.603 20.5547 112.611 20.5866 112.611 20.619Z" fill="white"/>
<path d="M106.371 31.5341V31.8831C106.371 31.9776 106.346 32.0704 106.298 32.1519C106.25 32.2335 106.182 32.3008 106.099 32.3472L82.7474 45.7574C82.7195 45.7731 82.6881 45.7813 82.6561 45.7812C82.6242 45.7812 82.5928 45.7728 82.565 45.757C82.5373 45.7412 82.5141 45.7185 82.4977 45.691C82.4814 45.6636 82.4724 45.6324 82.4717 45.6004V45.2515C82.4719 45.1569 82.4972 45.0642 82.545 44.9826C82.5929 44.9011 82.6615 44.8337 82.7439 44.7874L106.096 31.3771C106.124 31.3614 106.155 31.3532 106.187 31.3533C106.219 31.3533 106.25 31.3617 106.278 31.3775C106.306 31.3933 106.329 31.4161 106.345 31.4435C106.362 31.471 106.371 31.5022 106.371 31.5341Z" fill="white"/>
<path d="M81.3274 53.4659V53.8149C81.3268 53.9094 81.3017 54.0021 81.2546 54.084C81.2075 54.166 81.14 54.2343 81.0587 54.2825L61.9954 65.2466C61.9673 65.2624 61.9356 65.2706 61.9033 65.2703C61.8711 65.2701 61.8395 65.2615 61.8116 65.2452C61.7838 65.229 61.7606 65.2058 61.7445 65.1779C61.7284 65.1499 61.7198 65.1183 61.7197 65.0861V64.7545C61.7192 64.6603 61.7439 64.5676 61.7911 64.486C61.8383 64.4045 61.9064 64.3369 61.9884 64.2904L81.0517 53.3228C81.0786 53.3076 81.1088 53.2992 81.1397 53.2986C81.1706 53.298 81.2011 53.3051 81.2285 53.3194C81.2559 53.3336 81.2793 53.3545 81.2966 53.3801C81.3139 53.4057 81.3245 53.4352 81.3274 53.4659Z" fill="#455A64"/>
<path d="M81.3274 28.3586V28.7075C81.3272 28.8016 81.3023 28.894 81.2551 28.9755C81.2079 29.0569 81.1402 29.1246 81.0587 29.1716L61.9954 40.1357C61.9678 40.1525 61.9361 40.1617 61.9037 40.1621C61.8714 40.1626 61.8395 40.1544 61.8114 40.1383C61.7832 40.1223 61.7599 40.0991 61.7438 40.071C61.7277 40.0429 61.7194 40.0111 61.7197 39.9787V39.6298C61.7196 39.5356 61.7444 39.443 61.7916 39.3615C61.8388 39.28 61.9067 39.2124 61.9884 39.1657L81.0517 28.2015C81.0796 28.1859 81.111 28.1777 81.143 28.1777C81.1749 28.1778 81.2063 28.1862 81.2341 28.202C81.2618 28.2178 81.285 28.2405 81.3014 28.268C81.3177 28.2954 81.3267 28.3266 81.3274 28.3586Z" fill="#455A64"/>
<path d="M114.757 60.7763V78.1996C114.758 78.5831 114.657 78.9599 114.465 79.2921C114.273 79.6242 113.997 79.8997 113.665 80.0909L62.8364 109.347C62.7232 109.413 62.5947 109.448 62.4638 109.448C62.3329 109.448 62.2043 109.413 62.091 109.348C61.9777 109.282 61.8837 109.188 61.8185 109.075C61.7533 108.961 61.7192 108.832 61.7197 108.702V91.2783C61.7198 90.8945 61.8212 90.5176 62.0135 90.1855C62.2059 89.8534 62.4825 89.578 62.8154 89.387L113.64 60.1308C113.754 60.0661 113.882 60.0323 114.013 60.0327C114.143 60.0331 114.271 60.0677 114.384 60.133C114.497 60.1983 114.591 60.292 114.656 60.4049C114.722 60.5178 114.757 60.6459 114.757 60.7763Z" fill="#FDC949"/>
<path opacity="0.7" d="M114.757 60.7763V78.1996C114.758 78.5831 114.657 78.9599 114.465 79.2921C114.273 79.6242 113.997 79.8997 113.665 80.0909L62.8364 109.347C62.7232 109.413 62.5947 109.448 62.4638 109.448C62.3329 109.448 62.2043 109.413 62.091 109.348C61.9777 109.282 61.8837 109.188 61.8185 109.075C61.7533 108.961 61.7192 108.832 61.7197 108.702V91.2783C61.7198 90.8945 61.8212 90.5176 62.0135 90.1855C62.2059 89.8534 62.4825 89.578 62.8154 89.387L113.64 60.1308C113.754 60.0661 113.882 60.0323 114.013 60.0327C114.143 60.0331 114.271 60.0677 114.384 60.133C114.497 60.1983 114.591 60.292 114.656 60.4049C114.722 60.5178 114.757 60.6459 114.757 60.7763Z" fill="white"/>
<path d="M81.0514 82.1429V95.6439C81.0509 95.9414 80.9719 96.2336 80.8224 96.4909C80.6729 96.7482 80.4582 96.9616 80.2 97.1095L64.5773 106.088C64.4897 106.139 64.3902 106.166 64.2889 106.166C64.1875 106.166 64.0879 106.14 64.0001 106.089C63.9123 106.039 63.8394 105.966 63.7888 105.878C63.7382 105.79 63.7117 105.69 63.7119 105.589V92.102C63.7118 91.8047 63.7901 91.5126 63.939 91.2552C64.0879 90.9979 64.302 90.7844 64.5599 90.6364L80.1825 81.6613C80.2691 81.6112 80.3672 81.5844 80.4672 81.5835C80.5672 81.5826 80.6658 81.6076 80.7533 81.6561C80.8408 81.7046 80.9142 81.7749 80.9665 81.8602C81.0187 81.9455 81.048 82.0429 81.0514 82.1429Z" fill="white"/>
<path d="M81.0523 93.777V95.6404C81.0528 95.9382 80.9742 96.2308 80.8247 96.4883C80.6751 96.7458 80.4598 96.959 80.2008 97.106L77.4964 98.6659L72.0039 101.827L74.7467 96.115L76.7148 92.0183C77.0637 91.2715 77.8663 90.8144 78.2257 91.1494L81.0523 93.777Z" fill="#37474F"/>
<path d="M77.4956 98.6659L72.003 101.827L64.5773 106.088C64.4897 106.139 64.3902 106.166 64.2889 106.166C64.1875 106.166 64.0879 106.14 64.0001 106.089C63.9123 106.039 63.8394 105.966 63.7888 105.878C63.7382 105.79 63.7117 105.69 63.7119 105.589V104.375L69.1067 93.1419C69.4557 92.3987 70.2548 91.9415 70.6142 92.2731L74.7458 96.1115L77.4956 98.6659Z" fill="#455A64"/>
<path d="M79.4712 86.6862C79.4712 87.7924 78.5744 89.2056 77.4683 89.8442C76.3621 90.4828 75.4688 90.1024 75.4688 88.9963C75.4688 87.8901 76.3621 86.4803 77.4683 85.8557C78.5744 85.2311 79.4712 85.5835 79.4712 86.6862Z" fill="#455A64"/>
<path d="M112.611 70.6132V70.9621C112.611 71.0564 112.587 71.1491 112.539 71.2307C112.492 71.3122 112.424 71.3798 112.342 71.4263L82.7474 88.4307C82.7193 88.4466 82.6875 88.4548 82.6553 88.4545C82.623 88.4543 82.5914 88.4456 82.5636 88.4294C82.5357 88.4132 82.5126 88.39 82.4964 88.362C82.4803 88.3341 82.4718 88.3025 82.4717 88.2702V87.9422C82.4724 87.8473 82.4978 87.7542 82.5456 87.6722C82.5933 87.5902 82.6617 87.5221 82.7439 87.4746L112.335 70.4597C112.363 70.4441 112.394 70.4359 112.425 70.4358C112.457 70.4357 112.488 70.4438 112.516 70.4592C112.544 70.4746 112.567 70.4968 112.583 70.5238C112.6 70.5508 112.609 70.5816 112.611 70.6132Z" fill="white"/>
<path d="M112.611 73.0491V73.398C112.611 73.4923 112.587 73.585 112.539 73.6665C112.492 73.7481 112.424 73.8156 112.342 73.8621L82.7474 90.8806C82.7193 90.8964 82.6875 90.9046 82.6553 90.9044C82.623 90.9041 82.5914 90.8955 82.5636 90.8792C82.5357 90.863 82.5126 90.8398 82.4964 90.8119C82.4803 90.784 82.4718 90.7523 82.4717 90.7201V90.3851C82.4719 90.2905 82.4972 90.1978 82.545 90.1162C82.5929 90.0347 82.6615 89.9673 82.7439 89.921L112.335 72.9025C112.362 72.8871 112.393 72.8789 112.424 72.8784C112.455 72.878 112.486 72.8854 112.513 72.9001C112.541 72.9147 112.564 72.936 112.581 72.962C112.598 72.9881 112.608 73.018 112.611 73.0491Z" fill="white"/>
<path d="M112.611 65.7421V66.0911C112.611 66.1853 112.587 66.278 112.539 66.3596C112.492 66.4412 112.424 66.5087 112.342 66.5552L82.7474 83.5736C82.7195 83.5893 82.6881 83.5975 82.6561 83.5974C82.6242 83.5974 82.5928 83.589 82.565 83.5732C82.5373 83.5574 82.5141 83.5346 82.4977 83.5072C82.4814 83.4798 82.4724 83.4485 82.4717 83.4166V83.0676C82.4719 82.9731 82.4972 82.8803 82.545 82.7988C82.5929 82.7173 82.6615 82.6499 82.7439 82.6035L112.335 65.5851C112.363 65.5694 112.394 65.5612 112.426 65.5613C112.458 65.5614 112.49 65.5697 112.517 65.5855C112.545 65.6013 112.568 65.6241 112.585 65.6515C112.601 65.679 112.61 65.7102 112.611 65.7421Z" fill="white"/>
<path d="M112.611 68.1778V68.5268C112.611 68.6209 112.586 68.7135 112.539 68.795C112.492 68.8765 112.424 68.9441 112.342 68.9909L82.7474 86.0058C82.7197 86.0226 82.6881 86.0317 82.6557 86.0322C82.6233 86.0326 82.5914 86.0244 82.5633 86.0084C82.5352 85.9924 82.5119 85.9692 82.4958 85.9411C82.4797 85.913 82.4713 85.8811 82.4717 85.8488V85.4998C82.4723 85.4054 82.4977 85.3127 82.5455 85.2313C82.5933 85.1498 82.6617 85.0823 82.7439 85.0357L112.335 68.0208C112.363 68.004 112.394 67.9949 112.427 67.9944C112.459 67.9939 112.491 68.0022 112.519 68.0182C112.547 68.0342 112.571 68.0574 112.587 68.0855C112.603 68.1136 112.611 68.1454 112.611 68.1778Z" fill="white"/>
<path d="M106.371 79.0929V79.4419C106.371 79.5364 106.346 79.6292 106.298 79.7107C106.25 79.7923 106.182 79.8597 106.099 79.906L82.7474 93.3163C82.7195 93.332 82.6881 93.3402 82.6561 93.3401C82.6242 93.34 82.5928 93.3317 82.565 93.3158C82.5373 93.3 82.5141 93.2773 82.4977 93.2498C82.4814 93.2224 82.4724 93.1912 82.4717 93.1593V92.8103C82.4719 92.7158 82.4972 92.623 82.545 92.5415C82.5929 92.4599 82.6615 92.3925 82.7439 92.3462L106.096 78.9359C106.124 78.9202 106.155 78.912 106.187 78.9121C106.219 78.9122 106.25 78.9205 106.278 78.9364C106.306 78.9522 106.329 78.9749 106.345 79.0024C106.362 79.0298 106.371 79.061 106.371 79.0929Z" fill="white"/>
<path d="M107.331 9.00214C107.301 9.3079 107.199 9.60224 107.034 9.86159C106.869 10.1209 106.646 10.3381 106.382 10.4957C105.859 10.7958 105.437 10.6178 105.437 10.0944C105.467 9.78885 105.568 9.4946 105.732 9.23524C105.896 8.97587 106.119 8.7586 106.382 8.60085C106.923 8.29726 107.331 8.47871 107.331 9.00214Z" fill="#FDC949"/>
<path d="M110.58 7.12479C110.55 7.43108 110.448 7.72602 110.284 7.98597C110.119 8.24592 109.895 8.46368 109.631 8.62179C109.108 8.92189 108.686 8.74393 108.686 8.2205C108.715 7.91483 108.816 7.62037 108.98 7.36092C109.144 7.10147 109.367 6.88431 109.631 6.72698C110.155 6.42339 110.58 6.60136 110.58 7.12479Z" fill="#FDC949"/>
<path d="M113.825 5.24044C113.796 5.54611 113.695 5.84056 113.531 6.10001C113.367 6.35946 113.144 6.57663 112.88 6.73395C112.356 7.03754 111.931 6.85609 111.931 6.33266C111.961 6.0269 112.063 5.73256 112.228 5.47321C112.393 5.21386 112.616 4.9967 112.88 4.83914C113.403 4.54253 113.825 4.72747 113.825 5.24044Z" fill="#FDC949"/>
<path opacity="0.4" d="M107.331 9.00214C107.301 9.3079 107.199 9.60224 107.034 9.86159C106.869 10.1209 106.646 10.3381 106.382 10.4957C105.859 10.7958 105.437 10.6178 105.437 10.0944C105.467 9.78885 105.568 9.4946 105.732 9.23524C105.896 8.97587 106.119 8.7586 106.382 8.60085C106.923 8.29726 107.331 8.47871 107.331 9.00214Z" fill="black"/>
<path opacity="0.4" d="M110.58 7.12479C110.55 7.43108 110.448 7.72602 110.284 7.98597C110.119 8.24592 109.895 8.46368 109.631 8.62179C109.108 8.92189 108.686 8.74393 108.686 8.2205C108.715 7.91483 108.816 7.62037 108.98 7.36092C109.144 7.10147 109.367 6.88431 109.631 6.72698C110.155 6.42339 110.58 6.60136 110.58 7.12479Z" fill="black"/>
<path opacity="0.4" d="M113.825 5.24044C113.796 5.54611 113.695 5.84056 113.531 6.10001C113.367 6.35946 113.144 6.57663 112.88 6.73395C112.356 7.03754 111.931 6.85609 111.931 6.33266C111.961 6.0269 112.063 5.73256 112.228 5.47321C112.393 5.21386 112.616 4.9967 112.88 4.83914C113.403 4.54253 113.825 4.72747 113.825 5.24044Z" fill="black"/>
<path d="M116.959 37.6931L115.256 36.6916C115.139 36.6037 114.999 36.5522 114.853 36.5436C114.708 36.5349 114.562 36.5694 114.436 36.6427L62.8329 66.3561C62.495 66.5499 62.2142 66.8294 62.0188 67.1663C61.8234 67.5033 61.7202 67.8858 61.7197 68.2753V85.9672C61.7221 86.1225 61.7727 86.2731 61.8647 86.3982C61.9566 86.5232 62.0852 86.6166 62.2327 86.6651L63.8449 87.6457L63.789 86.0719L114.457 56.9064C114.795 56.7126 115.076 56.4331 115.271 56.0962C115.467 55.7592 115.57 55.3767 115.57 54.9872V38.4189L116.959 37.6931Z" fill="#FDC949"/>
<path d="M116.17 37.6932L64.5673 67.3857C64.2289 67.5798 63.9478 67.8598 63.7523 68.1974C63.5568 68.535 63.454 68.9183 63.4541 69.3084V87.0003C63.4539 87.1352 63.4901 87.2677 63.5589 87.3838C63.6277 87.4998 63.7265 87.5952 63.8449 87.6598C63.9583 87.7241 64.0863 87.7578 64.2166 87.7578C64.3468 87.7578 64.4749 87.7241 64.5882 87.6598L116.191 57.9569C116.53 57.7636 116.811 57.4843 117.006 57.1472C117.202 56.8101 117.305 56.4274 117.305 56.0377V38.3458C117.304 38.2134 117.268 38.0835 117.202 37.9691C117.135 37.8547 117.04 37.7597 116.925 37.6937C116.81 37.6276 116.68 37.5929 116.548 37.5928C116.415 37.5927 116.285 37.6273 116.17 37.6932Z" fill="#FDC949"/>
<path opacity="0.4" d="M117.305 38.3388V56.0308C117.305 56.4204 117.202 56.8032 117.006 57.1403C116.811 57.4774 116.53 57.7567 116.191 57.95L64.5882 87.6529C64.4734 87.7188 64.3433 87.7534 64.2109 87.7533C64.0785 87.7533 63.9484 87.7185 63.8337 87.6524C63.7189 87.5864 63.6235 87.4915 63.5569 87.377C63.4903 87.2626 63.4548 87.1327 63.4541 87.0003V69.3084C63.454 68.9183 63.5568 68.5351 63.7523 68.1975C63.9478 67.8599 64.2289 67.5798 64.5673 67.3857L116.17 37.6933C116.285 37.6276 116.414 37.593 116.546 37.5928C116.678 37.5925 116.807 37.6267 116.922 37.6919C117.037 37.7571 117.132 37.8511 117.199 37.9646C117.266 38.078 117.303 38.207 117.305 38.3388Z" fill="white"/>
<path d="M83.0787 60.0261V73.7295C83.079 74.0313 82.9997 74.3279 82.8491 74.5894C82.6984 74.851 82.4815 75.0683 82.2203 75.2195L66.3569 84.3481C66.2679 84.3995 66.167 84.4266 66.0642 84.4266C65.9614 84.4267 65.8605 84.3998 65.7714 84.3485C65.6823 84.2973 65.6083 84.2235 65.5567 84.1346C65.5052 84.0458 65.4778 83.9449 65.4775 83.8421V70.1457C65.4772 69.8439 65.5568 69.5474 65.7082 69.2863C65.8596 69.0252 66.0774 68.8088 66.3395 68.6592L82.1994 59.5271C82.2879 59.476 82.3882 59.4489 82.4903 59.4485C82.5925 59.4481 82.693 59.4744 82.7819 59.5249C82.8708 59.5753 82.9449 59.6481 82.997 59.736C83.049 59.8239 83.0772 59.9239 83.0787 60.0261Z" fill="white"/>
<path d="M83.0821 71.8416V73.7364C83.0823 74.0391 83.0023 74.3364 82.8503 74.5982C82.6983 74.8599 82.4797 75.0767 82.2167 75.2265L79.4739 76.8072L73.8906 80.0176L76.6823 74.218L78.6818 70.0585C79.0482 69.3013 79.8507 68.8371 80.2137 69.1756L83.0821 71.8416Z" fill="#FDC949"/>
<path opacity="0.2" d="M83.0821 71.8416V73.7364C83.0823 74.0391 83.0023 74.3364 82.8503 74.5982C82.6983 74.8599 82.4797 75.0767 82.2167 75.2265L79.4739 76.8072L73.8906 80.0176L76.6823 74.218L78.6818 70.0585C79.0482 69.3013 79.8507 68.8371 80.2137 69.1756L83.0821 71.8416Z" fill="black"/>
<path d="M79.4746 76.8073L73.8914 80.0177L66.354 84.3552C66.265 84.4065 66.164 84.4336 66.0613 84.4337C65.9585 84.4338 65.8575 84.4068 65.7685 84.3556C65.6794 84.3043 65.6054 84.2306 65.5538 84.1417C65.5022 84.0528 65.4749 83.9519 65.4746 83.8492V82.6174L70.9532 71.2101C71.3021 70.4529 72.1187 69.9888 72.4816 70.3272L76.669 74.2181L79.4746 76.8073Z" fill="#FDC949"/>
<path d="M81.4774 64.6462C81.4774 65.7664 80.5666 67.204 79.443 67.8496C78.3194 68.4952 77.4121 68.1148 77.4121 66.9912C77.4121 65.8676 78.3229 64.4334 79.443 63.7878C80.5632 63.1422 81.4774 63.5156 81.4774 64.6462Z" fill="#FDC949"/>
<path d="M115.124 48.3258V48.6748C115.123 48.7702 115.098 48.8639 115.05 48.9465C115.002 49.0291 114.934 49.0979 114.851 49.1459L84.803 66.4225C84.7749 66.4384 84.7432 66.4466 84.7109 66.4463C84.6787 66.4461 84.6471 66.4374 84.6192 66.4212C84.5914 66.405 84.5682 66.3818 84.5521 66.3538C84.536 66.3259 84.5275 66.2943 84.5274 66.262V65.9131C84.5268 65.817 84.5517 65.7225 84.5995 65.6391C84.6473 65.5558 84.7163 65.4865 84.7995 65.4385L114.844 48.1618C114.873 48.145 114.905 48.136 114.938 48.136C114.971 48.1359 115.004 48.1447 115.032 48.1615C115.061 48.1782 115.084 48.2023 115.1 48.2312C115.116 48.2601 115.124 48.2928 115.124 48.3258Z" fill="white"/>
<path d="M115.124 50.7998V51.1488C115.123 51.2447 115.098 51.339 115.05 51.4222C115.003 51.5054 114.934 51.5748 114.851 51.6233L84.803 68.8895C84.7749 68.9054 84.7432 68.9135 84.7109 68.9133C84.6787 68.9131 84.6471 68.9044 84.6192 68.8882C84.5914 68.872 84.5682 68.8488 84.5521 68.8208C84.536 68.7929 84.5275 68.7613 84.5274 68.729V68.3801C84.5268 68.284 84.5517 68.1895 84.5995 68.1061C84.6473 68.0227 84.7163 67.9535 84.7995 67.9055L114.844 50.6288C114.873 50.6116 114.906 50.6026 114.94 50.6028C114.974 50.603 115.007 50.6124 115.036 50.63C115.064 50.6476 115.088 50.6727 115.103 50.7027C115.119 50.7326 115.126 50.7662 115.124 50.7998Z" fill="white"/>
<path d="M115.124 43.3775V43.7264C115.123 43.8219 115.098 43.9155 115.05 43.9981C115.002 44.0808 114.934 44.1495 114.851 44.1975L84.803 61.4742C84.7749 61.49 84.7432 61.4982 84.711 61.498C84.6787 61.4977 84.6471 61.4891 84.6193 61.4728C84.5914 61.4566 84.5683 61.4334 84.5521 61.4055C84.536 61.3776 84.5275 61.3459 84.5274 61.3137V60.9647C84.5263 60.869 84.5511 60.7748 84.599 60.6919C84.6468 60.609 84.7161 60.5405 84.7996 60.4936L114.844 43.2135C114.873 43.1978 114.905 43.1897 114.938 43.1902C114.971 43.1907 115.002 43.1996 115.031 43.2161C115.059 43.2327 115.082 43.2562 115.098 43.2845C115.115 43.3128 115.123 43.3448 115.124 43.3775Z" fill="white"/>
<path d="M115.124 45.8517V46.2007C115.123 46.2961 115.098 46.3897 115.05 46.4724C115.002 46.555 114.934 46.6237 114.851 46.6717L84.803 63.9484C84.7749 63.9642 84.7432 63.9724 84.7109 63.9722C84.6787 63.972 84.6471 63.9633 84.6192 63.9471C84.5914 63.9309 84.5682 63.9076 84.5521 63.8797C84.536 63.8518 84.5275 63.8201 84.5274 63.7879V63.4389C84.5268 63.3429 84.5517 63.2483 84.5995 63.165C84.6473 63.0816 84.7163 63.0124 84.7995 62.9644L114.844 45.6877C114.873 45.6708 114.905 45.6619 114.938 45.6619C114.971 45.6618 115.004 45.6706 115.032 45.6873C115.061 45.7041 115.084 45.7282 115.1 45.7571C115.116 45.786 115.124 45.8187 115.124 45.8517Z" fill="white"/>
<path d="M108.787 56.9378V57.2868C108.787 57.3824 108.762 57.4765 108.715 57.5593C108.667 57.6421 108.598 57.7106 108.514 57.7578L84.803 71.367C84.7749 71.3828 84.7432 71.391 84.7109 71.3908C84.6787 71.3906 84.6471 71.3819 84.6192 71.3657C84.5914 71.3495 84.5682 71.3262 84.5521 71.2983C84.536 71.2704 84.5275 71.2387 84.5274 71.2065V70.8575C84.5268 70.7615 84.5517 70.6669 84.5995 70.5836C84.6473 70.5002 84.7163 70.431 84.7995 70.383L108.511 56.7738C108.539 56.7578 108.571 56.7496 108.604 56.75C108.636 56.7504 108.668 56.7594 108.696 56.776C108.724 56.7926 108.747 56.8164 108.763 56.8448C108.779 56.8732 108.787 56.9053 108.787 56.9378Z" fill="white"/>
<path d="M121.538 129.715C121.538 129.715 121.925 129.862 121.887 130.48C121.848 131.097 121.475 132.099 121.377 132.737C121.279 133.376 121.538 134.807 121.332 135.142C121.126 135.477 118.254 136.747 118.254 136.747L118.53 132.144C118.53 132.144 119.318 130.235 119.992 129.911C120.481 129.712 121.014 129.645 121.538 129.715Z" fill="#FDC949"/>
<path opacity="0.4" d="M121.538 129.715C121.538 129.715 121.925 129.862 121.887 130.48C121.848 131.097 121.475 132.099 121.377 132.737C121.279 133.376 121.538 134.807 121.332 135.142C121.126 135.477 118.254 136.747 118.254 136.747L118.53 132.144C118.53 132.144 119.318 130.235 119.992 129.911C120.481 129.712 121.014 129.645 121.538 129.715Z" fill="black"/>
<path d="M121.052 129.38L121.538 129.729C121.208 129.726 120.883 129.804 120.592 129.958C120.301 130.111 120.052 130.335 119.87 130.609C119.287 131.54 119.252 133.837 119.22 134.681C119.189 135.525 119.004 136.489 118.139 136.813C117.273 137.138 115.864 136.663 115.246 136.021C115.171 135.748 115.195 135.458 115.312 135.201C115.518 134.918 117.727 134.939 117.727 134.939C117.727 134.939 118.463 131.139 118.463 131.101C118.463 131.062 119.318 129.387 119.318 129.387L121.052 129.38Z" fill="#37474F"/>
<path d="M102.782 137.323C102.782 137.323 102.995 137.912 102.726 138.073C102.182 138.329 101.583 138.448 100.982 138.422C100.196 138.422 98.6924 137.996 98.1899 137.968C97.6875 137.94 96.6301 138.062 95.3634 138.024C94.4651 138.015 93.5842 137.774 92.8056 137.326C92.6687 137.21 92.5606 137.064 92.4898 136.9C92.4189 136.735 92.3873 136.556 92.3973 136.377C92.4532 136.206 102.782 137.323 102.782 137.323Z" fill="#37474F"/>
<path d="M92.3648 136.3C92.4625 136.551 92.9545 137.214 94.1095 137.525C94.2057 137.552 94.3036 137.572 94.4027 137.584C95.4042 137.734 97.1943 137.612 97.9934 137.602C98.8937 137.602 99.7382 137.989 100.855 137.979C101.971 137.968 102.502 137.808 102.729 137.406C102.956 137.005 102.792 136.789 102.729 136.01C102.666 135.232 102.652 134.182 102.586 133.746C102.586 133.746 102.491 133.327 102.282 133.303L99.0333 133.142C98.8518 133.229 98.7436 133.823 98.3354 134.074C97.9271 134.325 96.4929 134.172 95.7147 134.074C94.9366 133.976 93.799 133.899 93.0173 134.423C92.7447 134.644 92.5393 134.937 92.424 135.269C92.3087 135.6 92.2882 135.957 92.3648 136.3Z" fill="#455A64"/>
<path d="M102.388 131.324L102.307 133.292C102.307 133.292 102.063 134.412 100.618 134.412C100.618 134.412 99.0586 134.444 99.0586 133.194L99.1563 130.752L102.388 131.324Z" fill="#FFA8A7"/>
<path d="M92.3652 136.3C92.4629 136.551 92.9549 137.214 94.1099 137.525C94.2061 137.552 94.304 137.572 94.4031 137.584C93.9634 134.583 95.7116 134.049 95.7116 134.049C94.93 133.938 93.7959 133.875 93.0142 134.398C92.738 134.622 92.5305 134.919 92.4156 135.256C92.3008 135.592 92.2833 135.954 92.3652 136.3Z" fill="#FDC949"/>
<path d="M118.376 125.28L119.395 127.908L116.969 129.715L115.389 127.409C115.389 127.409 116.285 125.015 118.376 125.28Z" fill="#FFA8A7"/>
<path d="M115.452 135.525C115.809 135.934 116.308 136.192 116.848 136.248C116.901 136.244 116.953 136.244 117.005 136.248C117.941 136.286 118.401 136.035 118.548 135.393C118.694 134.751 118.624 131.656 119.123 130.734C119.622 129.813 120.334 129.405 121.039 129.37L119.382 127.897C119.124 127.815 118.849 127.802 118.584 127.86C118.32 127.917 118.075 128.043 117.874 128.225C117.874 128.225 116.848 128.839 116.953 129.705C117.058 130.57 117.515 130.891 117.494 131.973C117.488 132.565 117.438 133.155 117.344 133.739C117.344 133.739 116.423 133.463 115.864 134.06C115.607 134.325 115.42 134.65 115.32 135.005C115.295 135.096 115.294 135.192 115.318 135.283C115.341 135.374 115.387 135.458 115.452 135.525Z" fill="#455A64"/>
<path d="M98.4578 133.973C98.3849 133.949 98.3076 133.943 98.2319 133.955C98.1562 133.966 98.0842 133.995 98.0216 134.039C97.7005 134.234 97.6342 135.41 97.7319 135.606C97.8297 135.801 97.9902 135.606 98.039 135.159C98.0765 134.735 98.2205 134.327 98.4578 133.973Z" fill="white"/>
<path d="M97.4007 134.192C97.4007 134.192 97.2541 134.266 97.125 134.66C96.9959 135.054 97.0447 135.564 96.9086 135.634C96.7725 135.703 96.7272 135.365 96.7237 135.023C96.6909 134.726 96.7611 134.426 96.9226 134.175C96.9895 134.116 97.0762 134.086 97.1651 134.089C97.2539 134.092 97.3382 134.129 97.4007 134.192Z" fill="white"/>
<path d="M96.4795 134.14C96.2855 134.313 96.1287 134.523 96.0188 134.758C95.7606 135.239 95.7571 135.515 95.6699 135.553C95.5826 135.592 95.5233 135.445 95.5443 135.177C95.5842 134.766 95.7684 134.383 96.0642 134.095C96.0941 134.07 96.1288 134.051 96.1661 134.04C96.2035 134.028 96.2427 134.025 96.2815 134.029C96.3203 134.033 96.3578 134.045 96.3918 134.064C96.4258 134.084 96.4556 134.109 96.4795 134.14Z" fill="white"/>
<path d="M115.452 135.525C115.809 135.934 116.308 136.192 116.848 136.248C116.9 136.244 116.953 136.244 117.005 136.248C116.907 135.395 117.027 134.532 117.354 133.739C117.354 133.739 116.433 133.463 115.874 134.06C115.618 134.325 115.431 134.65 115.33 135.005C115.304 135.095 115.302 135.19 115.323 135.281C115.344 135.372 115.389 135.456 115.452 135.525Z" fill="#FDC949"/>
<path d="M117.427 131.212C117.555 131.465 117.761 131.671 118.013 131.799C118.028 131.813 118.039 131.83 118.045 131.85C118.051 131.869 118.053 131.889 118.05 131.91C118.047 131.93 118.039 131.949 118.027 131.965C118.015 131.982 118 131.995 117.982 132.005C117.839 132.092 117.504 131.76 117.504 131.76C117.504 131.76 117.225 131.408 117.427 131.212Z" fill="white"/>
<path d="M117.494 132.409C117.585 132.632 117.702 132.844 117.843 133.041C118.045 133.302 118.055 133.48 117.916 133.484C117.776 133.487 117.567 133.233 117.462 132.947C117.403 132.77 117.414 132.578 117.494 132.409Z" fill="white"/>
<path d="M117.42 133.344C117.534 133.606 117.679 133.852 117.853 134.077C118.073 134.325 117.797 134.426 117.63 134.248C117.462 134.07 117.18 133.522 117.42 133.344Z" fill="white"/>
<path d="M97.9304 114.567C97.9933 115.799 98.5376 121.895 98.6284 123.727C98.7191 125.559 99.0401 131.439 99.0401 131.439C99.6539 131.72 100.316 131.88 100.991 131.91C102.184 131.997 102.53 131.519 102.53 131.519C102.53 131.519 102.704 130.026 102.941 128.836C103.179 127.646 104.264 120.953 104.219 118.699C104.22 117.482 104.045 116.271 103.699 115.105L105.503 104.046C105.503 104.046 105.883 106.437 106.312 108.953C106.742 111.482 107.223 114.135 107.418 114.606C107.809 115.551 115.396 127.405 115.396 127.405C115.894 126.817 116.454 126.285 117.067 125.817C117.454 125.532 117.906 125.346 118.383 125.277C118.383 125.277 115.298 116.724 114.6 115.405C114.102 114.538 113.398 113.807 112.552 113.276C112.552 113.276 112.471 96.1774 112.377 95.0677C112.295 94.3038 112.142 93.5491 111.92 92.8135L98.9633 94.6664C98.9633 94.6664 97.9165 105.449 97.8153 107.379C97.7141 109.309 97.8502 113.332 97.9304 114.567Z" fill="#37474F"/>
<path d="M106.306 108.956L106.194 104.179L107.217 99.9914C109.83 99.7471 110.5 97.7686 110.5 97.7686C109.411 98.7692 108.012 99.3654 106.536 99.4575L105.489 104.036C105.489 104.036 105.877 106.437 106.306 108.956Z" fill="#263238"/>
<path d="M110.186 75.4705C110.961 75.8313 111.608 76.4176 112.043 77.1524C112.821 78.4191 115.909 86.5427 115.745 87.3209C115.581 88.0991 111.247 93.6614 111.247 93.6614C111.247 93.6614 109.701 91.805 109.461 90.8279C109.461 90.8279 111.247 87.5163 111.669 87.1569C111.669 87.1569 110.546 84.2362 110.221 83.2591C109.897 82.282 108.295 76.7755 110.186 75.4705Z" fill="#FFA8A7"/>
<path d="M100.991 68.2192C100.991 68.2192 100.039 69.4964 100.018 69.8314C99.997 70.1664 100.991 70.1455 100.991 70.1455V68.2192Z" fill="#F28F8F"/>
<path d="M101.609 73.1675C101.696 73.2424 101.796 73.2993 101.905 73.335C102.491 73.4716 103.105 73.4316 103.668 73.2198V75.5787H107.921C107.921 75.5787 107.775 73.7432 107.761 73.1116C107.747 72.48 108.86 70.8644 108.016 67.6156C107.171 64.3669 103.682 63.8783 102.083 65.0229C101.624 65.6978 101.252 66.4283 100.977 67.1969C100.712 68.1425 100.492 72.1974 101.609 73.1675Z" fill="#FFA8A7"/>
<path d="M99.5954 85.4471L98.8381 94.5722C98.8381 94.5722 99.9269 95.7587 104.421 95.7866H104.812C109.617 95.7412 112.262 92.817 112.262 92.817L109.858 86.6022C110.678 84.8609 111.25 83.0132 111.557 81.1131C111.61 80.7642 111.659 80.4152 111.694 80.0314C112.043 76.3918 110.441 75.2019 108.944 75.146C107.447 75.0902 102.771 75.8439 102.771 75.8439L98.4822 80.5443C98.4822 80.5443 98.224 82.6381 98.374 83.7268C98.5241 84.8155 99.5954 85.4471 99.5954 85.4471Z" fill="#FDC949"/>
<path opacity="0.2" d="M104.411 95.7692H104.798C109.604 95.7238 112.249 92.7996 112.249 92.7996L109.844 86.5847C110.665 84.8435 111.237 82.9958 111.544 81.0957C111.467 81.3574 110.235 85.5553 107.677 87.2757C107.677 87.2757 110.689 88.0573 110.235 90.8489C109.782 93.6406 107.182 95.2911 104.411 95.7692Z" fill="black"/>
<path d="M101.609 73.1675C101.696 73.2425 101.797 73.2994 101.906 73.335C102.491 73.4717 103.105 73.4316 103.668 73.2199L103.738 72.7488C103.738 72.7488 102.527 73.3874 101.605 73.171L101.609 73.1675Z" fill="#F28F8F"/>
<path d="M104.205 68.2263C104.347 68.1779 104.497 68.1594 104.646 68.172C104.794 68.1847 104.939 68.2281 105.07 68.2996C105.202 68.3712 105.317 68.4692 105.408 68.5876C105.499 68.7059 105.565 68.8419 105.601 68.987C105.653 69.1931 105.653 69.409 105.601 69.6151C105.399 70.484 104.83 71.1994 103.678 71.1261C103.678 71.1261 103.71 72.6545 104.879 73.0279C106.048 73.4013 107.785 73.1081 107.785 73.1081C108.111 72.6348 108.475 72.189 108.874 71.7751C109.394 71.2726 111.718 68.9172 111.554 66.806C111.39 64.6949 109.9 64.4506 109.9 64.4506C110.086 64.1737 110.181 63.8461 110.172 63.5129C110.163 63.1797 110.051 62.8575 109.851 62.5907C109.685 62.3396 109.43 62.1605 109.138 62.0893C108.845 62.0181 108.537 62.0601 108.274 62.2068C108.274 62.2068 108.065 60.8355 106.763 60.6889C106.403 60.6405 106.036 60.7022 105.712 60.866C105.387 61.0299 105.12 61.288 104.945 61.6066C104.945 61.6066 103.839 60.333 102.345 60.9087C102.144 60.9704 101.957 61.0723 101.797 61.2084C101.636 61.3444 101.505 61.5116 101.411 61.6999C101.317 61.8882 101.262 62.0937 101.25 62.3038C101.238 62.5139 101.269 62.7243 101.34 62.9222C101.34 62.9222 99.9445 62.3394 99.1314 63.5224C98.3184 64.7053 99.278 66.642 100.981 67.1934C101.159 66.68 101.435 66.2061 101.794 65.7976C101.794 65.7976 101.972 66.7397 102.509 66.8235C102.509 66.8235 101.892 68.317 102.802 68.8684C102.802 68.8684 102.363 70.0548 102.802 70.1037C102.802 70.1037 103.008 70.2921 103.151 69.6535C103.277 69.1894 103.602 68.4461 104.205 68.2263Z" fill="#263238"/>
<path d="M102.761 75.8194C103.069 76.7727 103.016 77.8064 102.611 78.7227C102.059 79.9873 101.031 80.983 99.7491 81.4934C98.5383 81.9715 90.9241 82.6868 90.46 82.6415C89.7621 82.5787 81.6454 77.7561 81.1046 77.5537C80.5637 77.3514 77.6604 76.4266 77.2905 75.809C77.1804 75.6567 77.1211 75.4735 77.1211 75.2855C77.1211 75.0976 77.1804 74.9144 77.2905 74.7621C77.2905 74.7621 77.1195 74.0642 77.6395 73.7885C77.6074 73.5759 77.6455 73.3586 77.7482 73.1697C77.8509 72.9807 78.0124 72.8305 78.2083 72.7417C78.2083 72.7417 76.6519 70.6131 76.5856 70.3548C76.5193 70.0966 77.3812 69.9012 78.3304 70.9864C78.7037 71.4488 79.1158 71.8784 79.5622 72.2706L81.0487 73.4989C81.0487 73.4989 81.6105 71.475 82.6016 71.6634C82.6016 71.6634 82.7621 71.7193 82.7132 72.0124C82.6644 72.3055 82.4725 72.8394 82.4131 73.3349C82.3922 73.8774 82.4085 74.4207 82.462 74.961C82.462 74.961 89.5946 78.5203 90.0692 78.5203C90.5438 78.5203 99.4211 75.8578 100.765 75.8334C102.108 75.809 102.761 75.8194 102.761 75.8194Z" fill="#FFA8A7"/>
</svg>
