<svg width="310" height="288" viewBox="0 0 310 288" fill="none" xmlns="http://www.w3.org/2000/svg">
<path d="M17 287C85.7834 268.167 313.797 306 308.923 240C307 172 -131.5 100 41.5 16" stroke="#ECC19A"/>
<g clip-path="url(#clip0)">
<path d="M141.185 202.505L138.281 208.263C132.371 211.425 121.201 210.822 114.486 209.826C100.173 207.678 88.9858 194.552 85.3242 181.103C81.8355 168.341 87.4234 157.338 89.8505 145.101C90.3279 142.634 90.617 140.135 90.7153 137.625C96.1558 136.872 101.412 135.124 106.221 132.47C113.061 128.657 117.11 123.717 121.332 117.828C124.061 123.726 125.871 130.008 126.699 136.455C128.083 146.419 126.89 156.837 126.395 166.759C125.68 180.679 126.699 195.596 141.185 202.505Z" fill="url(#paint0_linear)"/>
<path d="M121.308 117.828C117.086 123.717 113.037 128.657 106.197 132.47C101.388 135.124 96.1319 136.872 90.6913 137.625C91.1863 127.899 89.2601 117.499 86.2962 108.621C82.2469 96.4017 75.8361 86.1989 67.9761 76.1691C76.0329 79.3552 84.0777 81.1273 91.7111 85.4411C100.108 90.2144 106.757 96.3599 112.643 103.937C116.048 108.225 118.954 112.884 121.308 117.828Z" fill="url(#paint1_linear)"/>
<path d="M197.69 178.597C197.434 181.804 196.98 184.993 196.33 188.144C194.872 195.07 191.076 201.283 185.578 205.738C180.08 210.193 173.217 212.618 166.142 212.606H158.909C154.108 212.605 149.36 211.614 144.959 209.696C140.558 207.778 136.599 204.973 133.329 201.458C130.059 197.942 127.547 193.79 125.951 189.26C124.355 184.731 123.708 179.921 124.052 175.13C124.29 171.777 124.702 168.251 125.328 164.558C127.493 151.801 132.275 137.112 141.543 121.252L185.56 123.042C185.56 123.042 200.135 148.699 197.69 178.597Z" fill="#FF5F54"/>
<path d="M187.188 126.497L181.594 142.201C200.242 156.193 205.323 169.051 206.343 177.308C206.487 178.402 206.865 179.451 207.451 180.384C208.038 181.318 208.819 182.114 209.742 182.717C210.664 183.321 211.706 183.717 212.796 183.881C213.886 184.044 214.999 183.969 216.057 183.663C217.685 183.185 219.112 182.186 220.118 180.82C221.124 179.453 221.654 177.794 221.627 176.097C221.24 135.22 187.188 126.497 187.188 126.497Z" fill="#FF5F54"/>
<path d="M138.293 192.929L163.936 192.565L149.999 243.579C150.052 244.588 149.898 245.598 149.548 246.546C149.198 247.495 148.659 248.362 147.963 249.095C147.267 249.828 146.43 250.411 145.501 250.81C144.573 251.208 143.573 251.413 142.563 251.413C140.816 251.414 139.124 250.8 137.784 249.678C136.444 248.557 135.541 247 135.233 245.279L138.293 192.929Z" fill="#FF5F54"/>
<path d="M165.176 194.009L190.82 193.287L193.301 244.665C193.353 245.674 193.2 246.684 192.85 247.632C192.5 248.58 191.96 249.447 191.265 250.18C190.569 250.913 189.731 251.497 188.803 251.896C187.874 252.294 186.874 252.499 185.864 252.499C184.108 252.511 182.405 251.901 181.055 250.777C179.705 249.654 178.795 248.089 178.487 246.359L165.176 194.009Z" fill="#FF5F54"/>
<path d="M191.338 175.906C191.338 178.728 191.201 181.497 190.939 184.17C190.404 189.728 187.82 194.889 183.69 198.646C179.561 202.402 174.181 204.486 168.599 204.492C163.019 204.483 157.643 202.395 153.517 198.636C149.391 194.877 146.813 189.716 146.284 184.158C146.021 181.485 145.884 178.716 145.884 175.894C145.884 151.497 156.064 131.694 168.617 131.694C181.171 131.694 191.338 151.497 191.338 175.906Z" fill="#F6F0F4"/>
<path d="M197.69 178.597C195.519 179.611 193.378 180.5 191.303 181.282C172.744 188.126 157.37 185.244 145.98 179.874C138.169 176.161 131.154 170.963 125.328 164.57C127.493 151.813 132.275 137.123 141.543 121.264L185.56 123.054C185.56 123.054 200.135 148.699 197.69 178.597Z" fill="#FFA573"/>
<path d="M190.832 173.889C181.952 178.382 167.401 176.145 158.092 174.397C157.412 174.271 157.12 175.315 157.805 175.441C167.872 177.326 181.856 179.617 191.374 174.844C192 174.51 191.452 173.579 190.832 173.889Z" fill="#511812"/>
<path d="M209.921 154.385C209.921 154.385 203.427 147.887 181.23 150.327C181.23 150.327 165.803 153.573 160.394 149.242L131.434 182.547L132.788 186.342L201.799 189.033L236.984 151.938V148.46C236.984 148.46 235.791 148.734 234.175 149.057C230.58 149.779 226.928 150.178 223.261 150.25C219.725 150.327 213.964 151.043 209.921 154.385Z" fill="#F6F0F4"/>
<path d="M131.041 189.074L160.394 153.86L206.283 158.138H216.117L238.636 151.151L201.155 191.64L184.91 192.499H172.935L131.041 189.074Z" fill="#021E40"/>
<path d="M216.117 158.138L184.91 192.499H172.225L205.43 158.138H216.117Z" fill="#194070"/>
<path d="M143.022 126.939C144.716 127.563 146.165 128.716 147.154 130.228C148.144 131.74 148.62 133.53 148.514 135.334C147.286 154.922 153.434 167.452 158.127 173.358C158.804 174.229 159.284 175.235 159.536 176.308C159.788 177.381 159.805 178.496 159.586 179.576C159.368 180.656 158.919 181.677 158.27 182.568C157.62 183.458 156.787 184.198 155.825 184.737C154.344 185.564 152.633 185.882 150.954 185.643C149.274 185.404 147.72 184.62 146.528 183.412C127.045 163.895 128.751 143.687 131.917 132.619C132.232 131.489 132.778 130.438 133.519 129.53C134.261 128.622 135.182 127.878 136.225 127.344C137.269 126.81 138.411 126.499 139.581 126.429C140.751 126.359 141.922 126.533 143.022 126.939Z" fill="#FF5F54"/>
<path d="M122.585 89.4566L122.704 89.212C93.9714 53.8363 105.732 23.4724 105.732 23.4724C122.084 37.7146 128.28 62.2193 130.355 73.4543L140.416 52.7802C140.279 51.6346 133.593 22.1061 106.572 17.0405C106.596 17.0405 83.7975 68.8004 122.585 89.4566Z" fill="#FF5F54"/>
<path d="M122.704 89.212L130.379 73.4543C128.304 62.2193 122.108 37.7146 105.755 23.4724C105.732 23.4724 93.9714 53.8363 122.704 89.212Z" fill="url(#paint2_linear)"/>
<path d="M184.093 70.298L206.158 77.9591C204.673 72.4519 193.533 30.2743 195.501 6.43792C218.527 29.1108 220.477 53.5737 211.084 78.9495C214.167 74.9638 230.99 50.0594 203.588 12.5536L193.921 0.0238647C193.921 0.0238647 176.042 32.4879 184.093 70.298Z" fill="#FF5F54"/>
<path d="M195.477 6.45581C193.509 30.2922 204.649 72.4698 206.134 77.977L210.607 79.5283C210.607 79.5283 210.774 79.3433 211.06 78.9674C220.453 53.5916 218.503 29.1287 195.477 6.45581Z" fill="url(#paint3_linear)"/>
<path d="M110.765 95.3576C146.826 99.7609 171.438 90.0533 171.438 90.0533C204.476 100.065 221.872 98.9614 231.038 95.2502C233.584 92.0356 235.708 88.5086 237.359 84.755C237.359 84.755 232.255 87.3027 230.048 85.4829C230.048 85.4829 237.747 82.4042 239.351 79.1583C239.351 79.1583 230.483 83.8839 223.601 76.6285C223.601 76.6285 205.943 32.476 166.876 31.3543C166.22 31.3543 165.564 31.3065 164.908 31.2588C161.449 30.9843 146.826 30.8352 133.647 45.5248C133.647 45.5248 121.827 57.5534 112.715 91.4077C112.294 92.8258 111.635 94.1617 110.765 95.3576Z" fill="#FF5F54"/>
<path d="M96.9174 100.889C96.9174 100.889 105.749 114.558 140.404 126.097L151.448 129.081C167.097 133.236 183.753 131.052 197.803 123.001L198.167 122.804C198.167 122.804 218.843 111.026 231.014 95.28C221.848 98.9912 204.452 100.095 171.414 90.0831C171.414 90.0831 146.803 99.7907 110.741 95.3874C108.713 98.2931 104.592 101.676 96.9174 100.889Z" fill="url(#paint4_linear)"/>
<path d="M162.034 93.0963C161.831 95.638 165.015 97.9709 169.106 98.2991C173.197 98.6273 176.716 96.8433 176.919 94.3015C177.121 91.7598 173.937 89.4268 169.852 89.0927C165.767 88.7586 162.242 90.5843 162.034 93.0963Z" fill="#511812"/>
<path d="M202.407 103.156C202.198 105.698 205.389 108.025 209.474 108.359C213.559 108.693 217.083 106.903 217.286 104.355C217.489 101.807 214.304 99.4805 210.219 99.1523C206.134 98.8241 202.61 100.608 202.407 103.156Z" fill="#FFCDD4"/>
<path d="M122.895 102.631C122.626 105.167 125.727 107.583 129.824 108.001C133.921 108.418 137.47 106.742 137.744 104.206C138.018 101.67 134.917 99.2538 130.814 98.8361C126.711 98.4184 123.169 100.095 122.895 102.631Z" fill="#FFCDD4"/>
<path d="M141.644 93.9375C144.179 93.6392 145.819 90.0771 145.365 85.9841C144.912 81.891 142.443 78.8242 139.915 79.0987C137.386 79.3731 135.74 82.959 136.193 87.0521C136.647 91.1452 139.127 94.2358 141.644 93.9375Z" fill="#511812"/>
<path d="M197.314 93.2872C199.849 92.9948 201.489 89.4328 201.035 85.3337C200.582 81.2347 198.113 78.1739 195.585 78.4483C193.056 78.7228 191.41 82.3087 191.863 86.4077C192.317 90.5067 194.78 93.5676 197.314 93.2872Z" fill="#511812"/>
<path d="M154.967 98.6093V98.6392C157.949 107.696 165.743 106.282 165.826 106.264C166.108 106.21 166.356 106.046 166.517 105.808C166.677 105.57 166.737 105.278 166.682 104.997C166.628 104.715 166.463 104.466 166.226 104.306C165.988 104.145 165.696 104.086 165.415 104.14C165.147 104.188 159.38 105.155 157.024 97.965C156.927 97.7052 156.734 97.4925 156.485 97.3705C156.236 97.2485 155.95 97.2265 155.685 97.3089C155.42 97.3913 155.197 97.572 155.062 97.8138C154.926 98.0556 154.888 98.3403 154.955 98.6093H154.967Z" fill="#511812"/>
<path d="M103.942 111.73C103.453 111.229 102.684 111.992 103.173 112.494C119.674 129.337 120.974 158.287 114.319 179.868C114.293 180.002 114.319 180.141 114.391 180.258C114.463 180.374 114.576 180.458 114.708 180.495C114.84 180.531 114.981 180.516 115.102 180.453C115.223 180.39 115.316 180.283 115.363 180.154C122.119 158.162 120.73 128.896 103.942 111.73Z" fill="#511812"/>
<path d="M107.688 134.456C106.71 128.943 105.266 120.077 100.442 116.431C99.8812 116.014 99.3445 116.957 99.8931 117.368C105.809 121.837 107.103 136.318 107.58 142.78C108.117 149.975 107.795 157.195 107.425 164.397C107.389 165.095 108.475 165.089 108.511 164.397C109.017 154.426 109.435 144.325 107.688 134.456Z" fill="#511812"/>
</g>
<defs>
<linearGradient id="paint0_linear" x1="93" y1="140" x2="144" y2="203" gradientUnits="userSpaceOnUse">
<stop stop-color="#F6625A"/>
<stop offset="1" stop-color="#D95149"/>
</linearGradient>
<linearGradient id="paint1_linear" x1="75.9632" y1="88.0192" x2="119.346" y2="90.3795" gradientUnits="userSpaceOnUse">
<stop stop-color="#FFECEF"/>
<stop offset="1" stop-color="white"/>
</linearGradient>
<linearGradient id="paint2_linear" x1="107.4" y1="36.1486" x2="129.435" y2="36.7166" gradientUnits="userSpaceOnUse">
<stop stop-color="#FFECEF"/>
<stop offset="1" stop-color="white"/>
</linearGradient>
<linearGradient id="paint3_linear" x1="198.404" y1="20.546" x2="215.609" y2="20.8573" gradientUnits="userSpaceOnUse">
<stop stop-color="#FFECEF"/>
<stop offset="1" stop-color="white"/>
</linearGradient>
<linearGradient id="paint4_linear" x1="117" y1="98" x2="222" y2="119.5" gradientUnits="userSpaceOnUse">
<stop stop-color="#FFECEF"/>
<stop offset="1" stop-color="white"/>
</linearGradient>
<clipPath id="clip0">
<rect width="184" height="263" fill="white" transform="translate(68)"/>
</clipPath>
</defs>
</svg>
