<svg width="22" height="22" viewBox="0 0 22 22" fill="none" xmlns="http://www.w3.org/2000/svg">
<path fill-rule="evenodd" clip-rule="evenodd" d="M15.2858 1H18.5524C19.9039 1 21.0003 2.1059 21.0003 3.47018V6.7641C21.0003 8.12735 19.9039 9.23429 18.5524 9.23429H15.2858C13.9333 9.23429 12.8369 8.12735 12.8369 6.7641V3.47018C12.8369 2.1059 13.9333 1 15.2858 1Z" stroke="#200E32" stroke-width="1.5" stroke-linecap="round" stroke-linejoin="round"/>
<path fill-rule="evenodd" clip-rule="evenodd" d="M3.44892 1H6.71449C8.06703 1 9.16341 2.1059 9.16341 3.47018V6.7641C9.16341 8.12735 8.06703 9.23429 6.71449 9.23429H3.44892C2.09638 9.23429 1 8.12735 1 6.7641V3.47018C1 2.1059 2.09638 1 3.44892 1Z" stroke="#200E32" stroke-width="1.5" stroke-linecap="round" stroke-linejoin="round"/>
<path fill-rule="evenodd" clip-rule="evenodd" d="M3.44892 12.7656H6.71449C8.06703 12.7656 9.16341 13.8715 9.16341 15.2368V18.5297C9.16341 19.894 8.06703 20.9999 6.71449 20.9999H3.44892C2.09638 20.9999 1 19.894 1 18.5297V15.2368C1 13.8715 2.09638 12.7656 3.44892 12.7656Z" stroke="#200E32" stroke-width="1.5" stroke-linecap="round" stroke-linejoin="round"/>
<path fill-rule="evenodd" clip-rule="evenodd" d="M15.2858 12.7656H18.5524C19.9039 12.7656 21.0003 13.8715 21.0003 15.2368V18.5297C21.0003 19.894 19.9039 20.9999 18.5524 20.9999H15.2858C13.9333 20.9999 12.8369 19.894 12.8369 18.5297V15.2368C12.8369 13.8715 13.9333 12.7656 15.2858 12.7656Z" stroke="#200E32" stroke-width="1.5" stroke-linecap="round" stroke-linejoin="round"/>
</svg>
