<svg width="169" height="137" viewBox="0 0 169 137" fill="none" xmlns="http://www.w3.org/2000/svg">
<path d="M151.585 118.726H139.875C140.097 117.295 141.019 117.545 141.14 115.325C141.201 114.209 140.169 112.826 140.258 111.355C140.33 110.147 141.523 108.905 141.616 107.523C141.7 106.274 140.681 104.888 140.782 103.542C140.874 102.272 142.083 101.051 142.188 99.7296C142.293 98.4078 141.297 97.0377 141.414 95.7361C141.531 94.4345 142.764 93.2296 142.893 91.9441C143.022 90.6586 142.063 89.1999 142.212 87.9144C142.365 86.5725 143.635 85.4119 143.824 84.1748C144.017 82.8006 143.119 81.3257 143.328 80.145C143.586 78.6903 144.94 77.6345 145.226 76.5585C145.758 74.5436 145.694 72.6255 146.322 72.5006C146.951 72.3756 147.128 74.2616 147.652 76.3732C147.906 77.437 149.232 78.5129 149.454 79.9717C149.599 81.1484 148.672 82.5991 148.825 83.9692C148.962 85.1782 150.195 86.3871 150.316 87.7129C150.429 88.9702 149.425 90.3524 149.51 91.6661C149.595 92.9798 150.804 94.1605 150.888 95.4581C150.973 96.7557 149.937 98.1137 150.006 99.3911C150.074 100.669 151.255 101.942 151.315 103.207C151.38 104.541 150.324 105.887 150.376 107.128C150.433 108.498 151.585 109.756 151.638 110.957C151.69 112.411 150.618 113.757 150.65 114.865C150.723 117.283 151.827 116.775 151.859 118.71L151.585 118.726Z" fill="#7E57C2"/>
<path opacity="0.2" d="M151.585 118.726H139.875C140.097 117.295 141.019 117.545 141.14 115.325C141.201 114.209 140.169 112.826 140.258 111.355C140.33 110.147 141.523 108.905 141.616 107.523C141.7 106.274 140.681 104.888 140.782 103.542C140.874 102.272 142.083 101.051 142.188 99.7296C142.293 98.4078 141.297 97.0377 141.414 95.7361C141.531 94.4345 142.764 93.2296 142.893 91.9441C143.022 90.6586 142.063 89.1999 142.212 87.9144C142.365 86.5725 143.635 85.4119 143.824 84.1748C144.017 82.8006 143.119 81.3257 143.328 80.145C143.586 78.6903 144.94 77.6345 145.226 76.5585C145.758 74.5436 145.694 72.6255 146.322 72.5006C146.951 72.3756 147.128 74.2616 147.652 76.3732C147.906 77.437 149.232 78.5129 149.454 79.9717C149.599 81.1484 148.672 82.5991 148.825 83.9692C148.962 85.1782 150.195 86.3871 150.316 87.7129C150.429 88.9702 149.425 90.3524 149.51 91.6661C149.595 92.9798 150.804 94.1605 150.888 95.4581C150.973 96.7557 149.937 98.1137 150.006 99.3911C150.074 100.669 151.255 101.942 151.315 103.207C151.38 104.541 150.324 105.887 150.376 107.128C150.433 108.498 151.585 109.756 151.638 110.957C151.69 112.411 150.618 113.757 150.65 114.865C150.723 117.283 151.827 116.775 151.859 118.71L151.585 118.726Z" fill="white"/>
<path d="M146.555 76.361V118.186" stroke="black" stroke-width="0.60661" stroke-miterlimit="10"/>
<path d="M144.726 80.7454L146.632 82.3936L148.195 80.3142" stroke="black" stroke-width="0.60661" stroke-miterlimit="10"/>
<path d="M144.726 88.0273L146.632 89.6714L148.195 87.592" stroke="black" stroke-width="0.60661" stroke-miterlimit="10"/>
<path d="M144.726 94.8737L146.632 96.5179L148.195 94.4385" stroke="black" stroke-width="0.60661" stroke-miterlimit="10"/>
<path d="M144.726 103.018L146.632 104.666L148.195 102.587" stroke="black" stroke-width="0.60661" stroke-miterlimit="10"/>
<path d="M144.726 111.251L146.632 112.899L148.195 110.82" stroke="black" stroke-width="0.60661" stroke-miterlimit="10"/>
<path d="M159.56 118.726H150.521C150.695 117.622 151.404 117.815 151.5 116.103C151.545 115.24 150.747 114.172 150.815 113.036C150.876 112.105 151.795 111.146 151.867 110.078C151.932 109.115 151.146 108.063 151.222 107.007C151.299 105.952 152.226 105.081 152.31 104.062C152.395 103.042 151.621 101.986 151.71 100.979C151.799 99.9715 152.75 99.0447 152.85 98.0534C152.951 97.062 152.21 95.9337 152.327 94.9585C152.443 93.9833 153.423 93.0282 153.535 92.0732C153.685 91.0093 152.991 89.873 153.153 88.9542C153.35 87.8299 154.398 87.0159 154.62 86.1857C155.022 84.6423 154.978 83.1513 155.462 83.0546C155.945 82.9579 156.098 84.4126 156.489 86.0447C156.687 86.8506 157.698 87.6969 157.88 88.8212C158.017 89.7319 157.291 90.8361 157.412 91.8999C157.517 92.8469 158.468 93.7576 158.561 94.7893C158.649 95.7604 157.876 96.8283 157.952 97.8438C158.029 98.8593 158.951 99.766 159.016 100.769C159.08 101.773 158.283 102.817 158.335 103.804C158.387 104.791 159.298 105.774 159.346 106.75C159.395 107.725 158.581 108.821 158.621 109.776C158.665 110.836 159.56 111.791 159.592 112.734C159.633 113.858 158.786 114.894 158.835 115.748C158.891 117.606 159.741 117.223 159.77 118.718L159.56 118.726Z" fill="#7E57C2"/>
<path opacity="0.2" d="M159.56 118.726H150.521C150.695 117.622 151.404 117.815 151.5 116.103C151.545 115.24 150.747 114.172 150.815 113.036C150.876 112.105 151.795 111.146 151.867 110.078C151.932 109.115 151.146 108.063 151.222 107.007C151.299 105.952 152.226 105.081 152.31 104.062C152.395 103.042 151.621 101.986 151.71 100.979C151.799 99.9715 152.75 99.0447 152.85 98.0534C152.951 97.062 152.21 95.9337 152.327 94.9585C152.443 93.9833 153.423 93.0282 153.535 92.0732C153.685 91.0093 152.991 89.873 153.153 88.9542C153.35 87.8299 154.398 87.0159 154.62 86.1857C155.022 84.6423 154.978 83.1513 155.462 83.0546C155.945 82.9579 156.098 84.4126 156.489 86.0447C156.687 86.8506 157.698 87.6969 157.88 88.8212C158.017 89.7319 157.291 90.8361 157.412 91.8999C157.517 92.8469 158.468 93.7576 158.561 94.7893C158.649 95.7604 157.876 96.8283 157.952 97.8438C158.029 98.8593 158.951 99.766 159.016 100.769C159.08 101.773 158.283 102.817 158.335 103.804C158.387 104.791 159.298 105.774 159.346 106.75C159.395 107.725 158.581 108.821 158.621 109.776C158.665 110.836 159.56 111.791 159.592 112.734C159.633 113.858 158.786 114.894 158.835 115.748C158.891 117.606 159.741 117.223 159.77 118.718L159.56 118.726Z" fill="white"/>
<path d="M155.68 86.0244V118.311" stroke="black" stroke-width="0.60661" stroke-miterlimit="10"/>
<path d="M154.27 89.4095L155.74 90.6789L156.945 89.0751" stroke="black" stroke-width="0.60661" stroke-miterlimit="10"/>
<path d="M154.27 95.0269L155.74 96.3003L156.945 94.6965" stroke="black" stroke-width="0.60661" stroke-miterlimit="10"/>
<path d="M154.27 100.314L155.74 101.583L156.945 99.9794" stroke="black" stroke-width="0.60661" stroke-miterlimit="10"/>
<path d="M154.27 106.6L155.74 107.874L156.945 106.266" stroke="black" stroke-width="0.60661" stroke-miterlimit="10"/>
<path d="M154.27 112.959L155.74 114.229L156.945 112.625" stroke="black" stroke-width="0.60661" stroke-miterlimit="10"/>
<path d="M19.0968 118.726H7.75306C7.97067 117.34 8.86124 117.581 8.98213 115.434C9.03855 114.35 8.03918 113.016 8.1238 111.589C8.19634 110.417 9.35287 109.216 9.44153 107.874C9.52213 106.665 8.53483 105.323 8.63558 104.021C8.72423 102.788 9.89689 101.603 10.0017 100.326C10.1064 99.0486 9.13526 97.7188 9.2481 96.4575C9.36093 95.1962 10.5537 94.0396 10.6827 92.7864C10.8116 91.5331 9.87674 90.1267 10.0218 88.9017C10.1709 87.6041 11.4 86.4838 11.5652 85.2749C11.7506 83.9411 10.8801 82.5186 11.0857 81.366C11.3355 79.9556 12.6492 78.9482 12.9232 77.8924C13.439 75.9541 13.3746 74.0843 13.9831 73.9594C14.5916 73.8344 14.789 75.6639 15.2726 77.7111C15.5184 78.7427 16.8039 79.7823 17.0134 81.1968C17.1867 82.3412 16.276 83.7315 16.4251 85.0573C16.5581 86.2662 17.7549 87.3946 17.8718 88.6841C17.9806 89.893 17.0094 91.2389 17.1061 92.5123C17.2028 93.7858 18.3594 94.9302 18.44 96.1834C18.5206 97.4367 17.5212 98.7544 17.5897 99.9956C17.6582 101.237 18.7986 102.466 18.855 103.691C18.9155 104.98 17.8959 106.286 17.9483 107.487C18.0007 108.817 19.125 110.034 19.1573 111.194C19.2096 112.609 18.174 113.91 18.2062 114.982C18.2748 117.315 19.3426 116.832 19.3789 118.706L19.0968 118.726Z" fill="#7E57C2"/>
<path opacity="0.2" d="M19.0968 118.726H7.75306C7.97067 117.34 8.86124 117.581 8.98213 115.434C9.03855 114.35 8.03918 113.016 8.1238 111.589C8.19634 110.417 9.35287 109.216 9.44153 107.874C9.52213 106.665 8.53483 105.323 8.63558 104.021C8.72423 102.788 9.89689 101.603 10.0017 100.326C10.1064 99.0486 9.13526 97.7188 9.2481 96.4575C9.36093 95.1962 10.5537 94.0396 10.6827 92.7864C10.8116 91.5331 9.87674 90.1267 10.0218 88.9017C10.1709 87.6041 11.4 86.4838 11.5652 85.2749C11.7506 83.9411 10.8801 82.5186 11.0857 81.366C11.3355 79.9556 12.6492 78.9482 12.9232 77.8924C13.439 75.9541 13.3746 74.0843 13.9831 73.9594C14.5916 73.8344 14.789 75.6639 15.2726 77.7111C15.5184 78.7427 16.8039 79.7823 17.0134 81.1968C17.1867 82.3412 16.276 83.7315 16.4251 85.0573C16.5581 86.2662 17.7549 87.3946 17.8718 88.6841C17.9806 89.893 17.0094 91.2389 17.1061 92.5123C17.2028 93.7858 18.3594 94.9302 18.44 96.1834C18.5206 97.4367 17.5212 98.7544 17.5897 99.9956C17.6582 101.237 18.7986 102.466 18.855 103.691C18.9155 104.98 17.8959 106.286 17.9483 107.487C18.0007 108.817 19.125 110.034 19.1573 111.194C19.2096 112.609 18.174 113.91 18.2062 114.982C18.2748 117.315 19.3426 116.832 19.3789 118.706L19.0968 118.726Z" fill="white"/>
<path d="M14.2227 77.6951V118.202" stroke="black" stroke-width="0.60661" stroke-miterlimit="10"/>
<path d="M12.4557 81.9383L14.3013 83.5341L15.8125 81.5192" stroke="black" stroke-width="0.60661" stroke-miterlimit="10"/>
<path d="M12.4557 88.9903L14.3013 90.5861L15.8125 88.5712" stroke="black" stroke-width="0.60661" stroke-miterlimit="10"/>
<path d="M12.4557 95.6233L14.3013 97.2191L15.8125 95.2042" stroke="black" stroke-width="0.60661" stroke-miterlimit="10"/>
<path d="M12.4557 103.514L14.3013 105.109L15.8125 103.094" stroke="black" stroke-width="0.60661" stroke-miterlimit="10"/>
<path d="M12.4557 111.488L14.3013 113.084L15.8125 111.069" stroke="black" stroke-width="0.60661" stroke-miterlimit="10"/>
<path d="M26.8212 118.726H18.0645C18.2338 117.654 18.9229 117.843 19.0115 116.183C19.0599 115.349 18.2862 114.313 18.3547 113.217C18.4071 112.311 19.2976 111.384 19.3702 110.352C19.4306 109.417 18.669 108.382 18.7456 107.374C18.8221 106.367 19.7168 105.512 19.7973 104.521C19.8779 103.53 19.1324 102.506 19.2171 101.535C19.3017 100.564 20.2245 99.6652 20.3252 98.7142C20.426 97.7632 19.7047 96.663 19.8135 95.7161C19.9223 94.7691 20.8773 93.8462 21.0224 92.9234C21.1634 91.8918 20.4945 90.7917 20.6517 89.9011C20.8451 88.8131 21.8606 88.0233 22.0701 87.2213C22.4731 85.7223 22.4207 84.2796 22.8761 84.1869C23.3314 84.0942 23.4685 85.4885 23.8714 87.0722C24.0608 87.8782 25.0521 88.6841 25.2174 89.7601C25.3503 90.6426 24.6492 91.7145 24.762 92.7421C24.8668 93.6609 25.7896 94.5434 25.8782 95.5629C25.9629 96.5019 25.2133 97.5375 25.2859 98.5167C25.3584 99.496 26.253 100.383 26.3175 101.338C26.382 102.293 25.6042 103.32 25.6566 104.279C25.709 105.238 26.5915 106.185 26.6358 107.128C26.6802 108.071 25.8984 109.143 25.9347 110.062C25.979 111.086 26.8454 112.029 26.8776 112.923C26.9179 114.011 26.116 115.019 26.1402 115.849C26.1966 117.646 27.0187 117.275 27.0469 118.722L26.8212 118.726Z" fill="#7E57C2"/>
<path opacity="0.2" d="M26.8212 118.726H18.0645C18.2338 117.654 18.9229 117.843 19.0115 116.183C19.0599 115.349 18.2862 114.313 18.3547 113.217C18.4071 112.311 19.2976 111.384 19.3702 110.352C19.4306 109.417 18.669 108.382 18.7456 107.374C18.8221 106.367 19.7168 105.512 19.7973 104.521C19.8779 103.53 19.1324 102.506 19.2171 101.535C19.3017 100.564 20.2245 99.6652 20.3252 98.7142C20.426 97.7632 19.7047 96.663 19.8135 95.7161C19.9223 94.7691 20.8773 93.8462 21.0224 92.9234C21.1634 91.8918 20.4945 90.7917 20.6517 89.9011C20.8451 88.8131 21.8606 88.0233 22.0701 87.2213C22.4731 85.7223 22.4207 84.2796 22.8761 84.1869C23.3314 84.0942 23.4685 85.4885 23.8714 87.0722C24.0608 87.8782 25.0521 88.6841 25.2174 89.7601C25.3503 90.6426 24.6492 91.7145 24.762 92.7421C24.8668 93.6609 25.7896 94.5434 25.8782 95.5629C25.9629 96.5019 25.2133 97.5375 25.2859 98.5167C25.3584 99.496 26.253 100.383 26.3175 101.338C26.382 102.293 25.6042 103.32 25.6566 104.279C25.709 105.238 26.5915 106.185 26.6358 107.128C26.6802 108.071 25.8984 109.143 25.9347 110.062C25.979 111.086 26.8454 112.029 26.8776 112.923C26.9179 114.011 26.116 115.019 26.1402 115.849C26.1966 117.646 27.0187 117.275 27.0469 118.722L26.8212 118.726Z" fill="white"/>
<path d="M23.0586 87.0521V118.323" stroke="black" stroke-width="0.60661" stroke-miterlimit="10"/>
<path d="M21.694 90.3323L23.1206 91.5614L24.2852 90.0059" stroke="black" stroke-width="0.60661" stroke-miterlimit="10"/>
<path d="M21.694 95.7725L23.1206 97.0056L24.2852 95.4501" stroke="black" stroke-width="0.60661" stroke-miterlimit="10"/>
<path d="M21.694 100.894L23.1206 102.123L24.2852 100.568" stroke="black" stroke-width="0.60661" stroke-miterlimit="10"/>
<path d="M21.694 106.983L23.1206 108.212L24.2852 106.661" stroke="black" stroke-width="0.60661" stroke-miterlimit="10"/>
<path d="M21.694 113.137L23.1206 114.37L24.2852 112.814" stroke="black" stroke-width="0.60661" stroke-miterlimit="10"/>
<path d="M84.6532 136.727C38.0697 136.727 0.306396 132.64 0.306396 127.599C0.306396 122.559 38.0697 118.472 84.6532 118.472C131.237 118.472 169 122.559 169 127.599C169 132.64 131.237 136.727 84.6532 136.727Z" fill="#7E57C2"/>
<path opacity="0.5" d="M84.6532 136.727C38.0697 136.727 0.306396 132.64 0.306396 127.599C0.306396 122.559 38.0697 118.472 84.6532 118.472C131.237 118.472 169 122.559 169 127.599C169 132.64 131.237 136.727 84.6532 136.727Z" fill="white"/>
<path d="M132.697 74.7129L129.26 98.573L139.773 122.296L136.808 123.038L121.777 98.1016L120.431 83.675L106.141 94.2572L100.411 119.33L96.9734 118.996L100.278 89.1354L115.643 72.6214L116.723 70.127L132.697 74.7129Z" fill="#263238" stroke="#263238" stroke-linecap="round" stroke-linejoin="round"/>
<path d="M102.183 32.4971L103.352 29.644L100.229 26.4041L99.5918 26.6338L98.1612 27.2383L97.2223 28.2215L100.112 33.1096L102.183 32.4971Z" fill="white" stroke="#263238" stroke-linecap="round" stroke-linejoin="round"/>
<path d="M103.413 29.4708C103.413 29.4708 103.352 28.8945 103.296 27.9677C103.24 27.0408 103.699 26.2309 103.179 26.1744C102.911 26.1679 102.651 26.2676 102.457 26.4518C102.262 26.636 102.148 26.8898 102.139 27.1577C102.079 27.7339 102.023 28.7696 102.023 28.7696C101.607 29.14 101.305 29.6207 101.152 30.1558C100.922 31.0263 102.196 32.1264 102.196 32.1264L103.413 29.4708Z" fill="white" stroke="#263238" stroke-linecap="round" stroke-linejoin="round"/>
<path d="M111.766 46.4481L110.009 46.6013L102.122 32.5535L100.055 33.166L107.635 51.7513L111.363 50.8808L111.766 46.4481Z" fill="white" stroke="#263238" stroke-linecap="round" stroke-linejoin="round"/>
<path d="M134.559 44.3567C134.559 44.3567 140.918 50.8688 140.918 51.8642C140.918 52.8595 133.096 74.4308 132.742 75.007C132.387 75.5833 116.623 70.7274 116.623 70.5501C116.532 69.9302 116.633 69.2974 116.913 68.7367C117.384 67.6205 121.426 51.2154 121.426 51.2154L110.735 52.7305L111.255 46.3474C111.255 46.3474 123.945 43.8893 126.641 43.5266C129.336 43.1639 132.979 43.0108 134.559 44.3567Z" fill="white" stroke="#263238" stroke-linecap="round" stroke-linejoin="round"/>
<path d="M122.742 47.1855L121.433 51.2153L121.195 47.653" stroke="#263238" stroke-linecap="round" stroke-linejoin="round"/>
<path d="M134.092 42.5433C134.092 42.5433 135.966 43.2444 136.026 44.7677C136.087 46.2909 133.33 52.3275 133.33 52.3275C133.33 52.3275 130.284 48.87 129.756 48.5194C129.228 48.1688 124.425 48.9868 124.425 48.9868C124.425 48.9868 126.843 44.5944 129.522 43.1276C132.202 41.6607 134.092 42.5433 134.092 42.5433Z" fill="#7E57C2" stroke="#263238" stroke-linecap="round" stroke-linejoin="round"/>
<path d="M135.379 40.9032C134.775 42.485 134.003 43.9969 133.074 45.4125C131.49 47.8747 127.916 52.2631 127.859 50.9212C127.803 49.5792 129.967 44.7677 130.277 43.0107C130.588 41.2538 130.68 40.7823 130.68 40.7823C130.68 40.7823 134.44 41.6567 135.379 40.9032Z" fill="white" stroke="#263238" stroke-linecap="round" stroke-linejoin="round"/>
<path d="M139.164 49.5027C139.164 49.5027 137.077 47.4153 134.514 52.0656C131.951 56.716 124.21 74.3744 124.21 74.3744L126.1 74.4429C126.1 74.4429 134.59 55.503 135.465 53.6816C136.339 51.8601 137.689 49.2488 140.051 50.5827L139.164 49.5027Z" fill="white" stroke="#263238" stroke-linecap="round" stroke-linejoin="round"/>
<path d="M141.527 53.8186L144.355 74.0399L142.671 74.1044L140.314 53.8186H141.527Z" fill="white" stroke="#263238" stroke-linecap="round" stroke-linejoin="round"/>
<path d="M140.416 34.6329C140.416 34.6329 140.593 35.8015 140.299 36.273C140.005 36.7445 137.841 38.9085 137.547 38.3806C137.252 37.8527 136.902 34.923 137.486 34.105C138.07 33.2869 139.598 33.3434 140.416 34.6329Z" fill="#263238" stroke="#263238" stroke-linecap="round" stroke-linejoin="round"/>
<path d="M128.934 32.2271C128.934 32.2271 127.588 36.8573 127.588 37.8688C127.588 38.8803 128.644 41.4432 129.639 41.9711C130.635 42.499 131.046 42.3741 131.807 42.3257C132.569 42.2773 135.204 41.9711 136.2 41.153C136.715 40.7702 137.153 40.293 137.489 39.7467C138.425 39.7372 139.324 39.3811 140.012 38.7473C141.124 37.6955 141.301 36.2891 140.596 35.9265C139.891 35.5638 138.311 36.8654 138.311 36.8654L138.545 35.2857L130.107 31.4736C129.864 31.4906 129.629 31.5686 129.424 31.7003C129.219 31.832 129.051 32.0132 128.934 32.2271Z" fill="white" stroke="#263238" stroke-linecap="round" stroke-linejoin="round"/>
<path d="M130.984 34.8062C130.984 34.8062 130.634 35.7451 130.283 35.9184C129.933 36.0917 129.167 36.273 129.578 36.7244C129.828 37.0078 130.126 37.2463 130.456 37.4296" stroke="#263238" stroke-linecap="round" stroke-linejoin="round"/>
<path d="M130.749 39.259C130.749 39.259 132.272 40.1375 133.211 38.7916" stroke="#263238" stroke-linecap="round" stroke-linejoin="round"/>
<path d="M32.5593 32.6341C32.5593 32.6341 35.6582 32.9968 36.2949 28.8985C36.9316 24.8003 27.0265 23.8009 23.4521 23.9823C19.8777 24.1636 17.2624 27.0771 17.077 31.1754C16.8916 35.2736 19.1725 39.0092 19.4465 41.1933C19.7205 43.3775 17.1697 41.9993 17.1697 41.9993C17.1697 41.9993 17.077 44.6388 20.6312 46.0049C24.1855 47.3709 27.643 46.6416 28.3724 44.6388C29.1018 42.636 27.5665 39.6298 27.0063 38.6264C26.4462 37.623 28.2797 36.0796 28.5537 34.2581C28.7351 33.2497 28.6404 32.211 28.2797 31.2519C28.2797 31.2519 31.4673 32.7228 32.5593 32.6341Z" fill="#263238" stroke="#263238" stroke-linecap="round" stroke-linejoin="round"/>
<path d="M26.181 29.8939C26.181 29.8939 27.3899 31.393 24.2547 33.3152C21.1196 35.2374 19.3344 35.2414 18.6937 36.4544" stroke="white" stroke-width="0.75" stroke-linecap="round" stroke-linejoin="round"/>
<path d="M17.8008 34.4032C17.7243 34.8221 17.7134 35.2503 17.7685 35.6726" stroke="white" stroke-width="0.75" stroke-linecap="round" stroke-linejoin="round"/>
<path d="M24.043 28.4673C24.043 28.4673 23.9704 29.4667 21.1174 30.6797C19.3201 31.4413 18.3731 32.6059 17.9701 33.7544" stroke="white" stroke-width="0.75" stroke-linecap="round" stroke-linejoin="round"/>
<path d="M21.7969 45.1788C21.4948 45.4619 21.1022 45.629 20.6887 45.6503" stroke="white" stroke-width="0.75" stroke-linecap="round" stroke-linejoin="round"/>
<path d="M22.8281 36.2408C22.2679 36.785 21.9018 37.498 21.786 38.2704C21.6703 39.0428 21.8113 39.8319 22.1874 40.5164C22.5006 41.0878 22.6847 41.721 22.7264 42.3714C22.7682 43.0217 22.6667 43.6733 22.4292 44.2801" stroke="white" stroke-width="0.75" stroke-linecap="round" stroke-linejoin="round"/>
<path d="M34.4507 28.149C35.1559 28.016 35.6395 28.0604 35.8047 28.552" stroke="white" stroke-width="0.75" stroke-linecap="round" stroke-linejoin="round"/>
<path d="M22.8302 26.3437C22.8302 26.3437 24.4703 28.556 28.2502 29.0557C30.2369 29.3176 32.0906 28.7696 33.4688 28.3989" stroke="white" stroke-width="0.75" stroke-linecap="round" stroke-linejoin="round"/>
<path d="M35.5195 30.8933C35.5195 30.8933 34.3791 29.7529 33.2387 30.8208" stroke="white" stroke-width="0.75" stroke-linecap="round" stroke-linejoin="round"/>
<path d="M31.7767 43.0752C31.7767 43.0752 39.3325 44.8886 39.6831 45.3399C40.0337 45.7912 47.2429 57.4816 47.2429 57.4816L65.675 55.7609L65.8281 58.3278L44.6719 61.8538L40.5898 57.9772L39.0786 61.8538C39.0786 61.8538 43.5113 70.268 44.6195 75.6074C45.7277 80.9468 46.9366 93.6406 46.989 98.2224C47.0414 102.804 46.7875 107.592 45.6794 111.521C44.5712 115.45 41.6496 122.756 41.6496 122.756C41.6496 122.756 46.0299 125.121 47.8957 125.979C49.7615 126.838 49.0039 127.136 48.3994 127.289C47.795 127.442 44.0674 127.188 41.698 126.886C39.3285 126.584 37.366 127.088 37.366 126.181C37.366 125.274 38.5265 121.696 38.7764 120.588C39.0262 119.479 40.7913 110.163 40.7913 105.375C40.7913 100.588 38.8771 92.8346 38.8771 92.8346L36.6124 84.3721C36.6124 84.3721 37.366 97.3681 36.8622 100.995C36.3585 104.622 29.4596 123.509 29.4596 123.509C29.4596 123.509 32.5826 126.632 33.6908 128.244C34.799 129.856 34.4968 130.356 33.8923 130.211C29.0566 129.002 27.5092 126.886 26.7032 126.33C25.8973 125.774 26.7032 124.267 27.1062 123.259C27.5092 122.252 28.8189 109.405 29.2742 106.08C29.7296 102.756 30.4832 99.5844 30.4832 99.5844C30.4832 99.5844 24.5393 82.861 24.9422 76.2119C25.3452 69.5628 28.0129 60.9472 28.0129 60.9472C28.0129 60.9472 22.1214 50.5705 22.2222 49.6155C22.3229 48.6604 28.1137 43.5185 28.1137 43.5185L31.7767 43.0752Z" fill="white" stroke="#263238" stroke-linecap="round" stroke-linejoin="round"/>
<path d="M35.634 76.3126C39.8934 74.9747 42.5087 74.0237 44.036 73.4233C44.2737 74.1889 44.4752 74.9344 44.6163 75.6235C45.7245 80.963 46.9334 93.6567 46.9858 98.2385C47.0382 102.82 46.7843 107.608 45.6761 111.537C45.3175 112.806 44.7734 114.422 44.1972 116.03C42.6985 116.48 41.0871 116.37 39.6637 115.72C40.2077 112.395 40.788 108.144 40.788 105.391C40.788 100.608 38.8739 92.8507 38.8739 92.8507L36.6092 84.3882C36.6092 84.3882 37.3627 97.3842 36.859 101.011C36.585 103.002 34.3807 109.586 32.4504 115.115C31.0152 115.032 29.6078 114.684 28.2998 114.088C28.6746 110.791 29.0373 107.539 29.2347 106.088C29.686 102.764 30.4436 99.5925 30.4436 99.5925C30.4436 99.5925 25.08 84.5011 24.8866 77.2878C28.4976 77.7306 32.1616 77.3981 35.634 76.3126Z" fill="#263238" stroke="#263238" stroke-linecap="round" stroke-linejoin="round"/>
<path d="M41.6962 126.894C39.3308 126.592 37.3642 127.096 37.3642 126.189C37.4299 125.563 37.5554 124.945 37.739 124.343L40.7936 124.863C40.7936 124.863 40.9306 124.19 40.9951 123.517C41.0029 123.338 41.0702 123.167 41.1862 123.031C41.3022 122.894 41.4604 122.8 41.6358 122.764C41.6358 122.764 46.0161 125.129 47.8819 125.987C49.7477 126.846 48.9901 127.144 48.3856 127.297C47.7812 127.45 44.0657 127.196 41.6962 126.894Z" fill="#263238" stroke="#263238" stroke-linecap="round" stroke-linejoin="round"/>
<path d="M29.0558 123.989C29.2559 123.856 29.4925 123.788 29.7328 123.795C30.5146 124.601 32.7793 126.931 33.6901 128.252C34.7982 129.864 34.496 130.364 33.8915 130.219C29.0558 129.01 27.5084 126.894 26.7025 126.338C26.1786 125.975 26.3317 125.206 26.6178 124.432C27.0658 124.757 27.545 125.036 28.0484 125.266C28.3023 125.266 28.5159 124.323 29.0558 123.989Z" fill="#263238" stroke="#263238" stroke-linecap="round" stroke-linejoin="round"/>
<path d="M60.7913 56.5184L63.2615 54.6527L66.8883 54.4512V55.2571L65.2764 55.6601L65.0749 56.1638L69.0039 56.5668L68.9032 58.078L64.9742 59.6899L60.9444 59.0854L60.7913 56.5184Z" fill="white" stroke="#263238" stroke-linecap="round" stroke-linejoin="round"/>
<path d="M28.0947 43.5265L31.7739 43.0752C31.7739 43.0752 39.3297 44.8886 39.6803 45.3399C40.0309 45.7912 47.2401 57.4816 47.2401 57.4816L60.7922 56.5185L60.9453 59.0854L44.6732 61.8619L40.591 57.9853L39.0799 61.8619C39.0799 61.8619 43.5126 70.276 44.6208 75.6155C44.7094 76.0184 44.7981 76.502 44.8827 77.0057C38.9045 80.371 31.9285 81.513 25.1893 80.2295C24.9709 78.9089 24.8831 77.5699 24.9274 76.232C25.3303 69.5829 27.998 60.9673 27.998 60.9673C27.998 60.9673 22.1065 50.5907 22.2073 49.6356C22.308 48.6806 28.0947 43.5265 28.0947 43.5265Z" fill="#7E57C2" stroke="#263238" stroke-linecap="round" stroke-linejoin="round"/>
<path d="M36.1445 58.1787C36.1445 58.1787 33.6985 61.6443 31.8649 62.2528" stroke="#263238" stroke-linecap="round" stroke-linejoin="round"/>
<path d="M32.4799 51.0824C31.4402 50.5867 27.3178 46.835 25.9074 45.5334C27.0881 44.4212 28.0955 43.5185 28.0955 43.5185L31.7747 43.0672L33.3181 43.446C33.7297 44.9902 34.022 46.5638 34.1926 48.1527C34.5955 51.7876 33.7372 51.6868 32.4799 51.0824Z" fill="white" stroke="#263238" stroke-linecap="round" stroke-linejoin="round"/>
<path d="M31.975 41.0603C31.9924 42.0744 32.1112 43.0842 32.3296 44.0746C32.6842 45.5857 33.5909 49.4624 33.0348 49.5631C32.4787 49.6639 27.6954 44.3244 27.6954 44.3244L27.1916 39.9441L31.975 41.0603Z" fill="white" stroke="#263238" stroke-linecap="round" stroke-linejoin="round"/>
<path d="M39.0773 48.7169C39.0773 48.7169 38.775 50.7318 38.8758 51.0824C38.9765 51.433 41.1445 53.2988 41.1445 54.6608C41.0809 55.786 40.8945 56.9008 40.5884 57.9854" stroke="#263238" stroke-linecap="round" stroke-linejoin="round"/>
<path d="M53.0674 27.7769L112.057 28.8478C112.93 28.8636 113.624 29.5836 113.608 30.4559L112.885 70.3076C112.869 71.1799 112.149 71.8742 111.277 71.8583L52.2866 70.7875C51.4143 70.7716 50.72 70.0517 50.7359 69.1794L51.4593 29.3277C51.4752 28.4554 52.1951 27.7611 53.0674 27.7769Z" fill="#7E57C2" stroke="#263238" stroke-width="2" stroke-linecap="round" stroke-linejoin="round"/>
<path d="M113.613 30.4621L83.2733 53.1778C82.8099 53.5254 82.2423 53.7055 81.6633 53.6887C81.0843 53.6719 80.5281 53.4591 80.0857 53.0851L51.5712 28.9711" fill="#7E57C2"/>
<path d="M113.613 30.4621L83.2733 53.1778C82.8099 53.5254 82.2423 53.7055 81.6633 53.6887C81.0843 53.6719 80.5281 53.4591 80.0857 53.0851L51.5712 28.9711" stroke="#263238" stroke-width="2" stroke-linecap="round" stroke-linejoin="round"/>
<path d="M140.299 35.9184L129.044 30.8812C129.044 30.8812 130.805 27.0731 131.683 26.0778C132.562 25.0824 136.019 24.7278 138.187 25.6063C140.355 26.4848 142.217 28.8301 142.346 30.0028C142.475 31.1754 140.299 35.9184 140.299 35.9184Z" fill="#263238" stroke="#263238" stroke-linecap="round" stroke-linejoin="round"/>
<path d="M123.191 29.769C123.191 29.769 123.135 30.8207 124.714 31.6428C126.294 32.4649 129.167 32.5213 128.466 31.526C127.765 30.5306 123.485 29.5312 123.191 29.769Z" fill="#263238" stroke="#263238" stroke-linecap="round" stroke-linejoin="round"/>
<path d="M138.543 35.2776C137.559 35.7367 136.484 35.9688 135.398 35.9569C134.312 35.9451 133.243 35.6895 132.269 35.2091C128.928 33.569 127.522 31.4574 125.648 30.6958C123.774 29.9342 122.368 29.7005 123.48 29.4869C124.592 29.2733 129.045 30.8812 129.045 30.8812L138.543 35.2776Z" fill="#7E57C2" stroke="#263238" stroke-linecap="round" stroke-linejoin="round"/>
<path d="M134.686 31.0343C134.861 31.1049 135.056 31.1049 135.23 31.0343C135.321 30.9983 135.404 30.9439 135.473 30.8746C135.543 30.8053 135.597 30.7225 135.633 30.6314L136.036 29.5877C136.106 29.4084 136.102 29.2091 136.027 29.0323C135.952 28.8554 135.81 28.7149 135.633 28.6407L133.594 27.8347C133.505 27.7978 133.41 27.7788 133.314 27.7788C133.218 27.7788 133.123 27.7978 133.034 27.8347C132.942 27.8704 132.859 27.9246 132.79 27.994C132.721 28.0633 132.667 28.1463 132.631 28.2377L132.228 29.2774C132.191 29.3661 132.172 29.4613 132.172 29.5574C132.172 29.6536 132.191 29.7487 132.228 29.8375C132.265 29.9281 132.32 30.0103 132.389 30.0795C132.458 30.1487 132.54 30.2034 132.631 30.2405L134.67 31.0464L134.686 31.0343ZM133.509 27.9758L135.548 28.7817C135.687 28.8374 135.799 28.9456 135.858 29.083C135.918 29.2203 135.921 29.3756 135.867 29.5151L135.464 30.5548C135.408 30.6951 135.3 30.808 135.162 30.8691C135.093 30.8981 135.02 30.913 134.946 30.913C134.872 30.913 134.799 30.8981 134.73 30.8691L132.691 30.0632C132.622 30.0361 132.559 29.9955 132.506 29.944C132.452 29.8924 132.409 29.8307 132.38 29.7626C132.35 29.6945 132.334 29.6211 132.333 29.5469C132.332 29.4726 132.346 29.3988 132.373 29.3298L132.776 28.2901C132.83 28.1513 132.938 28.0398 133.074 27.9798C133.211 27.9229 133.364 27.9215 133.501 27.9758H133.509Z" fill="white"/>
<path d="M134.038 29.5877C134.077 29.6019 134.119 29.6019 134.158 29.5877L135.895 29.088C135.912 29.0824 135.927 29.0707 135.936 29.055C135.945 29.0394 135.947 29.021 135.944 29.0034C135.941 28.9942 135.937 28.9855 135.931 28.978C135.926 28.9705 135.918 28.9643 135.91 28.9597C135.902 28.9552 135.892 28.9524 135.883 28.9516C135.873 28.9508 135.864 28.952 135.855 28.955L134.13 29.4587C134.119 29.4621 134.107 29.4616 134.096 29.4572C134.085 29.4528 134.076 29.4448 134.07 29.4346L133.203 27.8871C133.194 27.8718 133.179 27.8607 133.162 27.8562C133.145 27.8516 133.126 27.8541 133.111 27.863C133.102 27.8667 133.095 27.8723 133.089 27.8792C133.083 27.886 133.078 27.8941 133.076 27.9029C133.073 27.9117 133.072 27.9209 133.073 27.93C133.075 27.9391 133.078 27.9479 133.082 27.9556L133.949 29.5031C133.968 29.5407 133.999 29.5706 134.038 29.5877Z" fill="white"/>
<path d="M99.7653 28.9509C99.9032 28.9509 100.035 28.8961 100.133 28.7986C100.23 28.7012 100.285 28.5689 100.285 28.4311V26.6338C100.285 26.4959 100.23 26.3637 100.133 26.2662C100.035 26.1687 99.9032 26.114 99.7653 26.114C99.6274 26.114 99.4952 26.1687 99.3977 26.2662C99.3002 26.3637 99.2455 26.4959 99.2455 26.6338V28.4311C99.2455 28.5689 99.3002 28.7012 99.3977 28.7986C99.4952 28.8961 99.6274 28.9509 99.7653 28.9509Z" fill="white" stroke="#263238" stroke-linecap="round" stroke-linejoin="round"/>
<path d="M96.3655 28.7615C96.432 28.7777 96.5009 28.7807 96.5685 28.7702C96.6361 28.7598 96.7009 28.7361 96.7593 28.7005C96.8177 28.6649 96.8685 28.6182 96.9088 28.563C96.9491 28.5078 96.9781 28.4451 96.9942 28.3787L97.3367 26.9683C97.3529 26.9018 97.3559 26.8329 97.3454 26.7653C97.335 26.6978 97.3113 26.6329 97.2757 26.5745C97.2402 26.5161 97.1934 26.4653 97.1382 26.425C97.083 26.3847 97.0203 26.3557 96.9539 26.3396C96.8875 26.3234 96.8185 26.3204 96.7509 26.3309C96.6834 26.3414 96.6185 26.3651 96.5601 26.4006C96.5018 26.4362 96.4509 26.4829 96.4106 26.5381C96.3703 26.5934 96.3413 26.656 96.3252 26.7224L95.9827 28.1329C95.9665 28.1993 95.9635 28.2682 95.974 28.3358C95.9845 28.4034 96.0082 28.4682 96.0437 28.5266C96.0793 28.585 96.126 28.6358 96.1812 28.6761C96.2365 28.7164 96.2991 28.7454 96.3655 28.7615Z" fill="white" stroke="#263238" stroke-linecap="round" stroke-linejoin="round"/>
<path d="M97.2112 28.7616C97.3459 28.7944 97.4881 28.7726 97.6066 28.7009C97.7252 28.6291 97.8105 28.5133 97.8439 28.3788L98.2469 26.6339C98.2631 26.5675 98.2661 26.4985 98.2556 26.4309C98.2451 26.3634 98.2214 26.2985 98.1859 26.2401C98.1503 26.1817 98.1036 26.1309 98.0484 26.0906C97.9931 26.0503 97.9305 26.0213 97.864 26.0052C97.7294 25.9724 97.5872 25.9942 97.4686 26.066C97.35 26.1377 97.2647 26.2535 97.2314 26.3881L96.8082 28.1329C96.7929 28.2007 96.7911 28.2709 96.8031 28.3393C96.8151 28.4078 96.8406 28.4732 96.8781 28.5317C96.9156 28.5902 96.9643 28.6406 97.0215 28.6801C97.0787 28.7196 97.1432 28.7473 97.2112 28.7616Z" fill="white" stroke="#263238" stroke-linecap="round" stroke-linejoin="round"/>
<path d="M98.4201 28.8099C98.5562 28.8309 98.6951 28.7974 98.8068 28.7167C98.9184 28.636 98.9937 28.5146 99.0165 28.3787L99.2986 26.6056C99.3195 26.4695 99.2861 26.3306 99.2054 26.219C99.1247 26.1073 99.0032 26.032 98.8674 26.0092C98.7313 25.9883 98.5924 26.0217 98.4807 26.1024C98.3691 26.1831 98.2938 26.3046 98.271 26.4404L97.9849 28.2135C97.974 28.2813 97.9766 28.3505 97.9927 28.4173C98.0087 28.484 98.0378 28.5469 98.0782 28.6024C98.1187 28.6578 98.1697 28.7047 98.2284 28.7403C98.2871 28.776 98.3522 28.7996 98.4201 28.8099Z" fill="white" stroke="#263238" stroke-linecap="round" stroke-linejoin="round"/>
<path d="M26.3614 51.038L29.1097 62.0634L46.9414 66.75L46.8931 68.7125L26.4904 65.6902C26.4904 65.6902 21.5056 51.6385 21.4049 50.4295C21.3041 49.2206 24.0242 47.4556 24.0242 47.4556" fill="#7E57C2"/>
<path d="M26.3614 51.038L29.1097 62.0634L46.9414 66.75L46.8931 68.7125L26.4904 65.6902C26.4904 65.6902 21.5056 51.6385 21.4049 50.4295C21.3041 49.2206 24.0242 47.4556 24.0242 47.4556" stroke="#263238" stroke-linecap="round" stroke-linejoin="round"/>
<path d="M46.9361 66.7501C46.9361 66.7501 50.0592 65.1382 50.5146 64.9851C50.9699 64.832 53.6376 65.9925 54.4436 66.0449C55.2495 66.0973 55.9547 65.9925 55.6001 66.4963C55.4552 66.7043 55.2575 66.87 55.0273 66.9762C54.7971 67.0825 54.5428 67.1254 54.2904 67.1007C53.7867 67.1007 51.7718 66.8509 51.4696 66.8509C51.1674 66.8509 52.3763 67.7576 53.2346 68.5111C54.093 69.2647 55.9023 70.526 55.9023 70.7799C55.9023 71.0338 55.3986 71.1829 54.9473 71.1305C54.496 71.0781 53.8875 70.9814 53.5369 70.9814C53.1863 70.9814 51.4696 71.1829 50.8168 70.8283C50.164 70.4736 47.7421 68.9141 47.7421 68.9141L46.8878 68.7126L46.9361 66.7501Z" fill="white" stroke="#263238" stroke-linecap="round" stroke-linejoin="round"/>
<path d="M32.8353 30.994C32.8353 30.994 34.8502 36.6357 34.3828 38.3725C33.9153 40.1093 32.1986 42.0597 30.6512 42.1484C29.1038 42.237 26.0976 41.1933 25.7309 40.3753C25.3642 39.5572 25.0015 38.6425 25.0015 38.6425C25.0015 38.6425 23.4541 38.6425 23.1801 37.8365C22.906 37.0306 22.9101 36.2891 23.6354 35.8217C24.1036 35.5489 24.6536 35.4518 25.1869 35.5476C25.1869 35.5476 26.9156 34.7417 27.0083 32.9081C27.0613 31.8075 26.9691 30.7046 26.7343 29.6279C27.6285 30.1479 28.5737 30.5746 29.5551 30.9013C30.6295 31.1648 31.7478 31.1964 32.8353 30.994Z" fill="white" stroke="#263238" stroke-linecap="round" stroke-linejoin="round"/>
<path d="M31.8882 33.5972C32.0292 34.0405 32.2911 34.3548 32.4725 34.2984C32.6538 34.2419 32.686 33.8349 32.545 33.3876C32.404 32.9403 32.142 32.626 31.9607 32.6865C31.7793 32.7469 31.7471 33.1378 31.8882 33.5972Z" fill="#263238"/>
<path d="M28.9663 34.4394C29.1073 34.8827 29.3693 35.2011 29.5506 35.1406C29.7319 35.0802 29.7642 34.6772 29.6231 34.2299C29.4821 33.7826 29.2202 33.4723 29.0388 33.5287C28.8575 33.5851 28.8252 34.0002 28.9663 34.4394Z" fill="#263238"/>
<path d="M31.2434 33.4602C31.2434 33.4602 31.3119 34.7417 32.0977 35.2414L32.4523 35.467C32.5379 35.5217 32.6093 35.5958 32.6608 35.6832C32.7124 35.7707 32.7425 35.8691 32.7488 35.9705C32.755 36.0718 32.7373 36.1732 32.697 36.2664C32.6567 36.3595 32.595 36.4419 32.5168 36.5067C32.3 36.7029 32.0315 36.833 31.7431 36.8815" stroke="#263238" stroke-linecap="round" stroke-linejoin="round"/>
<path d="M32.3828 38.433C32.3828 38.433 30.5291 39.3598 29.3887 38.1469" stroke="#263238" stroke-linecap="round" stroke-linejoin="round"/>
<path d="M32.457 31.9612C32.457 31.9612 31.7438 31.1754 31.099 31.8887" stroke="#263238" stroke-linecap="round" stroke-linejoin="round"/>
<path d="M29.7461 32.3883C29.7461 32.3883 28.6057 31.6065 28.2511 32.9605" stroke="#263238" stroke-linecap="round" stroke-linejoin="round"/>
<path d="M136.807 123.058L129.046 129.239C129.046 129.239 129.11 129.642 130.053 129.642C130.996 129.642 140.365 127.285 140.841 127.285C141.316 127.285 141.445 126.946 141.445 126.612C141.445 126.278 139.761 122.296 139.761 122.296L136.807 123.058Z" fill="#7E57C2" stroke="#263238" stroke-linecap="round" stroke-linejoin="round"/>
<path d="M141.457 126.612C141.457 126.946 141.324 127.285 140.853 127.285C140.381 127.285 131.012 129.642 130.065 129.642C129.118 129.642 129.057 129.239 129.057 129.239L141.211 125.842C141.318 126.09 141.4 126.348 141.457 126.612Z" fill="white" stroke="#263238" stroke-linecap="round" stroke-linejoin="round"/>
<path d="M100.411 119.33C100.411 119.33 100.479 123.711 100.411 124.118C100.342 124.525 100.141 124.589 99.8065 124.589C99.472 124.589 89.1559 124.319 88.9544 123.981C88.9041 123.891 88.8899 123.786 88.9146 123.686C88.9393 123.587 89.0011 123.5 89.0873 123.445L96.5706 119.6L96.9736 118.996L100.411 119.33Z" fill="#7E57C2" stroke="#263238" stroke-linecap="round" stroke-linejoin="round"/>
<path d="M100.409 124.118C100.341 124.52 100.139 124.589 99.805 124.589C99.4705 124.589 89.1543 124.319 88.9528 123.98C88.9026 123.891 88.8884 123.786 88.9131 123.686C88.9378 123.587 88.9996 123.5 89.0858 123.445L89.4888 123.243L100.434 123.461C100.434 123.787 100.434 124.033 100.409 124.118Z" fill="white" stroke="#263238" stroke-linecap="round" stroke-linejoin="round"/>
<path d="M144.693 73.8344L126.225 73.4314L125.415 89.8768H146.039L144.693 73.8344Z" fill="white" stroke="#263238" stroke-linecap="round" stroke-linejoin="round"/>
<path d="M126.223 73.4314L124.401 73.5644C124.401 73.5644 121.911 89.1354 122.112 89.1354C122.314 89.1354 125.413 89.8768 125.413 89.8768L126.223 73.4314Z" fill="white" stroke="#263238" stroke-linecap="round" stroke-linejoin="round"/>
<path d="M144.691 73.8342L136.201 83.3727L126.513 73.4796" stroke="#263238" stroke-linecap="round" stroke-linejoin="round"/>
<path d="M127.998 64.3403L125.983 65.9804L108.494 70.0827C108.033 69.7277 107.602 69.3355 107.205 68.91C107.088 68.6763 104.452 68.9705 104.158 68.9705C103.864 68.9705 103.352 68.7932 103.352 69.0873C103.352 69.3815 103.352 69.7321 103.642 69.8933C103.932 70.0545 105.166 70.0101 105.343 70.0666C105.52 70.123 106.455 70.4171 106.455 70.4171L101.241 72.3514C101.467 72.6141 101.74 72.8327 102.046 72.9962C102.449 73.1735 104.098 73.0566 104.098 73.0566C104.92 73.3492 105.761 73.5835 106.616 73.7578C107.261 73.8183 109.546 72.8229 109.546 72.8229C109.546 72.8229 123.96 71.5898 125.665 71.1788C127.369 70.7677 131.629 67.8502 131.629 67.8502L127.998 64.3403Z" fill="white" stroke="#263238" stroke-linecap="round" stroke-linejoin="round"/>
<path d="M138.838 50.6269C140.418 50.3932 142.413 52.5612 141.824 55.785C141.236 59.0088 133.974 70.7878 133.974 70.7878L126.942 64.6907C126.942 64.6907 137.255 50.8647 138.838 50.6269Z" fill="white" stroke="#263238" stroke-linecap="round" stroke-linejoin="round"/>
<path d="M38.1537 9.44295C39.6447 8.637 40.3217 9.30594 40.8657 8.637C41.4097 7.96806 39.3747 6.19497 43.4407 4.43397C43.4407 4.43397 43.7107 0.637942 49.2718 0.50093C54.8329 0.363918 53.3378 4.29696 54.8328 5.24798C56.3279 6.199 56.7309 4.70396 58.2219 5.65096C59.7129 6.59795 59.0278 8.49596 60.2569 8.76999C61.486 9.04401 63.1019 7.56106 64.5929 8.49596C66.0839 9.43086 66.0839 10.261 66.765 10.261C67.446 10.261 68.7798 9.71698 69.61 10.261C70.4401 10.805 71.375 11.4699 71.375 11.4699H37.0697C37.0697 11.4699 36.6627 10.257 38.1537 9.44295Z" fill="#7E57C2"/>
<path opacity="0.5" d="M38.1537 9.44295C39.6447 8.637 40.3217 9.30594 40.8657 8.637C41.4097 7.96806 39.3747 6.19497 43.4407 4.43397C43.4407 4.43397 43.7107 0.637942 49.2718 0.50093C54.8329 0.363918 53.3378 4.29696 54.8328 5.24798C56.3279 6.199 56.7309 4.70396 58.2219 5.65096C59.7129 6.59795 59.0278 8.49596 60.2569 8.76999C61.486 9.04401 63.1019 7.56106 64.5929 8.49596C66.0839 9.43086 66.0839 10.261 66.765 10.261C67.446 10.261 68.7798 9.71698 69.61 10.261C70.4401 10.805 71.375 11.4699 71.375 11.4699H37.0697C37.0697 11.4699 36.6627 10.257 38.1537 9.44295Z" fill="white"/>
<path d="M104.06 16.4507C104.946 15.9671 105.349 16.3701 105.672 15.9671C105.994 15.5642 104.789 14.5205 107.203 13.4727C107.203 13.4727 107.36 11.2241 110.657 11.1435C113.953 11.0629 113.074 13.3962 113.957 13.9643C114.839 14.5325 115.081 13.642 115.972 14.2061C116.862 14.7703 116.455 15.8946 117.181 16.0558C117.906 16.217 118.869 15.3304 119.752 15.8946C120.634 16.4588 120.638 16.9383 121.037 16.9383C121.436 16.9383 122.246 16.62 122.726 16.9383C123.205 17.2567 123.773 17.6637 123.773 17.6637H103.431C103.431 17.6637 103.177 16.9302 104.06 16.4507Z" fill="white"/>
</svg>
