<svg width="166" height="162" viewBox="0 0 166 162" fill="none" xmlns="http://www.w3.org/2000/svg">
<path d="M40.995 145.055C40.995 145.055 35.3385 145.024 29.0656 136.286C23.5847 128.644 33.9888 104.984 39.8208 99.5417C45.6529 94.0998 57.0049 123.822 55.6864 131.351C53.81 142.079 45.7231 144.782 40.995 145.055Z" fill="#FFC100"/>
<path d="M31.8147 130.356L40.5218 139.012L39.644 161.069H42.5269C42.562 160.917 42.4528 145.722 42.3592 128L49.0339 121.598C48.5267 121.598 49.424 120.732 49.5254 120.646L42.328 125.632C42.2694 114.557 42.2148 105.639 42.2148 105.639L41.5634 104.823L41.2006 116.667L35.0447 112.235C35.1344 112.321 36.0434 113.187 35.5362 113.187L41.1381 118.758L40.6154 135.821L31.1125 128.983C31.2412 129.115 32.5442 130.356 31.8147 130.356Z" stroke="#263238" stroke-miterlimit="10"/>
<path d="M15.115 152.237C15.115 152.237 8.23352 151.742 4.8006 145.215C1.09461 138.158 10.1333 121.419 14.7522 120.178C19.8235 118.809 27.8284 132.186 26.19 142.578C25.0665 149.67 18.2943 152.058 15.115 152.237Z" fill="#FFC100"/>
<path d="M9.95005 139.442L14.7483 143.253C14.8966 134.304 15.0214 127.157 15.0214 127.157L15.6105 126.486L15.8289 135.626V135.825L19.9016 132.63C19.9016 132.63 19.2501 133.294 19.5856 133.298L15.8796 137.327L16.1293 147.837L22.2812 142.996C22.2812 142.996 21.3606 143.936 21.8326 143.94L16.1878 150.08L16.219 151.293L16.2541 152.6L16.4453 160.89L14.4558 160.866C14.5026 158.202 14.5455 155.405 14.5884 152.612C14.6274 150.232 14.6742 147.848 14.7054 145.559C14.7054 145.387 14.7054 145.227 14.7054 145.059L10.2972 140.234C10.703 140.238 9.95005 139.442 9.95005 139.442Z" stroke="#263238" stroke-miterlimit="10"/>
<path d="M23.6854 157.367C24.3251 156.852 25.4759 156.863 26.4863 156.906C26.4122 156.263 26.143 155.627 26.065 154.979C26.0031 154.645 26.0366 154.3 26.1614 153.984C26.2863 153.669 26.4976 153.394 26.7711 153.193C27.879 152.412 29.8295 152.717 31.3587 153.161C31.148 151.648 32.7592 150.173 34.9165 149.939C37.0737 149.705 39.4729 150.758 40.1048 152.237C40.9787 151.402 42.7224 151.066 44.1775 151.457C45.6326 151.847 46.6664 152.935 46.5923 153.984C47.708 153.91 48.9524 153.86 49.877 154.339C51.2345 155.049 51.1409 156.485 52.1864 157.413C52.5241 157.349 52.873 157.377 53.1959 157.495C53.5188 157.614 53.8036 157.817 54.0199 158.084C54.3749 158.549 54.4373 159.079 54.6518 159.579C55.0887 160.577 56.5399 160.702 57.9248 161.139L23.2679 161.428C22.515 161.186 21.8714 160.671 21.9026 160.113C21.9338 159.555 22.8661 159.103 23.5878 159.38C23.3382 159.391 22.9403 157.96 23.6854 157.367Z" fill="#FFC100"/>
<path d="M8.10517 158.884C8.49527 158.572 9.20526 158.576 9.82163 158.603C9.77872 158.213 9.61487 157.823 9.56416 157.433C9.52588 157.228 9.5462 157.016 9.6228 156.822C9.6994 156.629 9.82916 156.46 9.99717 156.337C10.6759 155.861 11.8736 156.044 12.8098 156.317C12.6811 155.389 13.6681 154.484 14.9905 154.343C16.313 154.203 17.7837 154.843 18.1699 155.748C18.7043 155.237 19.7771 155.034 20.6665 155.276C21.556 155.518 22.1918 156.181 22.145 156.836C22.8316 156.789 23.5923 156.754 24.158 157.051C24.9928 157.488 24.9382 158.365 25.574 158.935C25.7818 158.896 25.9963 158.913 26.1948 158.986C26.3933 159.059 26.5684 159.184 26.7014 159.348C26.8692 159.635 27.0003 159.942 27.0915 160.261C27.3568 160.874 28.2619 160.948 29.0967 161.217L7.8555 161.393C7.39517 161.244 7.00117 160.928 7.01678 160.589C7.03238 160.249 7.60973 159.969 8.05055 160.14C7.89451 160.129 7.64875 159.251 8.10517 158.884Z" fill="#FFC100"/>
<path d="M93.8995 91.4947C94.857 90.838 95.976 90.4557 97.1352 90.3891C98.2944 90.3226 99.4497 90.5743 100.476 91.117C101.503 91.6598 102.361 92.4729 102.959 93.4684C103.556 94.4639 103.87 95.6039 103.867 96.765V96.804C104.06 96.5557 104.305 96.3512 104.583 96.204C104.861 96.0568 105.168 95.9702 105.482 95.9499C105.797 95.9297 106.112 95.9762 106.407 96.0864C106.702 96.1966 106.97 96.3681 107.194 96.5895C107.328 95.3145 107.945 94.1394 108.919 93.3059C109.893 92.4724 111.15 92.0441 112.43 92.1091C113.71 92.1741 114.917 92.7274 115.801 93.6552C116.686 94.5831 117.181 95.8147 117.185 97.0966C117.394 96.9491 117.637 96.8571 117.891 96.8292C118.145 96.8014 118.402 96.8385 118.638 96.9371C118.874 97.0358 119.081 97.1927 119.239 97.3932C119.398 97.5938 119.503 97.8313 119.545 98.0836H84.0961C84.0963 97.2281 84.3418 96.3906 84.8033 95.6704C85.2649 94.9501 85.9232 94.3773 86.7003 94.0197C87.4775 93.6621 88.3408 93.5348 89.1881 93.6529C90.0354 93.7709 90.831 94.1294 91.4808 94.6858C91.6955 94.071 92.002 93.4923 92.3898 92.9693" stroke="#263238" stroke-linecap="round" stroke-linejoin="round"/>
<path d="M32.9821 44.8381C31.8164 44.4309 30.5702 44.3086 29.3476 44.4815C28.125 44.6544 26.9615 45.1175 25.9545 45.832C24.9474 46.5465 24.1261 47.4917 23.559 48.5886C22.992 49.6855 22.6957 50.9022 22.6951 52.1369V52.1838C22.4597 51.8829 22.1634 51.6351 21.8256 51.4568C21.4878 51.2784 21.1161 51.1735 20.7348 51.1488C20.3536 51.1241 19.9715 51.1803 19.6135 51.3136C19.2555 51.4469 18.9297 51.6544 18.6575 51.9224C18.4833 50.3845 17.7293 48.9708 16.5492 47.9694C15.369 46.968 13.8514 46.4543 12.3056 46.5329C10.7599 46.6115 9.30222 47.2765 8.22968 48.3923C7.15713 49.5082 6.55039 50.9911 6.53308 52.5388C6.2264 52.3182 5.85756 52.2007 5.47979 52.2033C5.04514 52.2022 4.6243 52.3558 4.29263 52.6367C3.96096 52.9177 3.74015 53.3075 3.66971 53.7364H46.6865C46.6896 52.6956 46.3933 51.6759 45.8329 50.7988C45.2726 49.9218 44.4718 49.2244 43.5261 48.7898C42.5804 48.3551 41.5297 48.2017 40.4992 48.3476C39.4687 48.4936 38.5019 48.9328 37.7141 49.613C37.3242 48.4884 36.6809 47.4687 35.8338 46.6326" stroke="#263238" stroke-linecap="round" stroke-linejoin="round"/>
<path d="M165 35.8575H121.983C121.98 34.8167 122.276 33.797 122.837 32.9199C123.397 32.0429 124.198 31.3455 125.144 30.9109C126.089 30.4762 127.14 30.3228 128.171 30.4687C129.201 30.6147 130.168 31.0539 130.956 31.7341C131.553 30.0076 132.743 28.5487 134.314 27.6163C135.886 26.6839 137.736 26.3383 139.538 26.6409C141.34 26.9435 142.976 27.8746 144.157 29.269C145.337 30.6635 145.985 32.431 145.986 34.258V34.3049C146.222 34.004 146.518 33.7562 146.856 33.5779C147.194 33.3995 147.565 33.2946 147.947 33.2699C148.328 33.2452 148.71 33.3014 149.068 33.4347C149.426 33.568 149.752 33.7755 150.024 34.0435C150.198 32.5056 150.952 31.0919 152.132 30.0905C153.312 29.0891 154.83 28.5754 156.376 28.654C157.922 28.7326 159.379 29.3976 160.452 30.5134C161.524 31.6293 162.131 33.1122 162.148 34.6599C162.455 34.4392 162.824 34.3218 163.202 34.3244C163.634 34.326 164.052 34.4809 164.382 34.7616C164.711 35.0423 164.93 35.4306 165 35.8575Z" fill="white" stroke="#263238" stroke-miterlimit="10"/>
<path d="M107.669 51.0637L106.335 59.4041" stroke="#FFC100" stroke-miterlimit="10"/>
<path d="M112.712 54.0168L107.161 60.7383" stroke="#FFC100" stroke-miterlimit="10"/>
<path d="M113.592 59.7241L108.396 61.7566" stroke="#FFC100" stroke-miterlimit="10"/>
<path d="M139.954 74.2397V67.8147" stroke="#263238" stroke-linecap="round" stroke-linejoin="round"/>
<path d="M155.082 74.2397H139.954V69.5H155.082V74.2397Z" fill="white" stroke="#263238" stroke-linecap="round" stroke-linejoin="round"/>
<path d="M155.081 74.2397V67.8147" stroke="#263238" stroke-linecap="round" stroke-linejoin="round"/>
<path d="M101.848 161.163H71.2715V107.921H101.848V161.163Z" fill="white" stroke="#263238" stroke-linecap="round" stroke-linejoin="round"/>
<path d="M132.328 161.163H101.752L101.752 88.1821H132.328V161.163Z" fill="white" stroke="#263238" stroke-linecap="round" stroke-linejoin="round"/>
<path d="M163.045 161.167H132.469V74.1111H163.045V161.167Z" fill="white" stroke="#263238" stroke-linecap="round" stroke-linejoin="round"/>
<path d="M138.159 79.5996V157.866" stroke="#FFC100" stroke-linecap="round" stroke-linejoin="round"/>
<path d="M144.846 79.5996V157.866" stroke="#FFC100" stroke-linecap="round" stroke-linejoin="round"/>
<path d="M151.532 79.5996V157.866" stroke="#FFC100" stroke-linecap="round" stroke-linejoin="round"/>
<path d="M158.215 79.5996V157.866" stroke="#FFC100" stroke-linecap="round" stroke-linejoin="round"/>
<path d="M106.826 91.9504V99.2337V106.513V113.796V121.076V128.363V135.646V142.925V150.209V157.492V157.632" stroke="#FFC100" stroke-linecap="round" stroke-linejoin="round"/>
<path d="M113.514 91.9504V99.2337V106.513V113.796V121.076V128.363V135.646V142.925V150.209V157.492V157.632" stroke="#FFC100" stroke-linecap="round" stroke-linejoin="round"/>
<path d="M120.203 91.9504V99.2337V106.513V113.796V121.076V128.363V135.646V142.925V150.209V157.492V157.632" stroke="#FFC100" stroke-linecap="round" stroke-linejoin="round"/>
<path d="M126.886 91.9504V99.2337V106.513V113.796V121.076V128.363V135.646V142.925V150.209V157.492V157.632" stroke="#FFC100" stroke-linecap="round" stroke-linejoin="round"/>
<path d="M106.827 91.9504H108.137H114.387H120.64H126.886" stroke="#FFC100" stroke-linecap="round" stroke-linejoin="round"/>
<path d="M106.827 99.2336H108.137H114.387H120.64H126.886" stroke="#FFC100" stroke-linecap="round" stroke-linejoin="round"/>
<path d="M106.827 106.513H108.137H114.387H120.64H126.886" stroke="#FFC100" stroke-linecap="round" stroke-linejoin="round"/>
<path d="M106.827 113.796H108.137H114.387H120.64H126.886" stroke="#FFC100" stroke-linecap="round" stroke-linejoin="round"/>
<path d="M106.827 121.076H108.137H114.387H120.64H126.886" stroke="#FFC100" stroke-linecap="round" stroke-linejoin="round"/>
<path d="M106.827 128.363H108.137H114.387H120.64H126.886" stroke="#FFC100" stroke-linecap="round" stroke-linejoin="round"/>
<path d="M106.827 135.646H108.137H114.387H120.64H126.886" stroke="#FFC100" stroke-linecap="round" stroke-linejoin="round"/>
<path d="M106.827 142.926H108.137H114.387H120.64H126.886" stroke="#FFC100" stroke-linecap="round" stroke-linejoin="round"/>
<path d="M106.827 150.208H108.137H114.387H120.64H126.886" stroke="#FFC100" stroke-linecap="round" stroke-linejoin="round"/>
<path d="M106.827 157.492H108.137H114.387H120.64H126.886" stroke="#FFC100" stroke-linecap="round" stroke-linejoin="round"/>
<path d="M74.2652 112.314H97.3789" stroke="#FFC100" stroke-linecap="round" stroke-linejoin="round"/>
<path d="M74.2652 119.597H97.3789" stroke="#FFC100" stroke-linecap="round" stroke-linejoin="round"/>
<path d="M74.2652 126.877H97.3789" stroke="#FFC100" stroke-linecap="round" stroke-linejoin="round"/>
<path d="M74.2652 134.16H97.3789" stroke="#FFC100" stroke-linecap="round" stroke-linejoin="round"/>
<path d="M74.2652 141.443H97.3789" stroke="#FFC100" stroke-linecap="round" stroke-linejoin="round"/>
<path d="M74.2652 148.727H97.3789" stroke="#FFC100" stroke-linecap="round" stroke-linejoin="round"/>
<path d="M74.2652 156.005H97.3789" stroke="#FFC100" stroke-linecap="round" stroke-linejoin="round"/>
<path d="M3.66848 161.393H17.6498H19.2765H165" stroke="#263238" stroke-linecap="round" stroke-linejoin="round"/>
<path d="M111.88 160.941C112.087 161.038 113.588 161.093 115.504 161.124C119.405 161.19 125.018 161.159 125.018 161.159C125.018 161.159 125.323 161.159 125.44 159.638C125.557 158.116 124.808 156.907 124.722 156.271C124.332 153.353 125.327 152.136 125.342 151.922C125.358 151.707 119.881 151.586 119.881 151.586L118.086 151.465L118.476 154.032C118.501 154.178 118.514 154.325 118.515 154.473C118.553 155.381 118.268 156.272 117.712 156.991C117.156 157.71 116.365 158.209 115.477 158.401H115.395C115.266 158.28 113.054 157.258 112.149 158.67C111.653 159.439 111.88 160.941 111.88 160.941Z" fill="#263238"/>
<path opacity="0.2" d="M111.88 160.941C112.087 161.038 113.588 161.093 115.504 161.124C119.405 161.19 125.018 161.159 125.018 161.159C125.018 161.159 125.323 161.159 125.44 159.638C125.557 158.116 124.808 156.907 124.722 156.271C124.332 153.353 125.327 152.136 125.342 151.922C125.358 151.707 119.881 151.586 119.881 151.586L118.086 151.465L118.476 154.032C118.501 154.178 118.514 154.325 118.515 154.473C118.553 155.381 118.268 156.272 117.712 156.991C117.156 157.71 116.365 158.209 115.477 158.401H115.395C115.266 158.28 113.054 157.258 112.149 158.67C111.653 159.439 111.88 160.941 111.88 160.941Z" fill="white"/>
<path opacity="0.3" d="M115.505 161.133C119.406 161.199 125.019 161.168 125.019 161.168C125.019 161.168 125.324 161.168 125.441 159.647C125.558 158.125 124.809 156.916 124.723 156.28C124.333 153.362 125.328 152.145 125.343 151.93C125.359 151.716 119.882 151.595 119.882 151.595L118.087 151.474L118.477 154.041C118.502 154.186 118.515 154.334 118.516 154.482C119.753 155.504 120.736 156.327 120.736 156.327C120.736 156.327 115.723 157.981 115.505 161.133Z" fill="black"/>
<path d="M111.88 160.941C112.087 161.038 113.588 161.093 115.504 161.124C119.405 161.19 125.018 161.159 125.018 161.159C125.018 161.159 125.323 161.159 125.44 159.638C125.557 158.116 124.808 156.907 124.722 156.271C124.332 153.353 125.327 152.136 125.342 151.922C125.358 151.707 119.881 151.586 119.881 151.586L118.086 151.465L118.476 154.032C118.501 154.178 118.514 154.325 118.515 154.473C118.553 155.381 118.268 156.272 117.712 156.991C117.156 157.71 116.365 158.209 115.477 158.401H115.395C115.266 158.28 113.054 157.258 112.149 158.67C111.653 159.439 111.88 160.941 111.88 160.941Z" stroke="#263238" stroke-linecap="round" stroke-linejoin="round"/>
<path d="M116.9 148.11C116.717 149.089 116.26 149.366 116.557 149.826C116.6 149.897 116.643 149.979 116.686 150.064C116.916 150.54 117.161 151.211 118.066 151.465C119.131 151.765 124.23 152.042 125.33 151.906C126.43 151.769 127.054 150.735 127.117 149.861C127.179 148.988 126.703 148.441 126.778 147.462C126.852 146.483 127.616 146.198 127.667 145.547C127.718 144.895 127.086 143.947 127.093 143.296C127.093 141.923 127.07 143.421 126.797 135.615C126.645 131.164 125.568 130.196 126.797 125.148C127.242 123.327 132.017 90.3433 132.017 90.3433L117.29 91.2249C117.29 91.2249 117.056 96.8424 116.791 103.478C116.455 111.92 116.069 122.008 116.057 124.278C116.034 128.889 116.448 135.35 116.795 141.084C116.939 143.53 117.185 145.215 116.795 146.155C116.748 146.254 116.721 146.359 116.713 146.468C116.646 147.088 117.087 147.131 116.9 148.11Z" fill="#FFC100"/>
<path opacity="0.3" d="M116.686 150.064C116.916 150.54 117.161 151.211 118.066 151.465C119.131 151.765 124.23 152.042 125.33 151.906C126.43 151.769 127.054 150.735 127.117 149.861C127.179 148.988 126.703 148.441 126.778 147.462C126.852 146.483 127.616 146.198 127.667 145.547C127.718 144.895 127.086 143.947 127.093 143.296C127.093 141.923 127.07 143.421 126.797 135.615C126.645 131.164 125.568 130.196 126.797 125.148C127.242 123.327 132.017 90.3433 132.017 90.3433L117.29 91.2249C117.29 91.2249 117.056 96.8424 116.791 103.478C118.566 110.859 120.626 118.981 121.398 120.346L120.181 122.472C120.181 122.472 123.091 129.225 123.091 130.04C123.091 130.856 122.108 138.482 121.769 140.066C121.429 141.65 123.091 140.522 123.091 141.857C123.091 143.085 123.224 149.066 116.686 150.064Z" fill="black"/>
<path d="M116.9 148.11C116.717 149.089 116.26 149.366 116.557 149.826C116.6 149.897 116.643 149.979 116.686 150.064C116.916 150.54 117.161 151.211 118.066 151.465C119.131 151.765 124.23 152.042 125.33 151.906C126.43 151.769 127.054 150.735 127.117 149.861C127.179 148.988 126.703 148.441 126.778 147.462C126.852 146.483 127.616 146.198 127.667 145.547C127.718 144.895 127.086 143.947 127.093 143.296C127.093 141.923 127.07 143.421 126.797 135.615C126.645 131.164 125.568 130.196 126.797 125.148C127.242 123.327 132.017 90.3433 132.017 90.3433L117.29 91.2249C117.29 91.2249 117.056 96.8424 116.791 103.478C116.455 111.92 116.069 122.008 116.057 124.278C116.034 128.889 116.448 135.35 116.795 141.084C116.939 143.53 117.185 145.215 116.795 146.155C116.748 146.254 116.721 146.359 116.713 146.468C116.646 147.088 117.087 147.131 116.9 148.11Z" stroke="#263238" stroke-linecap="round" stroke-linejoin="round"/>
<path d="M118.027 101.886C118.027 101.886 119.833 103.447 121.374 103.166" stroke="#263238" stroke-linecap="round" stroke-linejoin="round"/>
<path d="M118.208 104.836C118.208 104.836 121.25 104.102 121.598 103.486" stroke="#263238" stroke-linecap="round" stroke-linejoin="round"/>
<path d="M122.108 118.735C122.108 118.735 120.466 123.026 118.64 124.064" stroke="#263238" stroke-linecap="round" stroke-linejoin="round"/>
<path d="M118.558 147.217C118.558 147.217 122.206 148.344 124.02 147.521C125.834 146.698 122.588 149.405 119.178 149.167" stroke="#263238" stroke-linecap="round" stroke-linejoin="round"/>
<path d="M123.725 127.762C123.725 127.762 123.693 139.173 120.717 141.443" stroke="#263238" stroke-linecap="round" stroke-linejoin="round"/>
<path d="M120.665 153.349C119.961 153.068 119.214 152.911 118.457 152.885" stroke="#263238" stroke-linecap="round" stroke-linejoin="round"/>
<path d="M120.599 154.828C120.599 154.828 119.541 154.438 118.777 154.281" stroke="#263238" stroke-linecap="round" stroke-linejoin="round"/>
<path d="M120.399 156.244L118.695 155.733" stroke="#263238" stroke-linecap="round" stroke-linejoin="round"/>
<path d="M119.568 157.402L118.168 156.852" stroke="#263238" stroke-linecap="round" stroke-linejoin="round"/>
<path d="M117.981 158.397L117.166 157.769" stroke="#263238" stroke-linecap="round" stroke-linejoin="round"/>
<path d="M120.314 151.941C120.314 151.941 120.45 155.842 119.218 157.125C117.985 158.409 116.678 158.436 116.791 158.928" stroke="#263238" stroke-linecap="round" stroke-linejoin="round"/>
<path d="M131.561 151.484C131.561 151.484 137.077 151.597 137.096 151.816C137.116 152.034 136.316 153.248 137.225 156.162C137.42 156.797 138.395 158.003 138.52 159.52C138.645 161.038 138.36 161.038 138.36 161.038C138.36 161.038 125.877 161.108 125.186 160.823C125.186 160.823 124.703 159.325 125.058 158.58C125.76 157.102 128.338 158.295 128.256 158.311H128.338C130.262 157.886 131.229 155.97 130.574 153.942L129.743 151.379L131.561 151.484Z" fill="#263238"/>
<path opacity="0.25" d="M131.561 151.484C131.561 151.484 137.077 151.597 137.096 151.816C137.116 152.034 136.316 153.248 137.225 156.162C137.42 156.797 138.395 158.003 138.52 159.52C138.645 161.038 138.36 161.038 138.36 161.038C138.36 161.038 125.877 161.108 125.186 160.823C125.186 160.823 124.703 159.325 125.058 158.58C125.76 157.102 128.338 158.295 128.256 158.311H128.338C130.262 157.886 131.229 155.97 130.574 153.942L129.743 151.379L131.561 151.484Z" fill="white"/>
<path d="M131.561 151.484C131.561 151.484 137.077 151.597 137.096 151.816C137.116 152.034 136.316 153.248 137.225 156.162C137.42 156.797 138.395 158.003 138.52 159.52C138.645 161.038 138.36 161.038 138.36 161.038C138.36 161.038 125.877 161.108 125.186 160.823C125.186 160.823 124.703 159.325 125.058 158.58C125.76 157.102 128.338 158.295 128.256 158.311H128.338C130.262 157.886 131.229 155.97 130.574 153.942L129.743 151.379L131.561 151.484Z" stroke="#263238" stroke-linecap="round" stroke-linejoin="round"/>
<path d="M118.598 91.2249L133.172 90.3433C133.172 90.3433 134.066 123.272 133.953 125.09C133.59 130.13 134.83 131.094 135.751 135.541C137.366 143.343 137.148 141.837 137.366 143.206C137.471 143.858 138.267 144.806 138.33 145.457C138.392 146.109 137.674 146.393 137.768 147.369C137.861 148.344 138.439 148.898 138.521 149.764C138.603 150.63 138.162 151.668 137.085 151.804C136.008 151.941 130.843 151.664 129.743 151.363C128.643 151.063 128.327 150.193 127.953 149.729C127.578 149.265 127.984 148.992 128.003 148.012C128.023 147.033 127.582 147.006 127.524 146.366C127.513 146.261 127.522 146.155 127.551 146.054C127.789 145.122 127.251 143.44 126.689 140.983C125.362 135.26 123.829 128.808 123.065 124.208C122.675 121.914 121.305 111.639 120.182 103.143C120.182 103.143 119.105 101.407 118.559 98.0439" fill="#FFC100"/>
<path opacity="0.3" d="M133.218 91.4865L133.347 96.4057C130.88 96.6058 128.401 96.6058 125.935 96.4057C121.121 95.9766 118.191 93.8427 118.191 93.8427L118.581 91.2251C118.581 91.2251 124.043 92.6958 126.731 92.489C129.418 92.2823 131.993 91.9585 133.218 91.4865Z" fill="black"/>
<path d="M118.598 91.2249L133.172 90.3433C133.172 90.3433 134.066 123.272 133.953 125.09C133.59 130.13 134.83 131.094 135.751 135.541C137.366 143.343 137.148 141.837 137.366 143.206C137.471 143.858 138.267 144.806 138.33 145.457C138.392 146.109 137.674 146.393 137.768 147.369C137.861 148.344 138.439 148.898 138.521 149.764C138.603 150.63 138.162 151.668 137.085 151.804C136.008 151.941 130.843 151.664 129.743 151.363C128.643 151.063 128.327 150.193 127.953 149.729C127.578 149.265 127.984 148.992 128.003 148.012C128.023 147.033 127.582 147.006 127.524 146.366C127.513 146.261 127.522 146.155 127.551 146.054C127.789 145.122 127.251 143.44 126.689 140.983C125.362 135.26 123.829 128.808 123.065 124.208C122.675 121.914 121.305 111.639 120.182 103.143C120.182 103.143 119.105 101.407 118.559 98.0439" stroke="#263238" stroke-linecap="round" stroke-linejoin="round"/>
<path d="M125.799 131.051C125.799 131.051 130.839 139.633 135.812 142.438" stroke="#263238" stroke-linecap="round" stroke-linejoin="round"/>
<path d="M135.898 147.217L130.488 147.899C130.098 147.95 129.594 148.106 129.633 148.52C129.672 148.933 130.09 149.121 130.449 149.249C131.653 149.699 132.963 149.787 134.217 149.503" stroke="#263238" stroke-linecap="round" stroke-linejoin="round"/>
<path d="M135.738 144.615C133.795 145.729 131.6 146.333 129.36 146.37" stroke="#263238" stroke-linecap="round" stroke-linejoin="round"/>
<path d="M132.345 128.995C132.345 128.995 129.614 129.1 128.21 128.976C129.252 130.403 130.941 131.024 132.571 131.106" stroke="#263238" stroke-linecap="round" stroke-linejoin="round"/>
<path d="M130.301 94.4241C130.301 94.4241 130.691 108.444 130.832 114.276C130.972 120.109 131.222 126.908 131.222 126.908C131.354 127.116 131.444 127.348 131.487 127.592C131.529 127.835 131.522 128.084 131.468 128.324L131.249 129.042L131.366 131.067C131.523 131.251 131.637 131.467 131.7 131.701C131.762 131.934 131.773 132.179 131.729 132.416C131.542 133.154 133.056 138.291 133.056 138.291L133.317 138.631C133.584 138.951 133.763 139.335 133.836 139.746C133.908 140.157 133.872 140.579 133.73 140.971L134.273 145.372C134.564 145.61 134.76 145.946 134.823 146.318C134.886 146.689 134.812 147.071 134.616 147.392V147.392L135.123 149.686C135.38 149.904 135.552 150.206 135.609 150.539C135.665 150.872 135.602 151.213 135.431 151.504L135.345 151.633" stroke="#263238" stroke-linecap="round" stroke-linejoin="round"/>
<path d="M105.057 68.5676C105.447 69.4219 108.771 71.6884 108.771 71.6884C108.774 71.314 108.694 70.9437 108.537 70.6039C108.299 70.2372 108.147 69.8861 107.995 69.6676C107.955 69.0753 108.15 68.4912 108.537 68.0409C108.989 67.5377 109.344 68.7938 109.543 69.6286C109.742 70.4635 111.045 71.7352 110.987 72.3594C110.874 73.0772 110.729 73.7832 110.546 74.4854C110.546 74.4854 116.105 76.436 116.717 75.2656C118.014 72.7516 119.447 70.3098 121.009 67.9512C122.315 69.7769 121.286 72.297 120.548 75.3944C119.811 78.4918 117.541 82.8298 117.541 82.8298C113.476 80.8792 108.857 75.8079 108.857 75.8079C108.857 75.8079 107.772 75.3242 106.43 74.8638C105.088 74.4035 105.283 74.0095 105.069 72.691C104.854 71.3724 103.727 69.5701 103.793 68.8913C103.86 68.2126 104.659 67.7171 105.057 68.5676Z" fill="white" stroke="#263238" stroke-linecap="round" stroke-linejoin="round"/>
<path d="M118.209 75.1569C118.26 77.9813 117.702 87.5583 117.097 91.358L133.642 90.9405V90.6636C132.428 86.1696 133.216 81.3011 135.132 77.0762C136.146 74.8331 136.599 71.9659 137.121 69.2507C138.452 62.3381 135.112 60.1964 132.323 59.9312C131.246 59.8804 131.153 59.1509 130.373 59.2095C129.834 59.2748 129.288 59.2079 128.781 59.0144C128.434 60.4305 126.511 64.589 125.851 65.0649C125.531 65.3177 125.142 65.4684 124.735 65.4977C124.329 65.5269 123.922 65.4332 123.569 65.2288C122.906 64.7645 122.723 63.879 122.57 63.0832C122.502 62.6519 122.379 62.2311 122.204 61.831C121.229 62.3186 119.528 62.8959 118.264 65.1702C116.703 70.1909 117.562 66.9725 116.36 74.3377C116.153 75.4651 118.209 75.1569 118.209 75.1569Z" fill="white" stroke="#263238" stroke-linecap="round" stroke-linejoin="round"/>
<path d="M120.809 62.088L122.408 61.5302C121.324 65.2557 122.264 69.4883 125.006 67.8148C127.749 66.1412 128.837 61.3312 129.656 59.2325C130.085 59.0998 131.829 59.0374 132.734 59.7318C131.79 61.46 129.223 64.8929 129.524 67.6821C129.867 70.803 132.321 73.5727 136.904 70.4363C136.28 75.1643 134.298 78.5738 133.916 80.1889C132.52 86.0404 133.452 86.8401 134.103 92.6137C127.472 95.9959 119.447 94.3145 115.932 93.2847C117.005 87.4019 116.533 72.5779 120.809 62.088Z" fill="#FFC100"/>
<path opacity="0.3" d="M130.918 86.9214C130.918 86.9214 120.1 91.6417 118.559 87.0579C121.399 87.6746 124.324 87.7947 127.204 87.4129L130.918 86.9214Z" fill="black"/>
<path opacity="0.3" d="M134.752 76.709L126.891 70.4673C126.891 70.4673 125.331 74.7584 129.513 77.22C132.341 78.8857 134.752 76.709 134.752 76.709Z" fill="black"/>
<path d="M120.809 62.088L122.408 61.5302C121.324 65.2557 122.264 69.4883 125.006 67.8148C127.749 66.1412 128.837 61.3312 129.656 59.2325C130.085 59.0998 131.829 59.0374 132.734 59.7318C131.79 61.46 129.223 64.8929 129.524 67.6821C129.867 70.803 132.321 73.5727 136.904 70.4363C136.28 75.1643 134.298 78.5738 133.916 80.1889C132.52 86.0404 133.452 86.8401 134.103 92.6137C127.472 95.9959 119.447 94.3145 115.932 93.2847C117.005 87.4019 116.533 72.5779 120.809 62.088Z" stroke="#263238" stroke-linecap="round" stroke-linejoin="round"/>
<path d="M118.558 86.9067C118.626 87.2005 118.76 87.4748 118.95 87.7088C119.14 87.9428 119.381 88.1301 119.654 88.2565" stroke="#263238" stroke-linecap="round" stroke-linejoin="round"/>
<path d="M121.398 88.6774C124.689 88.977 127.995 88.3158 130.917 86.7737" stroke="#263238" stroke-linecap="round" stroke-linejoin="round"/>
<path d="M106.239 62.2402L109.625 71.2712C109.685 71.4322 109.708 71.6049 109.691 71.7759C109.674 71.947 109.618 72.1119 109.528 72.2581L108.9 73.2646C108.591 73.76 107.503 73.9083 107.035 73.5884C106.864 73.4734 106.729 73.3125 106.645 73.1242L103.306 64.101C103.219 63.8948 103.196 63.6674 103.239 63.4479C103.282 63.2284 103.389 63.0266 103.547 62.8683L104.601 61.8501C104.696 61.7547 104.81 61.6801 104.936 61.6308C105.061 61.5816 105.196 61.5588 105.33 61.5639C105.465 61.5691 105.597 61.602 105.719 61.6606C105.84 61.7193 105.948 61.8024 106.036 61.9048C106.124 62.0032 106.193 62.1169 106.239 62.2402Z" fill="#263238"/>
<path d="M136.913 64.6704C136.832 66.0182 136.507 67.34 135.953 68.5715C134.327 72.4413 128.116 82.073 126.755 82.7244C125.393 83.3759 111.478 75.8859 110.472 74.8599C110.186 74.5404 109.993 74.1483 109.914 73.7266C109.836 73.3048 109.875 72.8697 110.027 72.4686C110.027 72.4686 110.047 73.4283 109.227 73.2488C108.712 73.1357 109.138 71.5441 109.138 71.5441C109.138 71.5441 108.194 70.877 109.095 69.6442C109.095 69.6442 107.823 69.6442 107.924 68.6846C107.96 68.2945 111.705 68.2438 112.278 69.3244C112.976 70.6351 113.671 74.0524 113.671 74.0524C113.671 74.0524 122.737 76.393 124.617 76.7402L129.521 65.9851" fill="white"/>
<path d="M136.913 64.6704C136.832 66.0182 136.507 67.34 135.953 68.5715C134.327 72.4413 128.116 82.073 126.755 82.7244C125.393 83.3759 111.478 75.8859 110.472 74.8599C110.186 74.5404 109.993 74.1483 109.914 73.7266C109.836 73.3048 109.875 72.8697 110.027 72.4686C110.027 72.4686 110.047 73.4283 109.227 73.2488C108.712 73.1357 109.138 71.5441 109.138 71.5441C109.138 71.5441 108.194 70.877 109.095 69.6442C109.095 69.6442 107.823 69.6442 107.924 68.6846C107.96 68.2945 111.705 68.2438 112.278 69.3244C112.976 70.6351 113.671 74.0524 113.671 74.0524C113.671 74.0524 122.737 76.393 124.617 76.7402L129.521 65.9851" stroke="#263238" stroke-linecap="round" stroke-linejoin="round"/>
<path d="M110.327 75.4417C110.045 74.7297 109.557 74.1174 108.927 73.6823C108.193 73.3352 107.183 73.2259 106.383 73.0738C106.383 73.0738 105.759 70.4289 105.42 70.503C104.386 70.7176 105.193 73.1479 105.193 73.1479" fill="white"/>
<path d="M110.327 75.4417C110.045 74.7297 109.557 74.1174 108.927 73.6823C108.193 73.3352 107.183 73.2259 106.383 73.0738C106.383 73.0738 105.759 70.4289 105.42 70.503C104.386 70.7176 105.193 73.1479 105.193 73.1479" stroke="#263238" stroke-linecap="round" stroke-linejoin="round"/>
<path d="M103.948 69.5506C104.082 69.4172 104.261 69.3387 104.449 69.3307C104.638 69.3228 104.822 69.386 104.967 69.5077C105.47 69.9642 106.234 71.2554 107.05 71.9459" stroke="#263238" stroke-linecap="round" stroke-linejoin="round"/>
<path d="M111.186 72.3286C110.963 71.8371 109.383 71.0061 109.071 72.0711" stroke="#263238" stroke-linecap="round" stroke-linejoin="round"/>
<path d="M111.186 71.0174C111.186 71.0174 109.356 70.0187 108.989 71.2554" stroke="#263238" stroke-linecap="round" stroke-linejoin="round"/>
<path d="M110.955 69.8475C110.955 69.8475 110.194 69.6993 110.027 69.6837C109.422 69.6251 108.763 69.5471 108.435 69.5471" stroke="#263238" stroke-linecap="round" stroke-linejoin="round"/>
<path d="M120.182 103.166C120.182 103.166 122.62 101.017 124.036 100.607L120.182 103.166Z" fill="#FFC100"/>
<path d="M120.182 103.166C120.182 103.166 122.62 101.017 124.036 100.607" stroke="#263238" stroke-linecap="round" stroke-linejoin="round"/>
<path d="M132.493 153.372C131.774 153.09 131.014 152.931 130.242 152.9" stroke="#263238" stroke-linecap="round" stroke-linejoin="round"/>
<path d="M132.548 154.89C132.548 154.89 131.459 154.5 130.683 154.332" stroke="#263238" stroke-linecap="round" stroke-linejoin="round"/>
<path d="M132.475 156.314L130.727 155.799" stroke="#263238" stroke-linecap="round" stroke-linejoin="round"/>
<path d="M131.744 157.492L130.293 156.934" stroke="#263238" stroke-linecap="round" stroke-linejoin="round"/>
<path d="M130.241 158.502L129.371 157.866" stroke="#263238" stroke-linecap="round" stroke-linejoin="round"/>
<path d="M132.016 151.941C132.016 151.941 132.492 155.92 131.365 157.211C130.238 158.502 128.942 158.541 129.095 159.045" stroke="#263238" stroke-linecap="round" stroke-linejoin="round"/>
<path d="M122.561 61.3702C122.561 61.3702 120.915 67.7874 123.556 68.275C127.157 68.9382 129.657 59.2207 129.657 59.2207C129.107 59.1856 129.041 58.9554 128.561 58.6824C128.561 58.6824 124.539 66.7263 122.561 61.3702Z" fill="#263238"/>
<path d="M133.511 60.153C133.511 60.153 137.275 60.8981 137.287 66.4961C137.299 72.0941 134.818 76.7559 134.818 76.7559C134.818 76.7559 131.88 76.5179 130.023 75.1564C126.122 72.3087 126.754 70.7092 126.754 70.7092L128.798 66.66C128.798 66.66 129.469 64.0658 132.387 59.9307L133.511 60.153Z" fill="#263238"/>
<path d="M120.58 62.3103C118.528 68.1346 118.435 70.3152 118.064 73.0031C118.064 73.0031 116.055 72.613 115.747 72.1682C115.747 72.1682 116.722 67.4012 117.775 64.9357C118.446 63.3714 119.328 62.8252 120.58 62.3103Z" fill="#263238"/>
<path d="M122.565 55.6981C122.565 55.6981 122.857 61.0347 122.838 61.4639C122.803 62.2714 122.217 63.3442 122.756 63.9488C123.053 64.2286 123.427 64.4127 123.829 64.4774C124.232 64.5421 124.645 64.4843 125.014 64.3116C125.746 63.9478 126.379 63.4124 126.86 62.7512C127.785 61.618 128.588 60.3901 129.255 59.0881C128.809 58.6586 128.481 58.1211 128.303 57.5277C128.303 57.5277 128.198 57.0752 128.194 57.0518C128.058 55.9523 128.072 54.8393 128.237 53.7437C128.423 52.388 128.738 51.0531 129.177 49.7568L122.565 55.6981Z" fill="white" stroke="#263238" stroke-linecap="round" stroke-linejoin="round"/>
<path d="M128.112 60.7927C127.189 61.0942 126.294 61.4754 125.436 61.9318L128.112 60.7927Z" fill="#263238"/>
<path d="M128.112 60.7927C127.189 61.0942 126.294 61.4754 125.436 61.9318" stroke="#263238" stroke-linecap="round" stroke-linejoin="round"/>
<path d="M128.929 42.7893C128.929 42.7893 132.253 44.6891 130.532 49.6474C128.812 54.6056 124.977 60.1451 121.501 59.4C118.025 58.6549 117.124 51.75 118.962 47.1468C120.799 42.5436 125.48 39.9962 128.929 42.7893Z" fill="white" stroke="#263238" stroke-linecap="round" stroke-linejoin="round"/>
<path d="M119.014 51.9413C118.991 52.3314 119.151 52.6903 119.369 52.7215C119.588 52.7527 119.787 52.4094 119.81 52.0037C119.834 51.598 119.681 51.2586 119.455 51.243C119.229 51.2274 119.038 51.5317 119.014 51.9413Z" fill="#263238"/>
<path d="M122.406 51.7817C122.383 52.1718 122.539 52.5268 122.753 52.5424C122.968 52.558 123.174 52.2303 123.198 51.8285C123.221 51.4267 123.065 51.0795 122.843 51.0483C122.621 51.0171 122.433 51.3682 122.406 51.7817Z" fill="#263238"/>
<path d="M121.129 43.6439C123.357 41.4749 126.388 40.8039 128.814 42.7662C128.814 42.7662 132.134 44.666 130.414 49.6281C129.997 50.811 129.492 51.9611 128.904 53.0688L128.841 53.1234C128.841 53.1234 129.934 52.035 125.6 49.6398C124.176 48.8362 122.073 43.8233 121.129 43.6439Z" fill="#263238" stroke="#263238" stroke-linecap="round" stroke-linejoin="round"/>
<path d="M124.609 45.2708C124.609 45.2708 124.305 41.8184 121.902 41.7014C120.65 41.639 118.996 43.3203 118.781 44.2059C118.647 44.8055 118.341 45.3532 117.901 45.7825C117.462 46.2118 116.907 46.5043 116.304 46.6245C116.304 46.6245 116.998 48.9651 118.352 49.1368C120.587 49.4099 121.746 48.8871 123.189 46.9171C123.592 46.3451 124.047 45.811 124.547 45.3216L124.609 45.2708Z" fill="#263238" stroke="#263238" stroke-linecap="round" stroke-linejoin="round"/>
<path d="M128.186 51.9026C128.186 51.9026 129.501 49.1953 130.671 52.1757C131.401 54.0326 128.483 55.5189 127.484 55.0274" fill="white"/>
<path d="M128.186 51.9026C128.186 51.9026 129.501 49.1953 130.671 52.1757C131.401 54.0326 128.483 55.5189 127.484 55.0274" stroke="#263238" stroke-linecap="round" stroke-linejoin="round"/>
<path d="M120.359 50.2603C120.581 50.5051 120.741 50.799 120.826 51.1178C120.912 51.4365 120.92 51.771 120.851 52.0937C120.75 52.8021 120.51 53.4836 120.145 54.0989L121.814 54.6333" stroke="#263238" stroke-linecap="round" stroke-linejoin="round"/>
<path d="M123.278 55.8542C123.016 56.1162 122.684 56.2979 122.322 56.378C121.96 56.4582 121.583 56.4334 121.234 56.3068" stroke="#263238" stroke-linecap="round" stroke-linejoin="round"/>
<path d="M125.147 50.2133C125.147 50.2133 123.977 48.9182 122.565 49.5423" stroke="#263238" stroke-linecap="round" stroke-linejoin="round"/>
<path d="M119.717 49.8702C119.717 49.8702 118.184 49.3903 118.379 50.744" stroke="#263238" stroke-linecap="round" stroke-linejoin="round"/>
<path d="M128.213 53.3848C128.349 53.3894 128.482 53.3506 128.594 53.2742C128.707 53.1977 128.792 53.0876 128.837 52.9596C128.95 52.7139 128.981 52.433 129.095 52.1794C129.141 52.0515 129.227 51.9416 129.34 51.8652C129.453 51.7889 129.587 51.7501 129.723 51.7542" fill="#263238"/>
<path d="M128.213 53.3848C128.349 53.3894 128.482 53.3506 128.594 53.2742C128.707 53.1977 128.792 53.0876 128.837 52.9596C128.95 52.7139 128.981 52.433 129.095 52.1794C129.141 52.0515 129.227 51.9416 129.34 51.8652C129.453 51.7889 129.587 51.7501 129.723 51.7542" stroke="#263238" stroke-linecap="round" stroke-linejoin="round"/>
<path d="M123.349 42.6843C123.514 41.9866 123.777 41.3156 124.129 40.6908C124.129 40.6908 123.493 40.5309 123.142 40.4568C123.22 41.1395 123.278 41.9977 123.349 42.6843Z" fill="#263238" stroke="#263238" stroke-linecap="round" stroke-linejoin="round"/>
<path d="M122.683 59.2521L122.656 60.4224C122.913 60.536 123.197 60.5739 123.475 60.5317C124.973 60.3561 126.483 57.0207 126.576 56.8296L126.545 56.8647C124.774 58.8191 123.459 59.2404 122.683 59.2521Z" fill="#263238"/>
<path d="M72.0732 70.4795H62.2153" stroke="#263238" stroke-linecap="round" stroke-linejoin="round"/>
<path d="M83.3809 70.4795H73.3708" stroke="#263238" stroke-linecap="round" stroke-linejoin="round"/>
<path d="M88.7139 70.4795H85.6359" stroke="#263238" stroke-linecap="round" stroke-linejoin="round"/>
<path d="M80.6191 75.8318H62.253" stroke="#263238" stroke-linecap="round" stroke-linejoin="round"/>
<path d="M85.6367 75.8318H83.3819" stroke="#263238" stroke-linecap="round" stroke-linejoin="round"/>
<path d="M72.4014 81.1877H62.2938" stroke="#263238" stroke-linecap="round" stroke-linejoin="round"/>
<path d="M82.5586 81.1877H73.8944" stroke="#263238" stroke-linecap="round" stroke-linejoin="round"/>
<path d="M73.7861 86.5403H62.3327" stroke="#263238" stroke-linecap="round" stroke-linejoin="round"/>
<path d="M79.4805 86.5403H75.4117" stroke="#263238" stroke-linecap="round" stroke-linejoin="round"/>
<path d="M40.1028 86.7349H68.8066L67.3672 70.2764H38.6633L40.1028 86.7349Z" fill="white" stroke="#263238" stroke-linecap="round" stroke-linejoin="round"/>
<path d="M38.6643 70.2805H67.3682" stroke="#263238" stroke-linecap="round" stroke-linejoin="round"/>
<path d="M40.1028 86.735H68.8066L58.9955 77.4193L54.01 81.6676L48.174 77.3374L40.1028 86.735Z" fill="white" stroke="#263238" stroke-linecap="round" stroke-linejoin="round"/>
<path d="M38.6643 70.2764L48.175 77.3373L54.011 81.6674L58.9965 77.4192L67.3682 70.2764H38.6643Z" fill="white" stroke="#263238" stroke-linecap="round" stroke-linejoin="round"/>
<path d="M91.4608 70.4788H98.666" stroke="#263238" stroke-linecap="round" stroke-linejoin="round"/>
<path d="M63.8546 51.625C69.6047 56.3062 80.2195 59.1657 80.2195 59.1657L74.8712 53.435C77.4801 52.595 79.7314 50.9032 81.2641 48.6309C82.7967 46.3586 83.5219 43.6374 83.3233 40.9037C83.1247 38.17 82.0139 35.5822 80.1689 33.5553C78.324 31.5283 75.8518 30.1797 73.1488 29.7255C70.4458 29.2714 67.6686 29.7381 65.2626 31.0508C62.8565 32.3635 60.9609 34.4462 59.8799 36.9649C58.7988 39.4836 58.5949 42.2923 59.3008 44.9407C60.0067 47.5892 61.5815 49.9238 63.7727 51.5703" fill="white"/>
<path d="M63.8546 51.625C69.6047 56.3062 80.2195 59.1657 80.2195 59.1657L74.8712 53.435C77.4801 52.595 79.7314 50.9032 81.2641 48.6309C82.7967 46.3586 83.5219 43.6374 83.3233 40.9037C83.1247 38.17 82.0139 35.5822 80.1689 33.5553C78.324 31.5283 75.8518 30.1797 73.1488 29.7255C70.4458 29.2714 67.6686 29.7381 65.2625 31.0508C62.8565 32.3635 60.9609 34.4462 59.8799 36.9649C58.7988 39.4836 58.5949 42.2923 59.3008 44.9407C60.0067 47.5892 61.5815 49.9238 63.7727 51.5703" stroke="#263238" stroke-linecap="round" stroke-linejoin="round"/>
<path d="M63.5634 36.5199C61.5748 36.5199 59.9627 34.9079 59.9627 32.9193C59.9627 30.9307 61.5748 29.3186 63.5634 29.3186C65.552 29.3186 67.1641 30.9307 67.1641 32.9193C67.1641 34.9079 65.552 36.5199 63.5634 36.5199Z" fill="#FFC100" stroke="#263238" stroke-linecap="round" stroke-linejoin="round"/>
<path d="M65.6494 32.116L63.5624 34.4644L58.8148 28.8469L58.9825 28.6714L63.5624 32.6114L64.7756 31.289L65.6494 32.116Z" fill="#263238" stroke="#263238" stroke-linecap="round" stroke-linejoin="round"/>
<path d="M77.4502 38.8296H64.0033" stroke="#263238" stroke-linecap="round" stroke-linejoin="round"/>
<path d="M77.7539 42.3013H64.307" stroke="#263238" stroke-linecap="round" stroke-linejoin="round"/>
<path d="M78.0557 45.7734H64.6127" stroke="#263238" stroke-linecap="round" stroke-linejoin="round"/>
<path d="M35.708 8.19108V14.3469L18.8672 1.36426L35.708 8.19108Z" fill="#FFC100" stroke="#263238" stroke-linecap="round" stroke-linejoin="round"/>
<path d="M35.7076 8.19105L18.4806 1.15356L42.0039 3.59172L35.7076 8.19105Z" fill="#FFC100" stroke="#263238" stroke-linecap="round" stroke-linejoin="round"/>
<path d="M33.6826 9.46669L25.5724 15.4665L18.4803 1.15356L33.6826 9.46669Z" fill="#FFC100" stroke="#263238" stroke-linecap="round" stroke-linejoin="round"/>
<path d="M33.6834 9.4668L35.708 14.347L31.3935 11.1598L33.6834 9.4668Z" fill="#FFC100" stroke="#263238" stroke-linecap="round" stroke-linejoin="round"/>
<path d="M100.242 61.0583C100.199 60.9335 100.152 60.8126 100.11 60.6917" stroke="#263238" stroke-linecap="round" stroke-linejoin="round"/>
<path d="M99.5986 59.2167C95.9707 48.3835 96.6221 41.8727 90.7316 31.3789C89.5613 29.2567 83.6356 19.2154 75.2171 15.6343C70.8401 13.7735 68.0548 16.551 69.1822 18.5172C71.6984 22.8941 80.9399 17.6472 71.6984 12.4666C63.1473 7.67617 44.945 17.0426 36.4134 14.3547" stroke="#263238" stroke-linecap="round" stroke-linejoin="round" stroke-dasharray="2 4"/>
<path d="M35.6846 14.085C35.564 14.0345 35.4472 13.98 35.3305 13.9216" stroke="#263238" stroke-linecap="round" stroke-linejoin="round"/>
</svg>
