<svg width="205" height="199" viewBox="0 0 205 199" fill="none" xmlns="http://www.w3.org/2000/svg">
<path d="M88.2481 198.525C131.279 198.525 166.163 196.352 166.163 193.671C166.163 190.99 131.279 188.817 88.2481 188.817C45.2168 188.817 10.333 190.99 10.333 193.671C10.333 196.352 45.2168 198.525 88.2481 198.525Z" fill="#FDC949"/>
<path opacity="0.8" d="M88.2481 198.525C131.279 198.525 166.163 196.352 166.163 193.671C166.163 190.99 131.279 188.817 88.2481 188.817C45.2168 188.817 10.333 190.99 10.333 193.671C10.333 196.352 45.2168 198.525 88.2481 198.525Z" fill="white"/>
<path d="M146.797 9.09497H68.4537C63.0449 9.09497 58.6602 13.4797 58.6602 18.8885V184.285C58.6602 189.694 63.0449 194.079 68.4537 194.079H146.797C152.206 194.079 156.591 189.694 156.591 184.285V18.8885C156.591 13.4797 152.206 9.09497 146.797 9.09497Z" fill="#263238"/>
<path d="M152.237 29.4077H63.0107V173.766H152.237V29.4077Z" fill="white" stroke="#263238" stroke-width="1.33739" stroke-miterlimit="10"/>
<path d="M121.302 87.8626C128.855 80.3098 128.855 68.0643 121.302 60.5115C113.749 52.9587 101.504 52.9587 93.9509 60.5115C86.3981 68.0643 86.3981 80.3098 93.9509 87.8626C101.504 95.4154 113.749 95.4154 121.302 87.8626Z" fill="#FDC949"/>
<path d="M133.017 164.688H82.2397C82.1254 164.689 82.0121 164.667 81.9064 164.624C81.8006 164.581 81.7044 164.517 81.6234 164.436C81.5424 164.356 81.478 164.26 81.4342 164.154C81.3903 164.049 81.3677 163.936 81.3677 163.821C81.367 163.707 81.3891 163.593 81.4327 163.487C81.4763 163.381 81.5405 163.284 81.6216 163.203C81.7027 163.122 81.7991 163.058 81.9052 163.014C82.0113 162.971 82.125 162.949 82.2397 162.949H133.017C133.131 162.949 133.244 162.972 133.35 163.016C133.455 163.06 133.551 163.124 133.632 163.205C133.712 163.286 133.776 163.382 133.819 163.488C133.863 163.594 133.885 163.707 133.884 163.821C133.884 164.051 133.793 164.272 133.63 164.435C133.467 164.597 133.247 164.688 133.017 164.688Z" fill="#FDC949"/>
<path d="M134.671 104.399H80.5818C79.4655 104.399 78.5605 105.304 78.5605 106.421V112.797C78.5605 113.913 79.4655 114.818 80.5818 114.818H134.671C135.787 114.818 136.692 113.913 136.692 112.797V106.421C136.692 105.304 135.787 104.399 134.671 104.399Z" fill="#FDC949"/>
<path d="M134.671 123.886H80.5818C79.4655 123.886 78.5605 124.791 78.5605 125.907V132.283C78.5605 133.399 79.4655 134.304 80.5818 134.304H134.671C135.787 134.304 136.692 133.399 136.692 132.283V125.907C136.692 124.791 135.787 123.886 134.671 123.886Z" fill="#FDC949"/>
<path d="M117.256 83.8344L111.565 80.5581V77.8514C112.389 76.8545 112.986 75.69 113.315 74.439C113.51 74.5086 113.717 74.5444 113.924 74.5449C114.63 74.5449 115.079 72.3573 115.154 70.7948C115.976 69.0558 114.857 68.0377 114.857 68.0377C114.857 68.0377 115.321 67.574 115.628 65.714C115.936 63.8541 114.544 64.6303 113.461 62.9267C112.377 61.223 111.601 59.3681 108.042 59.3681C107.062 59.3359 106.094 59.5994 105.265 60.1243C104.437 60.6493 103.785 61.4115 103.395 62.3117C102.509 62.3149 101.627 62.4181 100.764 62.6192C99.6751 62.9267 99.3676 66.4903 100.295 67.8865C100.71 68.6495 100.932 69.5028 100.94 70.3714C100.693 70.069 100.436 69.9883 100.295 70.6738C99.9876 72.2212 101.228 74.3886 101.228 74.3886L101.868 74.2072C102.19 75.5441 102.812 76.7903 103.687 77.8514V80.5581L97.9966 83.8344C97.3321 84.2181 96.7801 84.7698 96.3961 85.4342C96.0122 86.0987 95.8097 86.8524 95.8091 87.6198V89.4948C99.1936 92.1094 103.35 93.5277 107.626 93.5277C111.903 93.5277 116.059 92.1094 119.444 89.4948V87.6198C119.444 86.8522 119.242 86.0981 118.858 85.4335C118.474 84.7689 117.921 84.2173 117.256 83.8344Z" fill="#263238"/>
<path d="M85.9249 131.714C85.7944 131.712 85.6698 131.66 85.5771 131.568C85.5275 131.523 85.4879 131.469 85.461 131.408C85.4341 131.347 85.4204 131.281 85.4209 131.215C85.4224 131.124 85.4485 131.035 85.4965 130.958L86.4037 129.506L84.6346 129.562C84.5679 129.566 84.5011 129.556 84.4386 129.532C84.376 129.509 84.3191 129.472 84.2716 129.425C84.1895 129.333 84.144 129.214 84.144 129.09C84.144 128.967 84.1895 128.847 84.2716 128.755C84.3181 128.706 84.3747 128.668 84.4374 128.644C84.5001 128.62 84.5674 128.609 84.6346 128.614L86.3786 128.679L85.4814 127.233C85.4325 127.154 85.4064 127.063 85.4057 126.971C85.4053 126.904 85.4189 126.838 85.4459 126.778C85.4728 126.717 85.5124 126.662 85.562 126.618C85.6546 126.526 85.7793 126.474 85.9098 126.472C85.9957 126.472 86.0796 126.497 86.1519 126.544C86.2242 126.59 86.2818 126.656 86.3181 126.734L87.18 128.291L88.0318 126.744C88.0722 126.661 88.1344 126.591 88.2117 126.542C88.289 126.492 88.3784 126.464 88.4703 126.462C88.534 126.462 88.597 126.476 88.6551 126.502C88.7133 126.528 88.7653 126.566 88.808 126.613C88.9005 126.709 88.9513 126.838 88.9492 126.971C88.9489 127.057 88.9263 127.142 88.8837 127.218L87.9713 128.679L89.7405 128.614C89.8077 128.609 89.875 128.62 89.9377 128.644C90.0004 128.668 90.057 128.706 90.1034 128.755C90.1894 128.844 90.2365 128.964 90.2345 129.088C90.2342 129.213 90.1875 129.333 90.1034 129.425C90.056 129.472 89.9991 129.509 89.9365 129.532C89.874 129.556 89.8072 129.566 89.7405 129.562L87.9612 129.506L88.8484 130.943C88.8981 131.023 88.9243 131.115 88.924 131.21C88.924 131.343 88.8709 131.472 88.7763 131.566C88.6818 131.661 88.5536 131.714 88.4199 131.714C88.3335 131.713 88.2493 131.686 88.1777 131.638C88.106 131.59 88.0501 131.521 88.0167 131.442L87.1749 129.929L86.3382 131.442C86.3011 131.521 86.2429 131.588 86.1699 131.636C86.097 131.684 86.0122 131.711 85.9249 131.714Z" fill="#263238"/>
<path d="M94.0998 131.714C93.9693 131.712 93.8447 131.66 93.752 131.568C93.7024 131.523 93.6628 131.469 93.6359 131.408C93.609 131.347 93.5953 131.281 93.5958 131.215C93.5973 131.124 93.6234 131.035 93.6714 130.958L94.5786 129.506L92.8145 129.562C92.7472 129.565 92.6799 129.554 92.6167 129.531C92.5535 129.507 92.4957 129.472 92.4465 129.425C92.3796 129.356 92.3351 129.269 92.3186 129.174C92.3021 129.079 92.3146 128.982 92.3543 128.894C92.394 128.807 92.4591 128.733 92.5412 128.683C92.6232 128.633 92.7185 128.609 92.8145 128.614L94.5534 128.679L93.6562 127.233C93.6074 127.154 93.5813 127.063 93.5806 126.971C93.5802 126.904 93.5938 126.838 93.6208 126.778C93.6477 126.717 93.6873 126.662 93.7369 126.618C93.8295 126.526 93.9542 126.474 94.0847 126.472C94.1706 126.472 94.2545 126.497 94.3268 126.544C94.3991 126.59 94.4567 126.656 94.493 126.734L95.3549 128.291L96.2067 126.744C96.2471 126.661 96.3093 126.591 96.3866 126.542C96.4639 126.492 96.5533 126.464 96.6452 126.462C96.709 126.461 96.7722 126.475 96.8304 126.501C96.8886 126.527 96.9406 126.565 96.9829 126.613C97.0297 126.66 97.0666 126.716 97.0917 126.777C97.1168 126.839 97.1295 126.904 97.1291 126.971C97.1273 127.058 97.103 127.143 97.0585 127.218L96.1462 128.679L97.9205 128.624C97.9868 128.62 98.0534 128.63 98.1153 128.654C98.1772 128.679 98.2329 128.717 98.2783 128.765C98.3643 128.854 98.4114 128.974 98.4094 129.098C98.4091 129.223 98.3624 129.343 98.2783 129.436C98.2318 129.482 98.1758 129.519 98.1141 129.542C98.0524 129.566 97.9864 129.576 97.9205 129.572L96.1361 129.516L97.0233 130.953C97.073 131.033 97.0992 131.125 97.0989 131.22C97.0989 131.354 97.0458 131.482 96.9512 131.576C96.8567 131.671 96.7285 131.724 96.5948 131.724C96.5084 131.723 96.4242 131.696 96.3526 131.648C96.2809 131.6 96.225 131.531 96.1916 131.452L95.3498 129.94L94.5131 131.452C94.4746 131.529 94.4158 131.594 94.3429 131.64C94.2701 131.686 94.186 131.712 94.0998 131.714Z" fill="#263238"/>
<path d="M102.281 131.714C102.149 131.713 102.022 131.661 101.928 131.568C101.879 131.523 101.839 131.469 101.812 131.408C101.785 131.347 101.771 131.281 101.772 131.215C101.773 131.124 101.8 131.035 101.847 130.958L102.755 129.506L100.991 129.562C100.896 129.565 100.802 129.541 100.721 129.491C100.64 129.441 100.575 129.368 100.536 129.282C100.496 129.195 100.484 129.099 100.499 129.005C100.515 128.911 100.558 128.824 100.623 128.755C100.67 128.707 100.728 128.669 100.791 128.644C100.855 128.62 100.923 128.61 100.991 128.614L102.73 128.679L101.832 127.233C101.784 127.154 101.757 127.063 101.757 126.971C101.758 126.905 101.773 126.839 101.8 126.779C101.827 126.718 101.865 126.664 101.913 126.618C102.007 126.525 102.134 126.472 102.266 126.472C102.351 126.473 102.434 126.499 102.505 126.545C102.576 126.591 102.633 126.657 102.669 126.734L103.531 128.291L104.383 126.744C104.423 126.661 104.485 126.591 104.563 126.542C104.64 126.492 104.729 126.464 104.821 126.462C104.885 126.461 104.948 126.475 105.007 126.501C105.065 126.527 105.117 126.565 105.159 126.613C105.206 126.66 105.243 126.716 105.268 126.777C105.293 126.839 105.306 126.904 105.305 126.971C105.303 127.058 105.279 127.143 105.235 127.218L104.322 128.679L106.097 128.614C106.162 128.607 106.228 128.615 106.29 128.636C106.352 128.657 106.409 128.691 106.456 128.736C106.504 128.781 106.542 128.836 106.567 128.896C106.592 128.957 106.603 129.022 106.601 129.088C106.602 129.212 106.557 129.332 106.475 129.425C106.427 129.472 106.37 129.509 106.308 129.532C106.245 129.556 106.178 129.566 106.112 129.562L104.332 129.506L105.215 130.943C105.264 131.023 105.29 131.115 105.29 131.21C105.289 131.276 105.274 131.341 105.247 131.402C105.22 131.462 105.182 131.517 105.134 131.563C105.09 131.61 105.037 131.648 104.978 131.674C104.919 131.7 104.856 131.713 104.791 131.714C104.705 131.712 104.622 131.686 104.551 131.637C104.48 131.589 104.425 131.521 104.393 131.442L103.546 129.929L102.709 131.442C102.672 131.523 102.611 131.592 102.535 131.641C102.459 131.689 102.371 131.714 102.281 131.714Z" fill="#263238"/>
<path d="M110.456 131.714C110.324 131.713 110.197 131.661 110.103 131.568C110.009 131.475 109.954 131.348 109.952 131.215C109.951 131.124 109.975 131.035 110.023 130.958L110.93 129.506L109.166 129.562C109.099 129.565 109.031 129.554 108.968 129.531C108.905 129.507 108.847 129.472 108.798 129.425C108.716 129.333 108.67 129.214 108.67 129.09C108.67 128.967 108.716 128.847 108.798 128.755C108.847 128.708 108.904 128.671 108.968 128.647C109.031 128.623 109.098 128.612 109.166 128.614L110.91 128.679L110.018 127.233C109.969 127.154 109.943 127.063 109.942 126.971C109.944 126.905 109.958 126.839 109.985 126.779C110.012 126.718 110.051 126.664 110.098 126.618C110.192 126.525 110.319 126.472 110.451 126.472C110.537 126.472 110.621 126.497 110.693 126.544C110.766 126.59 110.823 126.656 110.86 126.734L111.716 128.291L112.568 126.744C112.609 126.661 112.671 126.591 112.748 126.542C112.825 126.492 112.915 126.464 113.007 126.462C113.071 126.461 113.134 126.475 113.192 126.501C113.25 126.527 113.302 126.565 113.344 126.613C113.391 126.66 113.428 126.716 113.453 126.777C113.478 126.839 113.491 126.904 113.491 126.971C113.489 127.058 113.465 127.143 113.42 127.218L112.508 128.679L114.282 128.614C114.347 128.607 114.413 128.615 114.475 128.636C114.537 128.657 114.594 128.691 114.642 128.736C114.69 128.781 114.727 128.836 114.752 128.896C114.777 128.957 114.789 129.022 114.786 129.088C114.787 129.212 114.742 129.332 114.66 129.425C114.613 129.472 114.556 129.509 114.493 129.532C114.431 129.556 114.364 129.566 114.297 129.562L112.518 129.506L113.4 130.943C113.45 131.023 113.476 131.115 113.476 131.21C113.476 131.276 113.462 131.342 113.435 131.403C113.408 131.464 113.369 131.518 113.319 131.563C113.275 131.61 113.222 131.648 113.163 131.674C113.105 131.7 113.041 131.713 112.977 131.714C112.891 131.712 112.807 131.686 112.737 131.637C112.666 131.589 112.611 131.521 112.578 131.442L111.732 129.929L110.895 131.442C110.856 131.525 110.794 131.595 110.716 131.644C110.638 131.692 110.548 131.716 110.456 131.714Z" fill="#263238"/>
<path d="M118.632 131.714C118.499 131.713 118.373 131.661 118.279 131.568C118.201 131.489 118.151 131.386 118.137 131.276C118.124 131.165 118.147 131.054 118.203 130.958L119.105 129.506L117.341 129.562C117.274 129.565 117.207 129.554 117.144 129.531C117.08 129.507 117.022 129.472 116.973 129.425C116.891 129.333 116.846 129.214 116.846 129.09C116.846 128.967 116.891 128.847 116.973 128.755C117.022 128.708 117.08 128.671 117.143 128.647C117.206 128.623 117.274 128.612 117.341 128.614L119.085 128.679L118.188 127.233C118.139 127.154 118.113 127.063 118.112 126.971C118.114 126.838 118.169 126.711 118.264 126.618C118.358 126.525 118.484 126.472 118.616 126.472C118.702 126.472 118.786 126.497 118.859 126.544C118.931 126.59 118.988 126.656 119.025 126.734L119.882 128.291L120.733 126.744C120.774 126.661 120.836 126.591 120.913 126.542C120.991 126.492 121.08 126.464 121.172 126.462C121.237 126.461 121.3 126.475 121.359 126.501C121.419 126.527 121.471 126.565 121.515 126.613C121.607 126.709 121.658 126.838 121.656 126.971C121.654 127.058 121.63 127.143 121.585 127.218L120.673 128.679L122.447 128.614C122.512 128.607 122.578 128.615 122.64 128.636C122.702 128.657 122.759 128.691 122.807 128.736C122.855 128.781 122.892 128.836 122.917 128.896C122.942 128.957 122.954 129.022 122.951 129.088C122.952 129.212 122.907 129.332 122.825 129.425C122.778 129.472 122.721 129.509 122.658 129.532C122.596 129.556 122.529 129.566 122.462 129.562L120.683 129.506L121.565 130.943C121.615 131.023 121.641 131.115 121.641 131.21C121.641 131.276 121.628 131.342 121.601 131.403C121.574 131.464 121.534 131.518 121.484 131.563C121.441 131.61 121.388 131.648 121.329 131.674C121.27 131.7 121.206 131.713 121.142 131.714C121.056 131.712 120.973 131.686 120.902 131.637C120.831 131.589 120.776 131.521 120.744 131.442L119.897 129.929L119.06 131.442C119.022 131.523 118.962 131.592 118.886 131.641C118.81 131.689 118.722 131.714 118.632 131.714Z" fill="#263238"/>
<path d="M126.808 131.714C126.677 131.712 126.552 131.66 126.46 131.568C126.41 131.523 126.371 131.469 126.344 131.408C126.317 131.347 126.303 131.281 126.304 131.215C126.305 131.124 126.331 131.035 126.379 130.958L127.281 129.506L125.517 129.562C125.452 129.566 125.387 129.558 125.326 129.536C125.264 129.514 125.208 129.48 125.161 129.436C125.113 129.391 125.076 129.337 125.05 129.277C125.025 129.217 125.012 129.153 125.013 129.088C125.013 129.026 125.025 128.965 125.048 128.908C125.071 128.851 125.106 128.799 125.149 128.755C125.196 128.706 125.252 128.668 125.315 128.644C125.378 128.62 125.445 128.609 125.512 128.614L127.256 128.679L126.359 127.233C126.31 127.154 126.284 127.063 126.283 126.971C126.285 126.838 126.34 126.711 126.435 126.618C126.529 126.525 126.655 126.472 126.787 126.472C126.873 126.472 126.957 126.497 127.03 126.544C127.102 126.59 127.159 126.656 127.196 126.734L128.053 128.291L128.909 126.744C128.949 126.662 129.011 126.593 129.087 126.543C129.164 126.493 129.252 126.465 129.343 126.462C129.408 126.461 129.471 126.475 129.53 126.501C129.59 126.527 129.642 126.565 129.686 126.613C129.778 126.709 129.829 126.838 129.827 126.971C129.827 127.057 129.804 127.142 129.761 127.218L128.849 128.679L130.618 128.614C130.685 128.609 130.753 128.62 130.815 128.644C130.878 128.668 130.935 128.706 130.981 128.755C131.067 128.844 131.114 128.964 131.112 129.088C131.112 129.213 131.065 129.333 130.981 129.425C130.934 129.472 130.877 129.509 130.814 129.532C130.752 129.556 130.685 129.566 130.618 129.562L128.839 129.506L129.721 130.943C129.771 131.023 129.797 131.115 129.797 131.21C129.795 131.343 129.74 131.47 129.645 131.563C129.554 131.656 129.429 131.711 129.298 131.714C129.212 131.712 129.128 131.686 129.058 131.637C128.987 131.589 128.932 131.521 128.899 131.442L128.053 129.929L127.216 131.442C127.18 131.52 127.122 131.587 127.05 131.635C126.978 131.683 126.894 131.711 126.808 131.714Z" fill="#263238"/>
<g style="mix-blend-mode:multiply">
<path d="M152.237 29.5994H63.0107V35.1892H152.237V29.5994Z" fill="#FDC949"/>
</g>
<path d="M117.326 19.3021H97.9207C97.5704 19.3021 97.2346 19.1629 96.9869 18.9153C96.7392 18.6676 96.6001 18.3317 96.6001 17.9815C96.6001 17.6312 96.7392 17.2953 96.9869 17.0477C97.2346 16.8 97.5704 16.6609 97.9207 16.6609H117.326C117.677 16.6609 118.013 16.8 118.26 17.0477C118.508 17.2953 118.647 17.6312 118.647 17.9815C118.647 18.3317 118.508 18.6676 118.26 18.9153C118.013 19.1629 117.677 19.3021 117.326 19.3021Z" fill="#FDC949" stroke="#263238" stroke-width="1.33739" stroke-linecap="round" stroke-linejoin="round"/>
<path d="M112.915 181.921C112.916 180.874 112.607 179.85 112.026 178.979C111.444 178.108 110.618 177.429 109.651 177.028C108.683 176.626 107.619 176.521 106.592 176.725C105.565 176.929 104.621 177.433 103.881 178.174C103.14 178.914 102.636 179.858 102.432 180.885C102.228 181.912 102.333 182.977 102.734 183.944C103.136 184.911 103.815 185.738 104.686 186.319C105.557 186.9 106.581 187.21 107.628 187.209C109.03 187.207 110.374 186.65 111.365 185.659C112.357 184.667 112.914 183.323 112.915 181.921Z" fill="#FDC949"/>
<path d="M110.31 179.24H104.947V184.603H110.31V179.24Z" fill="#FDC949" stroke="#263238" stroke-width="1.33739" stroke-linecap="round" stroke-linejoin="round"/>
<path d="M171.511 121.063C171.511 121.063 164.485 103.21 170.74 101.088C177.252 98.8753 176.965 110.665 176.713 116.411C176.183 128.69 174.828 130.973 173.814 127.974L171.511 121.063ZM169.399 134.99C171.33 137.51 171.874 134.899 168.391 123.11C166.758 117.565 163.209 106.35 157.766 110.559C152.539 114.591 164.979 129.209 164.979 129.209L169.399 134.99ZM165.669 145.222C167.509 146.855 167.544 144.794 163.174 136.28C161.123 132.293 156.783 124.224 153.229 128.216C149.817 132.067 161.445 141.427 161.445 141.427L165.669 145.222ZM161.637 157.39C163.477 159.028 163.512 156.961 159.142 148.453C157.09 144.466 152.751 136.391 149.197 140.388C145.805 144.249 157.398 153.609 157.398 153.609L161.637 157.39ZM173.28 132.621C170.337 133.77 172.675 135.02 184.969 134.985C190.735 134.985 202.51 134.723 200 128.317C197.595 122.162 180.085 130 180.085 130L173.28 132.621ZM169.928 140.807C166.813 141.346 168.86 143.04 180.916 145.449C186.567 146.583 198.155 148.675 196.97 141.921C195.836 135.408 177.116 139.612 177.116 139.612L169.928 140.807ZM166.178 150.802C163.527 151.185 165.221 152.662 175.357 154.98C180.11 156.069 189.863 158.111 189.016 152.349C188.21 146.805 172.282 149.94 172.282 149.94L166.178 150.802ZM163.33 160.061C160.735 160.721 162.574 162.012 172.907 163.242C177.746 163.816 187.661 164.814 186.214 159.174C184.818 153.761 169.313 158.554 169.313 158.554L163.33 160.061ZM178.522 122.575C177.01 125.963 180.15 125.449 190.826 116.134C195.826 111.764 205.857 102.62 197.913 98.0689C190.287 93.6938 182.086 114.803 182.086 114.803L178.522 122.575ZM163.724 172.123C162.126 173.055 163.693 173.418 171.022 171.957C174.46 171.276 181.451 169.764 179.087 166.78C176.798 163.907 167.423 169.956 167.423 169.956L163.724 172.123Z" fill="#FDC949"/>
<path opacity="0.3" d="M171.511 121.063C171.511 121.063 164.485 103.21 170.74 101.088C177.252 98.8753 176.965 110.665 176.713 116.411C176.183 128.69 174.828 130.973 173.814 127.974L171.511 121.063ZM169.399 134.99C171.33 137.51 171.874 134.899 168.391 123.11C166.758 117.565 163.209 106.35 157.766 110.559C152.539 114.591 164.979 129.209 164.979 129.209L169.399 134.99ZM165.669 145.222C167.509 146.855 167.544 144.794 163.174 136.28C161.123 132.293 156.783 124.224 153.229 128.216C149.817 132.067 161.445 141.427 161.445 141.427L165.669 145.222ZM161.637 157.39C163.477 159.028 163.512 156.961 159.142 148.453C157.09 144.466 152.751 136.391 149.197 140.388C145.805 144.249 157.398 153.609 157.398 153.609L161.637 157.39ZM173.28 132.621C170.337 133.77 172.675 135.02 184.969 134.985C190.735 134.985 202.51 134.723 200 128.317C197.595 122.162 180.085 130 180.085 130L173.28 132.621ZM169.928 140.807C166.813 141.346 168.86 143.04 180.916 145.449C186.567 146.583 198.155 148.675 196.97 141.921C195.836 135.408 177.116 139.612 177.116 139.612L169.928 140.807ZM166.178 150.802C163.527 151.185 165.221 152.662 175.357 154.98C180.11 156.069 189.863 158.111 189.016 152.349C188.21 146.805 172.282 149.94 172.282 149.94L166.178 150.802ZM163.33 160.061C160.735 160.721 162.574 162.012 172.907 163.242C177.746 163.816 187.661 164.814 186.214 159.174C184.818 153.761 169.313 158.554 169.313 158.554L163.33 160.061ZM178.522 122.575C177.01 125.963 180.15 125.449 190.826 116.134C195.826 111.764 205.857 102.62 197.913 98.0689C190.287 93.6938 182.086 114.803 182.086 114.803L178.522 122.575ZM163.724 172.123C162.126 173.055 163.693 173.418 171.022 171.957C174.46 171.276 181.451 169.764 179.087 166.78C176.798 163.907 167.423 169.956 167.423 169.956L163.724 172.123Z" fill="white"/>
<path d="M174.611 129.375L173.386 108.997L174.611 129.375ZM170.735 136.099L162.993 118.573L170.735 136.099ZM190.715 131.003L172.161 133.665L190.715 131.003ZM166.723 145.545L156.677 132.656L166.723 145.545ZM168.487 141.593L182.328 142.289L168.487 141.593ZM165.211 151.477L175.796 152.526L165.211 151.477ZM162.655 157.758L157.398 149.849L162.655 157.758ZM162.05 160.55L174.495 160.666L162.05 160.55ZM159.53 183.898C159.614 183.891 159.691 183.852 159.746 183.789C159.8 183.726 159.828 183.643 159.823 183.56C159.031 171.674 163.628 152.208 171.002 136.23C175.715 126.018 194.188 105.947 194.385 105.746C194.444 105.686 194.478 105.605 194.478 105.521C194.478 105.437 194.444 105.356 194.385 105.297C194.356 105.268 194.321 105.244 194.283 105.229C194.245 105.213 194.204 105.205 194.163 105.205C194.122 105.205 194.081 105.213 194.043 105.229C194.005 105.244 193.97 105.268 193.941 105.297C193.755 105.499 175.206 125.645 170.453 135.948C162.943 152.314 158.406 171.427 159.213 183.6C159.219 183.68 159.255 183.755 159.314 183.81C159.372 183.865 159.45 183.896 159.53 183.898ZM174.606 129.688C174.689 129.682 174.767 129.645 174.823 129.582C174.879 129.52 174.908 129.438 174.903 129.355L173.699 108.966C173.697 108.925 173.687 108.884 173.669 108.847C173.651 108.809 173.626 108.776 173.595 108.748C173.564 108.72 173.528 108.699 173.488 108.685C173.449 108.672 173.408 108.666 173.366 108.669C173.283 108.674 173.205 108.712 173.149 108.774C173.094 108.837 173.065 108.918 173.069 109.002L174.294 129.38C174.297 129.46 174.332 129.536 174.39 129.591C174.449 129.647 174.526 129.678 174.606 129.678V129.688ZM170.846 136.386C170.921 136.352 170.981 136.29 171.011 136.213C171.041 136.135 171.04 136.049 171.007 135.973L163.26 118.447C163.227 118.371 163.164 118.311 163.087 118.281C163.009 118.251 162.923 118.253 162.847 118.286C162.771 118.32 162.711 118.382 162.681 118.459C162.65 118.537 162.652 118.623 162.685 118.699L170.428 136.225C170.452 136.281 170.492 136.329 170.543 136.363C170.594 136.397 170.654 136.416 170.715 136.417C170.767 136.419 170.819 136.409 170.866 136.386H170.846ZM172.187 133.967L190.73 131.316C190.775 131.315 190.819 131.304 190.86 131.285C190.9 131.266 190.936 131.238 190.965 131.204C190.994 131.17 191.016 131.131 191.029 131.088C191.041 131.045 191.045 130.999 191.038 130.955C191.032 130.911 191.017 130.868 190.993 130.83C190.97 130.792 190.938 130.76 190.901 130.735C190.864 130.71 190.822 130.693 190.778 130.685C190.733 130.678 190.688 130.679 190.645 130.691L172.101 133.342C172.018 133.347 171.941 133.385 171.886 133.448C171.831 133.51 171.803 133.592 171.809 133.675C171.814 133.757 171.852 133.835 171.914 133.89C171.977 133.944 172.058 133.972 172.141 133.967H172.187ZM166.899 145.797C166.965 145.745 167.008 145.67 167.018 145.586C167.029 145.503 167.006 145.42 166.955 145.353L156.904 132.44C156.853 132.373 156.777 132.329 156.693 132.318C156.609 132.307 156.525 132.33 156.458 132.382C156.391 132.433 156.348 132.509 156.337 132.593C156.326 132.676 156.349 132.761 156.4 132.828L166.471 145.762C166.5 145.799 166.538 145.83 166.58 145.851C166.623 145.872 166.67 145.883 166.718 145.883C166.793 145.879 166.865 145.848 166.919 145.797H166.899ZM182.605 142.304C182.608 142.22 182.578 142.139 182.521 142.078C182.465 142.017 182.386 141.98 182.303 141.976L168.487 141.276C168.409 141.281 168.336 141.315 168.282 141.37C168.228 141.426 168.195 141.499 168.192 141.577C168.188 141.655 168.213 141.731 168.262 141.792C168.311 141.852 168.38 141.893 168.457 141.906L182.298 142.606C182.381 142.609 182.462 142.579 182.524 142.522C182.585 142.466 182.622 142.387 182.625 142.304H182.605ZM176.088 152.556C176.093 152.515 176.089 152.473 176.078 152.432C176.066 152.392 176.047 152.355 176.02 152.323C175.994 152.29 175.961 152.263 175.925 152.244C175.888 152.224 175.847 152.212 175.806 152.208L165.221 151.165C165.18 151.161 165.138 151.165 165.099 151.177C165.059 151.189 165.022 151.208 164.991 151.235C164.959 151.261 164.932 151.293 164.913 151.33C164.894 151.366 164.882 151.406 164.878 151.447C164.871 151.53 164.897 151.612 164.949 151.676C165.002 151.74 165.078 151.781 165.16 151.79L175.745 152.838H175.775C175.857 152.844 175.937 152.818 175.999 152.765C176.061 152.712 176.1 152.637 176.108 152.556H176.088ZM162.806 158.02C162.876 157.974 162.925 157.902 162.942 157.819C162.959 157.737 162.943 157.652 162.897 157.581L157.665 149.673C157.617 149.605 157.545 149.558 157.463 149.542C157.381 149.526 157.297 149.542 157.227 149.587C157.157 149.634 157.108 149.706 157.091 149.788C157.074 149.87 157.09 149.956 157.136 150.026L162.368 157.934C162.398 157.977 162.438 158.013 162.484 158.037C162.531 158.062 162.582 158.075 162.635 158.075C162.703 158.079 162.771 158.06 162.827 158.02H162.806ZM174.813 160.666C174.812 160.583 174.778 160.504 174.72 160.445C174.662 160.386 174.583 160.351 174.5 160.349L162.055 160.233C161.973 160.233 161.893 160.266 161.834 160.324C161.776 160.383 161.743 160.462 161.743 160.545C161.742 160.587 161.749 160.628 161.764 160.667C161.779 160.706 161.802 160.741 161.831 160.771C161.86 160.801 161.895 160.824 161.934 160.84C161.972 160.856 162.014 160.863 162.055 160.863L174.5 160.979C174.543 160.981 174.585 160.974 174.625 160.959C174.665 160.945 174.702 160.922 174.733 160.893C174.764 160.864 174.789 160.829 174.806 160.79C174.823 160.751 174.832 160.709 174.833 160.666H174.813ZM158.114 179.275C158.139 179.22 160.261 173.373 166.642 171.977C166.724 171.959 166.796 171.909 166.841 171.838C166.887 171.767 166.902 171.681 166.884 171.599C166.864 171.518 166.813 171.449 166.743 171.405C166.672 171.36 166.588 171.345 166.506 171.362C159.777 172.834 157.544 179.008 157.519 179.069C157.493 179.148 157.499 179.235 157.536 179.31C157.572 179.385 157.637 179.443 157.716 179.472H157.816C157.883 179.478 157.951 179.462 158.008 179.426C158.065 179.391 158.109 179.338 158.134 179.275H158.114ZM159.53 183.898C159.614 183.891 159.691 183.852 159.746 183.789C159.8 183.726 159.828 183.643 159.823 183.56C159.031 171.674 163.628 152.208 171.002 136.23C175.715 126.018 194.188 105.947 194.385 105.746C194.444 105.686 194.478 105.605 194.478 105.521C194.478 105.437 194.444 105.356 194.385 105.297C194.356 105.268 194.321 105.244 194.283 105.229C194.245 105.213 194.204 105.205 194.163 105.205C194.122 105.205 194.081 105.213 194.043 105.229C194.005 105.244 193.97 105.268 193.941 105.297C193.755 105.499 175.206 125.645 170.453 135.948C162.943 152.314 158.406 171.427 159.213 183.6C159.219 183.68 159.255 183.755 159.314 183.81C159.372 183.865 159.45 183.896 159.53 183.898ZM174.606 129.688C174.689 129.682 174.767 129.645 174.823 129.582C174.879 129.52 174.908 129.438 174.903 129.355L173.699 108.966C173.697 108.925 173.687 108.884 173.669 108.847C173.651 108.809 173.626 108.776 173.595 108.748C173.564 108.72 173.528 108.699 173.488 108.685C173.449 108.672 173.408 108.666 173.366 108.669C173.283 108.674 173.205 108.712 173.149 108.774C173.094 108.837 173.065 108.918 173.069 109.002L174.294 129.38C174.297 129.46 174.332 129.536 174.39 129.591C174.449 129.647 174.526 129.678 174.606 129.678V129.688ZM170.846 136.386C170.921 136.352 170.981 136.29 171.011 136.213C171.041 136.135 171.04 136.049 171.007 135.973L163.26 118.447C163.227 118.371 163.164 118.311 163.087 118.281C163.009 118.251 162.923 118.253 162.847 118.286C162.771 118.32 162.711 118.382 162.681 118.459C162.65 118.537 162.652 118.623 162.685 118.699L170.428 136.225C170.452 136.281 170.492 136.329 170.543 136.363C170.594 136.397 170.654 136.416 170.715 136.417C170.767 136.419 170.819 136.409 170.866 136.386H170.846ZM172.187 133.967L190.73 131.316C190.775 131.315 190.819 131.304 190.86 131.285C190.9 131.266 190.936 131.238 190.965 131.204C190.994 131.17 191.016 131.131 191.029 131.088C191.041 131.045 191.045 130.999 191.038 130.955C191.032 130.911 191.017 130.868 190.993 130.83C190.97 130.792 190.938 130.76 190.901 130.735C190.864 130.71 190.822 130.693 190.778 130.685C190.733 130.678 190.688 130.679 190.645 130.691L172.101 133.342C172.018 133.347 171.941 133.385 171.886 133.448C171.831 133.51 171.803 133.592 171.809 133.675C171.814 133.757 171.852 133.835 171.914 133.89C171.977 133.944 172.058 133.972 172.141 133.967H172.187ZM166.899 145.797C166.965 145.745 167.008 145.67 167.018 145.586C167.029 145.503 167.006 145.42 166.955 145.353L156.904 132.44C156.879 132.407 156.847 132.379 156.811 132.358C156.774 132.337 156.734 132.324 156.693 132.318C156.652 132.313 156.61 132.316 156.569 132.327C156.529 132.338 156.491 132.356 156.458 132.382C156.425 132.407 156.397 132.439 156.376 132.475C156.356 132.511 156.342 132.551 156.337 132.593C156.331 132.634 156.334 132.676 156.345 132.717C156.356 132.757 156.375 132.795 156.4 132.828L166.471 145.762C166.5 145.799 166.538 145.83 166.58 145.851C166.623 145.872 166.67 145.883 166.718 145.883C166.793 145.879 166.865 145.848 166.919 145.797H166.899ZM182.605 142.304C182.608 142.22 182.578 142.139 182.521 142.078C182.465 142.017 182.386 141.98 182.303 141.976L168.487 141.276C168.409 141.281 168.336 141.315 168.282 141.37C168.228 141.426 168.195 141.499 168.192 141.577C168.188 141.655 168.213 141.731 168.262 141.792C168.311 141.852 168.38 141.893 168.457 141.906L182.298 142.606C182.381 142.609 182.462 142.579 182.524 142.522C182.585 142.466 182.622 142.387 182.625 142.304H182.605ZM176.088 152.556C176.093 152.515 176.089 152.473 176.078 152.432C176.066 152.392 176.047 152.355 176.02 152.323C175.994 152.29 175.961 152.263 175.925 152.244C175.888 152.224 175.847 152.212 175.806 152.208L165.221 151.165C165.18 151.161 165.138 151.165 165.099 151.177C165.059 151.189 165.022 151.208 164.991 151.235C164.959 151.261 164.932 151.293 164.913 151.33C164.894 151.366 164.882 151.406 164.878 151.447C164.871 151.53 164.897 151.612 164.949 151.676C165.002 151.74 165.078 151.781 165.16 151.79L175.745 152.838H175.775C175.857 152.844 175.937 152.818 175.999 152.765C176.061 152.712 176.1 152.637 176.108 152.556H176.088ZM162.806 158.02C162.876 157.974 162.925 157.902 162.942 157.819C162.959 157.737 162.943 157.652 162.897 157.581L157.665 149.673C157.617 149.605 157.545 149.558 157.463 149.542C157.381 149.526 157.297 149.542 157.227 149.587C157.157 149.634 157.108 149.706 157.091 149.788C157.074 149.87 157.09 149.956 157.136 150.026L162.368 157.934C162.398 157.977 162.438 158.013 162.484 158.037C162.531 158.062 162.582 158.075 162.635 158.075C162.703 158.079 162.771 158.06 162.827 158.02H162.806ZM174.813 160.666C174.812 160.583 174.778 160.504 174.72 160.445C174.662 160.386 174.583 160.351 174.5 160.349L162.055 160.233C161.973 160.233 161.893 160.266 161.834 160.324C161.776 160.383 161.743 160.462 161.743 160.545C161.742 160.587 161.749 160.628 161.764 160.667C161.779 160.706 161.802 160.741 161.831 160.771C161.86 160.801 161.895 160.824 161.934 160.84C161.972 160.856 162.014 160.863 162.055 160.863L174.5 160.979C174.543 160.981 174.585 160.974 174.625 160.959C174.665 160.945 174.702 160.922 174.733 160.893C174.764 160.864 174.789 160.829 174.806 160.79C174.823 160.751 174.832 160.709 174.833 160.666H174.813ZM158.114 179.275C158.139 179.22 160.261 173.373 166.642 171.977C166.724 171.959 166.796 171.909 166.841 171.838C166.887 171.767 166.902 171.681 166.884 171.599C166.864 171.518 166.813 171.449 166.743 171.405C166.672 171.36 166.588 171.345 166.506 171.362C159.777 172.834 157.544 179.008 157.519 179.069C157.493 179.148 157.499 179.235 157.536 179.31C157.572 179.385 157.637 179.443 157.716 179.472H157.816C157.883 179.478 157.951 179.462 158.008 179.426C158.065 179.391 158.109 179.338 158.134 179.275H158.114Z" fill="#FDC949"/>
<path opacity="0.2" d="M174.611 129.375L173.386 108.997L174.611 129.375ZM170.735 136.099L162.993 118.573L170.735 136.099ZM190.715 131.003L172.161 133.665L190.715 131.003ZM166.723 145.545L156.677 132.656L166.723 145.545ZM168.487 141.593L182.328 142.289L168.487 141.593ZM165.211 151.477L175.796 152.526L165.211 151.477ZM162.655 157.758L157.398 149.849L162.655 157.758ZM162.05 160.55L174.495 160.666L162.05 160.55ZM159.53 183.898C159.614 183.891 159.691 183.852 159.746 183.789C159.8 183.726 159.828 183.643 159.823 183.56C159.031 171.674 163.628 152.208 171.002 136.23C175.715 126.018 194.188 105.947 194.385 105.746C194.444 105.686 194.478 105.605 194.478 105.521C194.478 105.437 194.444 105.356 194.385 105.297C194.356 105.268 194.321 105.244 194.283 105.229C194.245 105.213 194.204 105.205 194.163 105.205C194.122 105.205 194.081 105.213 194.043 105.229C194.005 105.244 193.97 105.268 193.941 105.297C193.755 105.499 175.206 125.645 170.453 135.948C162.943 152.314 158.406 171.427 159.213 183.6C159.219 183.68 159.255 183.755 159.314 183.81C159.372 183.865 159.45 183.896 159.53 183.898ZM174.606 129.688C174.689 129.682 174.767 129.645 174.823 129.582C174.879 129.52 174.908 129.438 174.903 129.355L173.699 108.966C173.697 108.925 173.687 108.884 173.669 108.847C173.651 108.809 173.626 108.776 173.595 108.748C173.564 108.72 173.528 108.699 173.488 108.685C173.449 108.672 173.408 108.666 173.366 108.669C173.283 108.674 173.205 108.712 173.149 108.774C173.094 108.837 173.065 108.918 173.069 109.002L174.294 129.38C174.297 129.46 174.332 129.536 174.39 129.591C174.449 129.647 174.526 129.678 174.606 129.678V129.688ZM170.846 136.386C170.921 136.352 170.981 136.29 171.011 136.213C171.041 136.135 171.04 136.049 171.007 135.973L163.26 118.447C163.227 118.371 163.164 118.311 163.087 118.281C163.009 118.251 162.923 118.253 162.847 118.286C162.771 118.32 162.711 118.382 162.681 118.459C162.65 118.537 162.652 118.623 162.685 118.699L170.428 136.225C170.452 136.281 170.492 136.329 170.543 136.363C170.594 136.397 170.654 136.416 170.715 136.417C170.767 136.419 170.819 136.409 170.866 136.386H170.846ZM172.187 133.967L190.73 131.316C190.775 131.315 190.819 131.304 190.86 131.285C190.9 131.266 190.936 131.238 190.965 131.204C190.994 131.17 191.016 131.131 191.029 131.088C191.041 131.045 191.045 130.999 191.038 130.955C191.032 130.911 191.017 130.868 190.993 130.83C190.97 130.792 190.938 130.76 190.901 130.735C190.864 130.71 190.822 130.693 190.778 130.685C190.733 130.678 190.688 130.679 190.645 130.691L172.101 133.342C172.018 133.347 171.941 133.385 171.886 133.448C171.831 133.51 171.803 133.592 171.809 133.675C171.814 133.757 171.852 133.835 171.914 133.89C171.977 133.944 172.058 133.972 172.141 133.967H172.187ZM166.899 145.797C166.965 145.745 167.008 145.67 167.018 145.586C167.029 145.503 167.006 145.42 166.955 145.353L156.904 132.44C156.853 132.373 156.777 132.329 156.693 132.318C156.609 132.307 156.525 132.33 156.458 132.382C156.391 132.433 156.348 132.509 156.337 132.593C156.326 132.676 156.349 132.761 156.4 132.828L166.471 145.762C166.5 145.799 166.538 145.83 166.58 145.851C166.623 145.872 166.67 145.883 166.718 145.883C166.793 145.879 166.865 145.848 166.919 145.797H166.899ZM182.605 142.304C182.608 142.22 182.578 142.139 182.521 142.078C182.465 142.017 182.386 141.98 182.303 141.976L168.487 141.276C168.409 141.281 168.336 141.315 168.282 141.37C168.228 141.426 168.195 141.499 168.192 141.577C168.188 141.655 168.213 141.731 168.262 141.792C168.311 141.852 168.38 141.893 168.457 141.906L182.298 142.606C182.381 142.609 182.462 142.579 182.524 142.522C182.585 142.466 182.622 142.387 182.625 142.304H182.605ZM176.088 152.556C176.093 152.515 176.089 152.473 176.078 152.432C176.066 152.392 176.047 152.355 176.02 152.323C175.994 152.29 175.961 152.263 175.925 152.244C175.888 152.224 175.847 152.212 175.806 152.208L165.221 151.165C165.18 151.161 165.138 151.165 165.099 151.177C165.059 151.189 165.022 151.208 164.991 151.235C164.959 151.261 164.932 151.293 164.913 151.33C164.894 151.366 164.882 151.406 164.878 151.447C164.871 151.53 164.897 151.612 164.949 151.676C165.002 151.74 165.078 151.781 165.16 151.79L175.745 152.838H175.775C175.857 152.844 175.937 152.818 175.999 152.765C176.061 152.712 176.1 152.637 176.108 152.556H176.088ZM162.806 158.02C162.876 157.974 162.925 157.902 162.942 157.819C162.959 157.737 162.943 157.652 162.897 157.581L157.665 149.673C157.617 149.605 157.545 149.558 157.463 149.542C157.381 149.526 157.297 149.542 157.227 149.587C157.157 149.634 157.108 149.706 157.091 149.788C157.074 149.87 157.09 149.956 157.136 150.026L162.368 157.934C162.398 157.977 162.438 158.013 162.484 158.037C162.531 158.062 162.582 158.075 162.635 158.075C162.703 158.079 162.771 158.06 162.827 158.02H162.806ZM174.813 160.666C174.812 160.583 174.778 160.504 174.72 160.445C174.662 160.386 174.583 160.351 174.5 160.349L162.055 160.233C161.973 160.233 161.893 160.266 161.834 160.324C161.776 160.383 161.743 160.462 161.743 160.545C161.742 160.587 161.749 160.628 161.764 160.667C161.779 160.706 161.802 160.741 161.831 160.771C161.86 160.801 161.895 160.824 161.934 160.84C161.972 160.856 162.014 160.863 162.055 160.863L174.5 160.979C174.543 160.981 174.585 160.974 174.625 160.959C174.665 160.945 174.702 160.922 174.733 160.893C174.764 160.864 174.789 160.829 174.806 160.79C174.823 160.751 174.832 160.709 174.833 160.666H174.813ZM158.114 179.275C158.139 179.22 160.261 173.373 166.642 171.977C166.724 171.959 166.796 171.909 166.841 171.838C166.887 171.767 166.902 171.681 166.884 171.599C166.864 171.518 166.813 171.449 166.743 171.405C166.672 171.36 166.588 171.345 166.506 171.362C159.777 172.834 157.544 179.008 157.519 179.069C157.493 179.148 157.499 179.235 157.536 179.31C157.572 179.385 157.637 179.443 157.716 179.472H157.816C157.883 179.478 157.951 179.462 158.008 179.426C158.065 179.391 158.109 179.338 158.134 179.275H158.114ZM159.53 183.898C159.614 183.891 159.691 183.852 159.746 183.789C159.8 183.726 159.828 183.643 159.823 183.56C159.031 171.674 163.628 152.208 171.002 136.23C175.715 126.018 194.188 105.947 194.385 105.746C194.444 105.686 194.478 105.605 194.478 105.521C194.478 105.437 194.444 105.356 194.385 105.297C194.356 105.268 194.321 105.244 194.283 105.229C194.245 105.213 194.204 105.205 194.163 105.205C194.122 105.205 194.081 105.213 194.043 105.229C194.005 105.244 193.97 105.268 193.941 105.297C193.755 105.499 175.206 125.645 170.453 135.948C162.943 152.314 158.406 171.427 159.213 183.6C159.219 183.68 159.255 183.755 159.314 183.81C159.372 183.865 159.45 183.896 159.53 183.898ZM174.606 129.688C174.689 129.682 174.767 129.645 174.823 129.582C174.879 129.52 174.908 129.438 174.903 129.355L173.699 108.966C173.697 108.925 173.687 108.884 173.669 108.847C173.651 108.809 173.626 108.776 173.595 108.748C173.564 108.72 173.528 108.699 173.488 108.685C173.449 108.672 173.408 108.666 173.366 108.669C173.283 108.674 173.205 108.712 173.149 108.774C173.094 108.837 173.065 108.918 173.069 109.002L174.294 129.38C174.297 129.46 174.332 129.536 174.39 129.591C174.449 129.647 174.526 129.678 174.606 129.678V129.688ZM170.846 136.386C170.921 136.352 170.981 136.29 171.011 136.213C171.041 136.135 171.04 136.049 171.007 135.973L163.26 118.447C163.227 118.371 163.164 118.311 163.087 118.281C163.009 118.251 162.923 118.253 162.847 118.286C162.771 118.32 162.711 118.382 162.681 118.459C162.65 118.537 162.652 118.623 162.685 118.699L170.428 136.225C170.452 136.281 170.492 136.329 170.543 136.363C170.594 136.397 170.654 136.416 170.715 136.417C170.767 136.419 170.819 136.409 170.866 136.386H170.846ZM172.187 133.967L190.73 131.316C190.775 131.315 190.819 131.304 190.86 131.285C190.9 131.266 190.936 131.238 190.965 131.204C190.994 131.17 191.016 131.131 191.029 131.088C191.041 131.045 191.045 130.999 191.038 130.955C191.032 130.911 191.017 130.868 190.993 130.83C190.97 130.792 190.938 130.76 190.901 130.735C190.864 130.71 190.822 130.693 190.778 130.685C190.733 130.678 190.688 130.679 190.645 130.691L172.101 133.342C172.018 133.347 171.941 133.385 171.886 133.448C171.831 133.51 171.803 133.592 171.809 133.675C171.814 133.757 171.852 133.835 171.914 133.89C171.977 133.944 172.058 133.972 172.141 133.967H172.187ZM166.899 145.797C166.965 145.745 167.008 145.67 167.018 145.586C167.029 145.503 167.006 145.42 166.955 145.353L156.904 132.44C156.879 132.407 156.847 132.379 156.811 132.358C156.774 132.337 156.734 132.324 156.693 132.318C156.652 132.313 156.61 132.316 156.569 132.327C156.529 132.338 156.491 132.356 156.458 132.382C156.425 132.407 156.397 132.439 156.376 132.475C156.356 132.511 156.342 132.551 156.337 132.593C156.331 132.634 156.334 132.676 156.345 132.717C156.356 132.757 156.375 132.795 156.4 132.828L166.471 145.762C166.5 145.799 166.538 145.83 166.58 145.851C166.623 145.872 166.67 145.883 166.718 145.883C166.793 145.879 166.865 145.848 166.919 145.797H166.899ZM182.605 142.304C182.608 142.22 182.578 142.139 182.521 142.078C182.465 142.017 182.386 141.98 182.303 141.976L168.487 141.276C168.409 141.281 168.336 141.315 168.282 141.37C168.228 141.426 168.195 141.499 168.192 141.577C168.188 141.655 168.213 141.731 168.262 141.792C168.311 141.852 168.38 141.893 168.457 141.906L182.298 142.606C182.381 142.609 182.462 142.579 182.524 142.522C182.585 142.466 182.622 142.387 182.625 142.304H182.605ZM176.088 152.556C176.093 152.515 176.089 152.473 176.078 152.432C176.066 152.392 176.047 152.355 176.02 152.323C175.994 152.29 175.961 152.263 175.925 152.244C175.888 152.224 175.847 152.212 175.806 152.208L165.221 151.165C165.18 151.161 165.138 151.165 165.099 151.177C165.059 151.189 165.022 151.208 164.991 151.235C164.959 151.261 164.932 151.293 164.913 151.33C164.894 151.366 164.882 151.406 164.878 151.447C164.871 151.53 164.897 151.612 164.949 151.676C165.002 151.74 165.078 151.781 165.16 151.79L175.745 152.838H175.775C175.857 152.844 175.937 152.818 175.999 152.765C176.061 152.712 176.1 152.637 176.108 152.556H176.088ZM162.806 158.02C162.876 157.974 162.925 157.902 162.942 157.819C162.959 157.737 162.943 157.652 162.897 157.581L157.665 149.673C157.617 149.605 157.545 149.558 157.463 149.542C157.381 149.526 157.297 149.542 157.227 149.587C157.157 149.634 157.108 149.706 157.091 149.788C157.074 149.87 157.09 149.956 157.136 150.026L162.368 157.934C162.398 157.977 162.438 158.013 162.484 158.037C162.531 158.062 162.582 158.075 162.635 158.075C162.703 158.079 162.771 158.06 162.827 158.02H162.806ZM174.813 160.666C174.812 160.583 174.778 160.504 174.72 160.445C174.662 160.386 174.583 160.351 174.5 160.349L162.055 160.233C161.973 160.233 161.893 160.266 161.834 160.324C161.776 160.383 161.743 160.462 161.743 160.545C161.742 160.587 161.749 160.628 161.764 160.667C161.779 160.706 161.802 160.741 161.831 160.771C161.86 160.801 161.895 160.824 161.934 160.84C161.972 160.856 162.014 160.863 162.055 160.863L174.5 160.979C174.543 160.981 174.585 160.974 174.625 160.959C174.665 160.945 174.702 160.922 174.733 160.893C174.764 160.864 174.789 160.829 174.806 160.79C174.823 160.751 174.832 160.709 174.833 160.666H174.813ZM158.114 179.275C158.139 179.22 160.261 173.373 166.642 171.977C166.724 171.959 166.796 171.909 166.841 171.838C166.887 171.767 166.902 171.681 166.884 171.599C166.864 171.518 166.813 171.449 166.743 171.405C166.672 171.36 166.588 171.345 166.506 171.362C159.777 172.834 157.544 179.008 157.519 179.069C157.493 179.148 157.499 179.235 157.536 179.31C157.572 179.385 157.637 179.443 157.716 179.472H157.816C157.883 179.478 157.951 179.462 158.008 179.426C158.065 179.391 158.109 179.338 158.134 179.275H158.114Z" fill="black"/>
<path d="M167.761 175.011H153.492V177.965H154.737L157.312 194.079H163.941L166.516 177.965H167.761V175.011Z" fill="#FDC949"/>
<path opacity="0.3" d="M167.761 175.011H153.492V177.965H154.737L157.312 194.079H163.941L166.516 177.965H167.761V175.011Z" fill="white"/>
<path d="M39.2893 85.6945L22.6911 80.2761L21.2143 76.3748L17.8422 76.2689L11.7231 75.1096L12.459 76.3748L20.1608 81.9646L22.0611 82.9122L39.4203 91.98L39.2893 85.6945Z" fill="white" stroke="#263238" stroke-width="1.00396" stroke-miterlimit="10"/>
<path d="M21.2142 76.3748L19.6315 75.4272L16.4712 76.5865L16.9954 77.2166L21.2142 76.3748Z" fill="white" stroke="#263238" stroke-width="1.00396" stroke-linejoin="round"/>
<path d="M39.2893 85.6945L22.6911 80.2761L21.2143 76.3748L17.8422 76.2689L11.7231 75.1096L12.459 76.3748L20.1608 81.9646L22.0611 82.9122L39.4203 91.98L39.2893 85.6945Z" fill="white"/>
<path opacity="0.5" d="M39.2893 85.6945L22.6911 80.2761L21.2143 76.3748L17.8422 76.2689L11.7231 75.1096L12.459 76.3748L20.1608 81.9646L22.0611 82.9122L39.4203 91.98L39.2893 85.6945Z" fill="#FDC949" stroke="#263238" stroke-width="1.00396" stroke-miterlimit="10"/>
<path d="M39.2893 85.6945L22.6911 80.2761L21.2143 76.3748L17.8422 76.2689L11.7231 75.1096L12.459 76.3748L20.1608 81.9646L22.0611 82.9122L39.4203 91.98L39.2893 85.6945Z" stroke="#263238" stroke-width="1.00396" stroke-miterlimit="10"/>
<path d="M21.2142 76.3748L19.6315 75.4272L16.4712 76.5865L16.9954 77.2166L21.2142 76.3748Z" fill="white"/>
<path opacity="0.5" d="M21.2142 76.3748L19.6315 75.4272L16.4712 76.5865L16.9954 77.2166L21.2142 76.3748Z" fill="#FDC949" stroke="#263238" stroke-width="1.00396" stroke-linejoin="round"/>
<path d="M21.2142 76.3748L19.6315 75.4272L16.4712 76.5865L16.9954 77.2166L21.2142 76.3748Z" stroke="#263238" stroke-width="1.00396" stroke-linejoin="round"/>
<path d="M42.8126 50.5275C42.8126 50.5275 42.5555 52.7957 43.1956 54.2524C43.8358 55.7091 47.3893 60.6437 47.3893 60.6437L40.7561 65.9613C40.7561 65.9613 38.004 60.4169 37.4798 59.5197C36.9556 58.6225 36.3255 54.7615 38.0342 51.9943C39.7429 49.2271 42.2027 48.4811 42.8126 50.5275Z" fill="white"/>
<g style="mix-blend-mode:multiply" opacity="0.5">
<path d="M39.4058 57.8157L42.2839 63.7836L40.7516 65.9661L37.8584 60.7996L39.4058 57.8157Z" fill="#FDC949"/>
</g>
<path d="M42.8126 50.5275C42.8126 50.5275 42.5555 52.7957 43.1956 54.2524C43.8358 55.7091 47.3893 60.6437 47.3893 60.6437L40.7561 65.9613C40.7561 65.9613 38.004 60.4169 37.4798 59.5197C36.9556 58.6225 36.3255 54.7615 38.0342 51.9943C39.7429 49.2271 42.2027 48.4811 42.8126 50.5275Z" stroke="#263238" stroke-width="1.00396" stroke-miterlimit="10"/>
<path d="M44.8696 46.374C44.4613 43.8537 41.5732 38.7276 36.9914 38.9242C34.0175 39.0552 32.6264 39.6551 31.336 40.3859C30.2842 41.0056 29.3038 41.7392 28.4126 42.5735C26.1746 45.26 25.3883 45.9959 25.8218 48.0524C25.7862 48.8727 25.9147 49.6918 26.1998 50.4618C26.8853 52.2914 27.3541 53.486 27.9488 54.358C27.7674 55.2099 27.2936 57.4579 27.2684 57.972C27.2432 58.4861 28.7805 58.1283 29.5568 57.9317C30.9983 61.1576 33.6395 63.3955 34.4611 63.6526C35.8926 64.1012 38.1557 61.7473 39.3554 59.9227C40.555 58.098 39.6477 56.0466 39.6527 55.23C39.6578 54.4135 42.3494 52.6191 43.3474 52.0495C44.3454 51.4799 45.2728 48.8891 44.8696 46.374Z" fill="white"/>
<g style="mix-blend-mode:multiply" opacity="0.5">
<path d="M25.8417 48.0524C25.8062 48.8727 25.9347 49.6918 26.2198 50.4618C26.9053 52.2914 27.374 53.486 27.9688 54.358C27.7874 55.2099 27.3136 57.4579 27.2883 57.972C27.2631 58.4861 28.8005 58.1283 29.5767 57.9317C31.0183 61.1576 33.6595 63.3955 34.4811 63.6526C35.9125 64.1012 38.1757 61.7473 39.3753 59.9227C39.675 59.4671 39.8696 58.9506 39.9449 58.4105C39.8794 58.1736 39.834 58.0275 39.834 58.0275C39.834 58.0275 39.1586 60.6233 37.8178 60.2856C36.4771 59.9479 34.4256 57.2613 33.2814 56.3339C32.1372 55.4064 32.606 54.1867 32.3792 52.8056C32.1524 51.4245 28.7652 50.2097 28.5384 49.4184C28.3116 48.6271 29.1029 45.3508 29.1029 45.3508C29.1029 45.3508 30.3882 43.637 30.111 44.3427C29.9151 44.9545 29.844 45.5995 29.902 46.2394C29.96 46.8792 30.1459 47.5009 30.4487 48.0676C30.6612 48.5147 30.9982 48.8909 31.4194 49.1511C31.8405 49.4113 32.3278 49.5444 32.8227 49.5343L34.0526 43.4404L31.4568 41.2932L28.4325 42.5533C26.1744 45.26 25.4032 45.9959 25.8417 48.0524Z" fill="#FDC949"/>
</g>
<path d="M44.8696 46.374C44.4613 43.8537 41.5732 38.7276 36.9914 38.9242C34.0175 39.0552 32.6264 39.6551 31.336 40.3859C30.2842 41.0056 29.3038 41.7392 28.4126 42.5735C26.1746 45.26 25.3883 45.9959 25.8218 48.0524C25.7862 48.8727 25.9147 49.6918 26.1998 50.4618C26.8853 52.2914 27.3541 53.486 27.9488 54.358C27.7674 55.2099 27.2936 57.4579 27.2684 57.972C27.2432 58.4861 28.7805 58.1283 29.5568 57.9317C30.9983 61.1576 33.6395 63.3955 34.4611 63.6526C35.8926 64.1012 38.1557 61.7473 39.3554 59.9227C40.555 58.098 39.6477 56.0466 39.6527 55.23C39.6578 54.4135 42.3494 52.6191 43.3474 52.0495C44.3454 51.4799 45.2728 48.8891 44.8696 46.374Z" stroke="#263238" stroke-miterlimit="10"/>
<path d="M28.5737 52.8359L29.0778 54.2775C29.0778 54.2775 30.1615 54.6354 31.4821 53.1938" stroke="#263238" stroke-miterlimit="10" stroke-linecap="round"/>
<path d="M32.2983 59.5701C32.2983 59.5701 33.498 59.4491 33.9818 57.7656" stroke="#263238" stroke-miterlimit="10" stroke-linecap="round"/>
<path d="M27.7319 51.6313C27.7319 51.6313 28.0898 50.5476 30.2522 50.5476" stroke="#263238" stroke-miterlimit="10" stroke-linecap="round"/>
<path d="M38.8158 36.9182C37.2445 36.6922 35.66 36.571 34.0727 36.5553C34.0727 36.5553 29.3246 33.8183 24.763 36.7367C20.2014 39.6551 22.394 44.7661 22.394 46.0414C22.394 47.3166 20.9323 47.3216 21.8446 48.9648C22.7569 50.608 25.8417 49.7007 25.8417 49.7007C25.8743 49.081 26.038 48.4752 26.3222 47.9234C26.6063 47.3717 27.0043 46.8865 27.4899 46.5C29.1331 45.2248 30.4436 44.9476 30.988 45.3155C30.988 45.3155 30.625 48.0525 31.1694 49.1463C31.1694 49.1463 32.994 50.0586 33.5435 50.0586C34.0929 50.0586 33.1856 50.8298 35.0052 51.5153C35.3367 51.6343 35.6913 51.6749 36.0411 51.6338C36.3909 51.5927 36.7265 51.471 37.0214 51.2784C37.2885 50.1695 37.8732 48.5011 38.9619 48.8892C40.5597 49.4588 42.0164 53.3903 39.8541 54.7311C42.455 55.2049 45.6052 50.603 45.7917 46.4093C45.9782 42.2157 41.5174 37.392 38.8158 36.9182Z" fill="#263238"/>
<path d="M31.0688 43.5159C31.0688 43.5159 32.4096 42.7951 34.0528 44.3375C35.696 45.8798 38.8916 47.9414 43.1256 46.8073" stroke="white" stroke-width="0.5" stroke-linecap="round" stroke-linejoin="round"/>
<path d="M30.8823 42.2812C30.8823 42.2812 31.8047 40.8396 33.3471 40.8396C34.8895 40.8396 38.4934 43.002 41.3715 43.002" stroke="white" stroke-width="0.5" stroke-linecap="round" stroke-linejoin="round"/>
<path d="M29.8332 45.0583C29.8332 45.0583 28.0842 42.901 26.441 44.6501C24.7978 46.3991 25.8412 48.0523 25.8412 48.0523" stroke="white" stroke-width="0.5" stroke-linecap="round" stroke-linejoin="round"/>
<path d="M22.8428 46.5002C23.8451 45.5963 24.4681 44.3466 24.5868 43.0021C24.7934 40.739 27.8832 38.7833 29.8339 40.6382" stroke="white" stroke-width="0.5" stroke-linecap="round" stroke-linejoin="round"/>
<path d="M26.0278 38.2691C26.0278 38.2691 29.1176 35.2852 31.6882 39.0907" stroke="white" stroke-width="0.5" stroke-linecap="round" stroke-linejoin="round"/>
<path d="M51.1747 184.981C51.1747 184.981 53.075 187.935 52.8633 189.835L52.6566 191.735C52.6566 191.735 45.6857 193.646 44.2089 193.646C42.732 193.646 34.9143 192.905 34.9143 192.905L34.5766 191.564C34.5529 191.465 34.5641 191.361 34.6081 191.269C34.6522 191.177 34.7265 191.103 34.8185 191.06L41.7894 187.809L43.9871 185.405L51.1747 184.981Z" fill="white" stroke="#263238" stroke-width="1.00396" stroke-miterlimit="10"/>
<path d="M45.2674 192.159C47.1575 192.305 50.7463 191.151 52.828 190.415L52.6818 191.735C52.6818 191.735 45.6857 193.646 44.2089 193.646C42.732 193.646 34.9143 192.905 34.9143 192.905L34.6724 191.947C35.9224 191.952 42.7673 191.967 45.2674 192.159Z" fill="#FDC949" stroke="#263238" stroke-width="1.00396" stroke-miterlimit="10"/>
<path d="M41.7993 187.809L31.6529 192.224C31.6529 192.224 30.7859 194.396 31.6529 194.83C32.5198 195.263 51.4215 194.83 51.4215 194.83C51.4215 194.83 52.727 191.397 50.6654 189.094C48.6039 186.79 41.7993 187.809 41.7993 187.809Z" fill="white" stroke="#263238" stroke-width="1.00396" stroke-miterlimit="10"/>
<path d="M51.4218 194.83C51.4218 194.83 32.5201 195.263 31.6532 194.83C31.2348 194.618 31.2197 194.008 31.3155 193.429H51.7545C51.6877 193.905 51.5763 194.374 51.4218 194.83Z" fill="#FDC949" stroke="#263238" stroke-width="1.00396" stroke-miterlimit="10"/>
<path d="M37.0016 111.088C37.0016 111.088 34.3503 122.838 33.3473 130.187C32.3443 137.536 31.7545 152.259 31.9662 153.947C32.1779 155.636 42.7326 183.928 42.7326 183.928L43.786 186.448L51.1753 184.971C51.1753 184.971 47.7982 174.205 46.5331 168.292C45.2679 162.38 42.5007 152.667 42.5007 150.978C42.5007 149.29 49.0533 117.041 49.5221 114.924C49.9908 112.807 52.1179 109.556 52.1179 109.556L37.9694 109.269L37.0016 111.088Z" fill="#FDC949" stroke="#263238" stroke-width="1.00396" stroke-miterlimit="10"/>
<path d="M37.0007 111.088C37.0007 111.088 35.4482 121.819 36.0884 129.279C36.7285 136.739 38.1045 152.621 38.1045 154.985C38.1045 157.349 41.9202 171.467 42.1369 175.903C42.4746 182.309 42.0008 185.48 42.0008 185.48L41.774 187.803C41.774 187.803 46.2247 188.439 47.1975 188.716C48.3211 189.005 49.4806 189.131 50.6401 189.089C50.6401 189.089 52.2581 181.967 52.2581 175.898C52.2581 169.829 50.9123 157.339 50.2419 152.278C49.5715 147.218 51.6835 127.696 52.8831 124.052C54.0827 120.408 56.7038 112.691 54.9396 108.749C53.1754 104.808 37.0007 111.088 37.0007 111.088Z" fill="#FDC949" stroke="#263238" stroke-width="1.00396" stroke-miterlimit="10"/>
<path d="M56.9001 106.773L56.7388 111.572C56.7388 111.572 53.8658 112.142 49.9947 112.812C46.7991 113.366 38.7747 112.666 36.073 112.404C35.8268 112.382 35.5992 112.264 35.4397 112.075C35.2802 111.886 35.2016 111.642 35.2212 111.396L35.4833 107.061L56.9001 106.773Z" fill="#263238"/>
<path d="M45.6705 58.9397C45.6705 58.9397 41.1342 63.844 39.4254 66.8935C37.7167 69.943 37.0413 74.6155 36.4012 78.295C35.7611 81.9745 37.495 90.6138 37.006 94.5806L35.4586 107.076C35.4586 107.076 35.126 107.923 36.2399 108.85C37.3538 109.778 42.7925 110.115 47.7069 110.362C49.5013 110.453 54.8593 109.299 55.7363 109.243C56.7948 109.178 56.8301 107.832 56.8754 106.773C57.0871 101.799 57.9843 88.5371 58.5741 82.7608C59.7888 70.9813 53.1405 59.6101 45.6705 58.9397Z" fill="white" stroke="#263238" stroke-width="1.00396" stroke-miterlimit="10"/>
<g style="mix-blend-mode:multiply">
<path d="M58.02 89.4596C58.2216 86.8436 58.4233 84.4695 58.5997 82.7608C58.6501 82.2568 58.6803 81.7527 58.7055 81.2487L46.6538 83.2649L36.3008 79.7366C36.3019 81.8788 36.4231 84.0193 36.6637 86.148L46.8202 88.9908L58.02 89.4596Z" fill="#FDC949"/>
</g>
<g style="mix-blend-mode:multiply">
<path d="M45.2217 59.4336C44.5362 60.1947 43.1753 61.7421 41.8799 63.3853L49.5313 71.1627L52.0515 70.1546L45.2217 59.4336Z" fill="#FDC949"/>
</g>
<path d="M45.6706 58.9397C45.6706 58.9397 41.1342 63.844 39.4255 66.8935C38.9188 67.8203 38.5084 68.7965 38.2007 69.8069L47.3239 59.2673C46.7849 59.104 46.2311 58.9943 45.6706 58.9397Z" fill="#263238"/>
<g style="mix-blend-mode:multiply">
<path d="M36.7539 76.309L46.6533 79.5651L58.6748 78.184C58.4863 75.1893 57.821 72.2439 56.704 69.459L47.0112 73.3452L38.3467 69.4187C37.6382 71.6708 37.1057 73.9745 36.7539 76.309Z" fill="#FDC949"/>
</g>
<g style="mix-blend-mode:multiply">
<path d="M53.7963 101.799C48.7754 102.642 43.6235 102.221 38.806 100.574L36.3916 99.7471L35.6406 105.796L38.3927 106.567C43.6245 108.03 49.0927 108.451 54.4868 107.807L56.7097 107.54C56.8253 107.295 56.8905 107.029 56.9012 106.758C56.9617 105.413 57.0675 103.457 57.2036 101.214L53.7963 101.799Z" fill="#FDC949"/>
</g>
<g style="mix-blend-mode:multiply">
<path d="M55.1415 93.5626C50.1204 94.4089 44.9673 93.9862 40.1512 92.3327L37.0766 91.2793C37.1528 92.3775 37.1377 93.4801 37.0312 94.5757L36.6733 97.4841L39.7379 98.3409C44.9677 99.8053 50.4342 100.228 55.827 99.5859L57.3391 99.4045C57.4651 97.3883 57.6113 95.2411 57.7676 93.1191L55.1415 93.5626Z" fill="#FDC949"/>
</g>
<path d="M7.85325 72.2479L17.5991 80.0837L18.0192 79.5613L8.27331 71.7254L7.85325 72.2479Z" fill="#263238"/>
<path d="M50.3634 64.3787C50.3634 64.3787 53.9371 66.8132 54.0178 72.5643C54.053 75.0846 53.7909 77.4384 53.2113 81.5666C52.6316 85.6947 49.0328 99.1375 46.2303 100.771C43.4278 102.404 39.0779 99.319 39.0779 99.319L18.0391 85.3519L12.9533 81.244L10.4331 76.4858L11.2245 74.9737L17.4292 79.7318L14.0874 76.642L14.7427 75.8104L15.9524 76.6521L19.4807 77.9727L20.2519 83.0132L21.3406 83.7592L41.4671 91.1131C41.4671 91.1131 41.2151 80.2812 41.4016 78.2096C41.588 76.138 41.8451 70.9312 44.0629 67.1559" fill="white"/>
<g style="mix-blend-mode:multiply" opacity="0.5">
<path d="M41.3261 82.9272C41.3261 86.6672 41.4522 91.1129 41.4522 91.1129L21.3459 83.7891L20.2571 83.0431L19.4859 78.0027L15.9576 76.6821L14.753 75.8252L14.0977 76.6569L17.4294 79.7316L11.2247 74.9734L10.4736 76.4603L12.9939 81.2185L18.0797 85.3516L19.3599 86.2035L47.1579 95.1603L41.3261 82.9272Z" fill="#FDC949"/>
</g>
<path d="M50.3634 64.3787C50.3634 64.3787 53.9371 66.8132 54.0178 72.5643C54.053 75.0846 53.7909 77.4384 53.2113 81.5666C52.6316 85.6947 49.0328 99.1375 46.2303 100.771C43.4278 102.404 39.0779 99.319 39.0779 99.319L18.0391 85.3519L12.9533 81.244L10.4331 76.4858L11.2245 74.9737L17.4292 79.7318L14.0874 76.642L14.7427 75.8104L15.9524 76.6521L19.4807 77.9727L20.2519 83.0132L21.3406 83.7592L41.4671 91.1131C41.4671 91.1131 41.2151 80.2812 41.4016 78.2096C41.588 76.138 41.8451 70.9312 44.0629 67.1559" stroke="#263238" stroke-width="1.00396" stroke-miterlimit="10"/>
<path d="M41.4671 91.1132L49.1487 96.6577L51.1397 93.1294C51.1397 93.1294 52.5157 92.0457 52.7173 91.2292C52.919 90.4126 52.6619 89.087 52.8685 88.2704C53.0752 87.4539 54.1035 86.6877 54.1992 84.7119C54.295 82.736 54.1992 81.0878 54.1992 81.0878C54.1992 81.0878 55.8626 74.2479 55.6811 71.2741C55.4997 68.3002 52.6316 63.0431 50.3332 62.9271C48.0348 62.8112 45.0458 63.159 42.7272 66.6671C40.4086 70.1753 40.8824 80.4174 40.5195 81.0576C40.1566 81.6977 40.6606 84.8581 40.6606 84.8581C40.4592 85.0083 40.292 85.1997 40.1704 85.4196C40.0487 85.6395 39.9753 85.8828 39.9549 86.1333C39.9146 86.9549 40.8017 88.9761 40.8017 88.9761L41.4671 91.1132Z" fill="white" stroke="#263238" stroke-width="1.00396" stroke-miterlimit="10"/>
<g style="mix-blend-mode:multiply">
<path d="M40.7209 78.4265C40.7368 79.3061 40.6709 80.1852 40.5244 81.0526C40.2018 81.6272 40.5697 84.223 40.6504 84.7523C44.9709 86.0942 49.5396 86.4389 54.0126 85.7604C54.1087 85.4098 54.1661 85.0498 54.1839 84.6867C54.2847 82.7159 54.1839 81.0627 54.1839 81.0627C54.1839 81.0627 54.3301 80.4528 54.5317 79.5253C49.8993 79.8198 45.2485 79.4498 40.7209 78.4265Z" fill="#FDC949"/>
</g>
<g style="mix-blend-mode:multiply">
<path d="M42.415 67.2263C41.6942 68.6729 41.2909 70.8454 41.0591 73.048C45.6348 74.7943 50.5683 75.3948 55.4294 74.7971C55.6233 73.6314 55.7094 72.4503 55.6864 71.2688C55.5991 70.3348 55.3785 69.4182 55.0312 68.5469C50.7867 68.646 46.5469 68.2022 42.415 67.2263Z" fill="#FDC949"/>
</g>
<path d="M40.8018 89.0312L41.452 91.113L49.1336 96.6574L51.1246 93.1291C51.1246 93.1291 52.5006 92.0454 52.7022 91.2289C52.7382 91.0869 52.7602 90.9417 52.7678 90.7954C48.7197 90.7255 44.6977 90.1325 40.8018 89.0312Z" fill="#263238"/>
<path d="M46.361 188.651C46.361 188.651 46.5324 184.286 47.3691 177.904C48.2058 171.523 46.1947 162.461 45.857 160.948C45.5193 159.436 46.0284 156.079 45.6906 154.9C45.3529 153.72 43.7198 148.69 44.6826 142.853C45.6453 137.016 46.4265 121.588 46.4265 121.588C46.4265 121.588 44.0021 119.617 43.2914 117.051C42.5807 114.486 43.1251 113.679 43.1251 113.679" stroke="#263238" stroke-width="1.00396" stroke-miterlimit="10"/>
<path d="M47.4857 113.916L46.5532 119.077" stroke="#263238" stroke-width="1.00396" stroke-miterlimit="10"/>
</svg>
