<svg data-name="Iconly/Bulk/Message" height="24" id="Iconly_Bulk_Message" viewBox="0 0 24 24" width="24" xmlns="http://www.w3.org/2000/svg">
    <path d="M20,7.143a5.047,5.047,0,0,1-5.03,5.06H5.05A5.047,5.047,0,0,1,0,7.163v-.01S.006,2.727.014.5A.5.5,0,0,1,.822.109C3.2,1.994,7.447,5.431,7.5,5.476a4.067,4.067,0,0,0,2.53.89,4.013,4.013,0,0,0,2.53-.9C12.613,5.43,16.767,2.1,19.179.18a.5.5,0,0,1,.811.39C20,2.779,20,7.143,20,7.143" data-name="Fill 1"
        fill="#200e32"
        id="Fill_1" opacity="0.4" transform="translate(2 8.797)" />
    <path d="M18.973,2.674A5.035,5.035,0,0,0,14.527,0H4.547A5.035,5.035,0,0,0,.1,2.674.864.864,0,0,0,.322,3.752L7.747,9.691a2.826,2.826,0,0,0,1.78.629h.02a2.826,2.826,0,0,0,1.78-.629l7.425-5.939a.864.864,0,0,0,.221-1.078" data-name="Fill 4"
        fill="#200e32"
        id="Fill_4" transform="translate(2.503 3)" />
</svg>
