<svg data-name="Iconly/Bulk/Setting" height="24" id="Iconly_Bulk_Setting" viewBox="0 0 24 24" width="24" xmlns="http://www.w3.org/2000/svg">
    <g id="Setting" transform="translate(2.5 2)">
        <path d="M2.9,5.65A2.853,2.853,0,0,1,0,2.83,2.861,2.861,0,0,1,2.9,0a2.825,2.825,0,1,1,0,5.65" fill="#200e32" id="Path" transform="translate(6.61 7.18)" />
        <path d="M18.73,12.37a2.3,2.3,0,0,0-.828-.79,1.547,1.547,0,0,1-.634-.64,1.822,1.822,0,0,1,.654-2.5,2.027,2.027,0,0,0,.756-2.83l-.685-1.18a2.112,2.112,0,0,0-2.872-.76,1.973,1.973,0,0,1-2.575-.69,1.546,1.546,0,0,1-.235-.88,1.778,1.778,0,0,0-.276-1.06A2.152,2.152,0,0,0,10.217,0H8.776A2.195,2.195,0,0,0,6.967,1.04,1.785,1.785,0,0,0,6.681,2.1a1.546,1.546,0,0,1-.235.88,1.963,1.963,0,0,1-2.565.69A2.124,2.124,0,0,0,1,4.43L.314,5.61a2.044,2.044,0,0,0,.756,2.83,1.834,1.834,0,0,1,.664,2.5,1.634,1.634,0,0,1-.644.64,2.118,2.118,0,0,0-.818.79,2,2,0,0,0,.02,2.05L1,15.62a2.134,2.134,0,0,0,1.819,1.04,2.161,2.161,0,0,0,1.083-.3,1.586,1.586,0,0,1,.9-.23,1.892,1.892,0,0,1,1.88,1.82A2.07,2.07,0,0,0,8.807,20H10.2a2.068,2.068,0,0,0,2.115-2.05A1.908,1.908,0,0,1,14.2,16.13a1.63,1.63,0,0,1,.9.23,2.1,2.1,0,0,0,2.892-.74l.715-1.2a2.018,2.018,0,0,0,.02-2.05" data-name="Path"
            fill="#200e32"
            id="Path-2" opacity="0.4" />
    </g>
</svg>
