<svg data-name="Iconly/Bulk/Tick Square" height="24" id="Iconly_Bulk_Tick_Square" viewBox="0 0 24 24" width="24" xmlns="http://www.w3.org/2000/svg">
    <g data-name="Tick Square" id="Tick_Square" transform="translate(2 2)">
        <path d="M14.34,0H5.67C2.28,0,0,2.38,0,5.92v8.17C0,17.62,2.28,20,5.67,20h8.67C17.73,20,20,17.62,20,14.09V5.92C20,2.38,17.73,0,14.34,0" data-name="Fill 1" fill="#200e32" id="Fill_1"
            opacity="0.4" />
        <path d="M3.249,6.5a.872.872,0,0,1-.619-.256L.257,3.868A.875.875,0,0,1,1.493,2.629L3.249,4.385,7.377.257A.875.875,0,0,1,8.613,1.495L3.868,6.24a.872.872,0,0,1-.619.256" data-name="Fill 4"
            fill="#200e32"
            id="Fill_4" transform="translate(5.565 6.752)" />
    </g>
</svg>
