<svg data-name="Iconly/Bulk/Ticket Star" height="24" id="Iconly_Bulk_Ticket_Star" viewBox="0 0 24 24" width="24" xmlns="http://www.w3.org/2000/svg">
    <g data-name="Ticket Star" id="Ticket_Star" transform="translate(2 3)">
        <path d="M19.25,10.476a1.476,1.476,0,1,1,0-2.952.754.754,0,0,0,.53-.217A.741.741,0,0,0,20,6.781V4.1A4.129,4.129,0,0,0,15.856,0H4.144A4.129,4.129,0,0,0,0,4.1V6.868a.741.741,0,0,0,.22.526.754.754,0,0,0,.53.217A1.41,1.41,0,0,1,2.239,9,1.484,1.484,0,0,1,.75,10.476.747.747,0,0,0,0,11.22v2.675A4.129,4.129,0,0,0,4.143,18H15.857A4.129,4.129,0,0,0,20,13.895V11.22a.747.747,0,0,0-.75-.743" data-name="Fill 1"
            fill="#fff"
            id="Fill_1" opacity="0.4" />
        <path d="M7.086,3.388,5.907,4.536l.279,1.623a.741.741,0,0,1-1.076.779L3.655,6.173,2.2,6.939a.739.739,0,0,1-1.072-.78L1.4,4.536.224,3.388A.739.739,0,0,1,.637,2.126l1.626-.237L2.992.412A.738.738,0,0,1,3.655,0h0a.736.736,0,0,1,.662.413l.729,1.476,1.629.238a.739.739,0,0,1,.409,1.261" data-name="Fill 4"
            fill="#fff"
            id="Fill_4" transform="translate(6.344 5.201)" />
    </g>
</svg>
