<svg data-name="Iconly/Bulk/Close Square" height="20" id="Iconly_Bulk_Close_Square" viewBox="0 0 20 20" width="20" xmlns="http://www.w3.org/2000/svg">
    <path d="M14.34,0H5.67C2.28,0,0,2.38,0,5.92v8.17C0,17.62,2.28,20,5.67,20h8.67C17.73,20,20,17.62,20,14.09V5.92C20,2.38,17.73,0,14.34,0" data-name="Fill 1" fill="#200e32" id="Fill_1"
        opacity="0.4" />
    <path d="M6.29,5.052,4.511,3.274,6.289,1.5A.875.875,0,0,0,5.052.258L3.273,2.036,1.494.256A.875.875,0,1,0,.256,1.494l1.78,1.78L.26,5.049A.875.875,0,0,0,1.5,6.287L3.273,4.511,5.053,6.29A.875.875,0,0,0,6.29,5.052" data-name="Fill 4"
        fill="#200e32"
        id="Fill_4" transform="matrix(0.719, 0.695, -0.695, 0.719, 9.918, 5.364)" />
</svg>
