<svg data-name="Iconly/Bulk/Calendar" height="24" id="Iconly_Bulk_Calendar" viewBox="0 0 24 24" width="24" xmlns="http://www.w3.org/2000/svg">
    <g id="Calendar" transform="translate(3 2)">
        <path d="M5.127,12.743A4.776,4.776,0,0,1,0,7.613V0H18V7.674c0,3.138-1.976,5.069-5.137,5.069Z" data-name="Fill 1" fill="#fff" id="Fill_1" transform="translate(0 7.257)" />
        <path d="M0,5.767A15.855,15.855,0,0,1,.155,3.64,4.591,4.591,0,0,1,4.541,0h8.911a4.639,4.639,0,0,1,4.386,3.64,15.893,15.893,0,0,1,.154,2.127Z" data-name="Fill 4" fill="#fff"
            id="Fill_4" opacity="0.4" transform="translate(0.003 1.49)" />
        <path d="M.761,4.59a.747.747,0,0,0,.761-.77V.771A.748.748,0,0,0,.761,0,.748.748,0,0,0,0,.771V3.82a.747.747,0,0,0,.761.77" data-name="Fill 6" fill="#fff" id="Fill_6"
            transform="translate(4.544)" />
        <path d="M.761,4.59a.753.753,0,0,0,.761-.77V.771A.754.754,0,0,0,.761,0,.748.748,0,0,0,0,.771V3.82a.747.747,0,0,0,.761.77" data-name="Fill 9" fill="#fff" id="Fill_9"
            transform="translate(11.934)" />
    </g>
</svg>
