<svg data-name="Iconly/Bulk/Heart" height="16" id="Iconly_Bulk_Heart" viewBox="0 0 16 16" width="16" xmlns="http://www.w3.org/2000/svg">
    <g id="Heart" transform="translate(1.333 2)">
        <path d="M6.5,12.558A24.172,24.172,0,0,1,2.284,9.253a8.445,8.445,0,0,1-2.02-3.2C-.495,3.69.388.993,2.853.192a4.188,4.188,0,0,1,3.8.674h0a4.194,4.194,0,0,1,3.8-.674c2.465.8,3.354,3.5,2.6,5.858a8.446,8.446,0,0,1-2.009,3.2,24.392,24.392,0,0,1-4.219,3.305l-.166.108Z"
            fill="none"
            id="Path_34179" opacity="0.4" stroke="#3e3e3e" stroke-width="1" transform="translate(0.015 0)" />
        <path d="M6.674,12.666l-.157-.108A24.213,24.213,0,0,1,2.293,9.253,8.445,8.445,0,0,1,.26,6.05C-.492,3.69.391.993,2.856.192A4.2,4.2,0,0,1,6.674.873Z" fill="none" id="Path_34178"
            stroke="#3e3e3e" stroke-width="1" transform="translate(0 0)" />
        <path d="M1.487,2.666h0a.479.479,0,0,1-.345-.185.545.545,0,0,1-.111-.394h0a1.1,1.1,0,0,0-.663-1.06A.525.525,0,0,1,.015.395.483.483,0,0,1,.591.013.256.256,0,0,1,.683.047,2.131,2.131,0,0,1,2,2.151a.538.538,0,0,1-.153.373A.472.472,0,0,1,1.487,2.666Z"
            fill="none"
            id="Path_34180" stroke="#3e3e3e" stroke-width="1" transform="translate(9.333 2)" />
    </g>
</svg>
