<svg id="Iconly_Bulk_Unlock" data-name="Iconly/Bulk/Unlock" xmlns="http://www.w3.org/2000/svg" width="24" height="24" viewBox="0 0 24 24">
  <g id="Unock" transform="translate(3.5 2)">
    <path id="Fill_1" data-name="Fill 1" d="M1.778,6.709V5.367a3.709,3.709,0,0,1,3.76-3.628A3.727,3.727,0,0,1,9.064,4.2a.906.906,0,0,0,1.138.537.861.861,0,0,0,.549-1.1A5.53,5.53,0,0,0,5.518,0,5.482,5.482,0,0,0,0,5.387V6.911Z" transform="translate(2.961 0)" fill="#200e32" opacity="0.4"/>
    <path id="Fill_4" data-name="Fill 4" d="M12.731,13.289H4.269A4.227,4.227,0,0,1,0,9.113V4.175A4.227,4.227,0,0,1,4.269,0h8.463A4.227,4.227,0,0,1,17,4.175V9.113A4.227,4.227,0,0,1,12.731,13.289ZM8.5,4.672a.875.875,0,0,0-.884.864V7.743a.889.889,0,0,0,1.778,0V5.536A.88.88,0,0,0,8.5,4.672Z" transform="translate(0 6.711)" fill="#200e32"/>
  </g>
</svg>
