<svg data-name="Iconly/Bulk/Discovery" height="24" id="Iconly_Bulk_Discovery" viewBox="0 0 24 24" width="24" xmlns="http://www.w3.org/2000/svg">
    <g id="Discovery" transform="translate(2 2)">
        <path d="M20,10A10,10,0,1,1,10,0,10,10,0,0,1,20,10" data-name="Fill 1" fill="#3e3e3e" id="Fill_1" opacity="0.4" />
        <path d="M7.742.592l-1.62,5.12a.651.651,0,0,1-.44.441l-5.1,1.6a.448.448,0,0,1-.56-.56l1.6-5.13a.668.668,0,0,1,.44-.44l5.12-1.6a.449.449,0,0,1,.56.57" data-name="Fill 4" fill="#3e3e3e"
            id="Fill_4" transform="translate(6.118 6.113)" />
    </g>
</svg>
