<svg data-name="Iconly/Bulk/Calendar" height="13" id="Iconly_Bulk_Calendar" viewBox="0 0 11.5 13" width="11.5" xmlns="http://www.w3.org/2000/svg">
    <g id="Calendar">
        <path d="M3.276,8.283A3.078,3.078,0,0,1,0,4.949V0H11.5V4.988A3.049,3.049,0,0,1,8.218,8.283Z" data-name="Fill 1" fill="#3e3e3e" id="Fill_1" transform="translate(0 4.717)" />
        <path d="M0,3.749A10.482,10.482,0,0,1,.1,2.366,2.948,2.948,0,0,1,2.9,0H8.595a2.979,2.979,0,0,1,2.8,2.366,10.506,10.506,0,0,1,.1,1.383Z" data-name="Fill 4" fill="#3e3e3e"
            id="Fill_4" opacity="0.4" transform="translate(0.002 0.968)" />
        <path d="M.486,2.984a.481.481,0,0,0,.486-.5V.5A.482.482,0,0,0,.486,0,.482.482,0,0,0,0,.5V2.483a.481.481,0,0,0,.486.5" data-name="Fill 6" fill="#3e3e3e" id="Fill_6"
            transform="translate(2.903)" />
        <path d="M.486,2.984a.485.485,0,0,0,.486-.5V.5A.486.486,0,0,0,.486,0,.482.482,0,0,0,0,.5V2.483a.481.481,0,0,0,.486.5" data-name="Fill 9" fill="#3e3e3e" id="Fill_9"
            transform="translate(7.625)" />
    </g>
</svg>
