<svg data-name="Iconly/Light/Buy" height="24" id="Iconly_Light_Buy" viewBox="0 0 24 24" width="24" xmlns="http://www.w3.org/2000/svg">
    <g id="Buy" transform="translate(2 2.5)">
        <path d="M.764,0A.765.765,0,1,1,0,.765.766.766,0,0,1,.764,0Z" data-name="Stroke 1" fill="none" id="Stroke_1" stroke="#200e32" stroke-linecap="round" stroke-linejoin="round"
            stroke-miterlimit="10" stroke-width="1.5" transform="translate(4.658 17.32)" />
        <path d="M.765,0A.765.765,0,1,1,0,.765.766.766,0,0,1,.765,0Z" data-name="Stroke 3" fill="none" id="Stroke_3" stroke="#200e32" stroke-linecap="round" stroke-linejoin="round"
            stroke-miterlimit="10" stroke-width="1.5" transform="translate(15.91 17.32)" />
        <path d="M0,0,2.08.36l.963,11.473a1.8,1.8,0,0,0,1.8,1.653H15.752a1.8,1.8,0,0,0,1.785-1.546l.949-6.558a1.341,1.341,0,0,0-1.327-1.533H2.414" data-name="Stroke 5" fill="none"
            id="Stroke_5" stroke="#200e32" stroke-linecap="round" stroke-linejoin="round" stroke-miterlimit="10" stroke-width="1.5" transform="translate(0.75 0.75)" />
        <path d="M0,.5H2.773" data-name="Stroke 7" fill="none" id="Stroke_7" stroke="#200e32" stroke-linecap="round" stroke-linejoin="round" stroke-miterlimit="10" stroke-width="1.5"
            transform="translate(12.125 7.795)" />
    </g>
</svg>
