<svg data-name="Iconly/Bulk/Heart" height="18" id="Iconly_Bulk_Heart" viewBox="0 0 18 18" width="18" xmlns="http://www.w3.org/2000/svg">
    <g id="Heart" transform="translate(1.5 2.25)">
        <path d="M7.316,14.128A27.193,27.193,0,0,1,2.57,10.41,9.5,9.5,0,0,1,.3,6.806C-.557,4.151.437,1.117,3.209.216A4.712,4.712,0,0,1,7.489.975h0A4.718,4.718,0,0,1,11.768.216c2.773.9,3.773,3.935,2.92,6.59a9.5,9.5,0,0,1-2.26,3.6,27.441,27.441,0,0,1-4.746,3.718L7.5,14.25Z"
            fill="#200e32"
            id="Path_34179" opacity="0.4" transform="translate(0.016 0)" />
        <path d="M7.508,14.25l-.176-.122a27.239,27.239,0,0,1-4.753-3.718,9.5,9.5,0,0,1-2.286-3.6C-.554,4.151.44,1.117,3.213.216a4.722,4.722,0,0,1,4.3.767Z" fill="#200e32" id="Path_34178"
            transform="translate(0 0)" />
        <path d="M1.673,3h0a.539.539,0,0,1-.388-.208.614.614,0,0,1-.125-.444h0A1.235,1.235,0,0,0,.414,1.155a.591.591,0,0,1-.4-.71A.544.544,0,0,1,.664.014a.287.287,0,0,1,.1.039A2.4,2.4,0,0,1,2.247,2.419a.605.605,0,0,1-.172.42A.531.531,0,0,1,1.673,3Z"
            fill="#200e32"
            id="Path_34180" transform="translate(10.5 2.25)" />
    </g>
</svg>
