<svg data-name="Iconly/Bulk/3 User" height="20" id="Iconly_Bulk_3_User" viewBox="0 0 20 20" width="20" xmlns="http://www.w3.org/2000/svg">
    <g data-name="3 User" id="_3_User" transform="translate(0.833 3.333)">
        <path d="M5.3,0C2.426,0,0,.47,0,2.283S2.441,4.55,5.3,4.55c2.875,0,5.3-.47,5.3-2.283S8.16,0,5.3,0" data-name="Fill 1" fill="#200e32" id="Fill_1" transform="translate(3.823 8.783)" />
        <path d="M3.508,7.056A3.506,3.506,0,0,0,7.015,3.528,3.508,3.508,0,1,0,0,3.528,3.506,3.506,0,0,0,3.508,7.056" data-name="Fill 3" fill="#200e32" id="Fill_3" opacity="0.4"
            transform="translate(5.616)" />
        <path d="M3.521,3.761A2.979,2.979,0,0,0,.668,0,2.989,2.989,0,0,0,.077.061.113.113,0,0,0,.008.1.086.086,0,0,0,.022.194,4.839,4.839,0,0,1,.912,3a4.8,4.8,0,0,1-.82,2.7.132.132,0,0,0,.089.2,2.735,2.735,0,0,0,.4.039A2.928,2.928,0,0,0,3.521,3.761" data-name="Fill 6"
            fill="#200e32"
            id="Fill_6" opacity="0.4" transform="translate(13.219 0.589)" />
        <path d="M4.506,1.325A2.3,2.3,0,0,0,2.73.238,12.963,12.963,0,0,0,.027,0,.031.031,0,0,0,0,.023a.038.038,0,0,0,.024.04A3.709,3.709,0,0,1,2.237,3.714a.151.151,0,0,0,.169.171c.481-.069,1.717-.336,2.1-1.168a1.6,1.6,0,0,0,0-1.391" data-name="Fill 8"
            fill="#200e32"
            id="Fill_8" transform="translate(13.669 7.689)" />
        <path d="M3.543.061A2.928,2.928,0,0,0,2.952,0,2.978,2.978,0,0,0,.1,3.761,2.926,2.926,0,0,0,3.037,5.946a2.831,2.831,0,0,0,.4-.039.132.132,0,0,0,.089-.2A4.868,4.868,0,0,1,3.6.194.086.086,0,0,0,3.612.1.108.108,0,0,0,3.543.061" data-name="Fill 11"
            fill="#200e32"
            id="Fill_11" opacity="0.4" transform="translate(1.494 0.589)" />
        <path d="M1.935.238A2.294,2.294,0,0,0,.159,1.324a1.6,1.6,0,0,0,0,1.392c.384.832,1.62,1.1,2.1,1.168a.15.15,0,0,0,.168-.171A3.708,3.708,0,0,1,4.641.063.039.039,0,0,0,4.664.022.028.028,0,0,0,4.638,0a12.931,12.931,0,0,0-2.7.236" data-name="Fill 13"
            fill="#200e32"
            id="Fill_13" transform="translate(0 7.69)" />
    </g>
</svg>
